<ttFont>
          <CharString index="0">
            30 -8 -15 15 -28 hhcurveto
            -34 -11 -16 -30 -9 hvcurveto
            -39 -129 -102 -396 -57 -166 -9 -27 -16 -8 -24 -3 rrcurveto
            -1 -6 -46 -5 -5 hhcurveto
            -13 -16 -10 -17 99 callgsubr
            hvcurveto
            278 hlineto
            26 8 14 15 24 -12 8 -21 -46 -26 5 11 22 17 70 19 45 hvcurveto
            232 hlineto
            9 -28 38 -132 -19 -57 -53 31 -42 vvcurveto
            return
          </CharString>
          <CharString index="1">
            -81 6 -66 -136 -183 -2 -5 -128 vvcurveto
            -22 -9 -12 -38 -2 vhcurveto
            -28 -1 -23 -10 -29 vvcurveto
            -22 13 -11 35 vhcurveto
            81 108 2 81 81 75 -2 81 hhcurveto
            33 6 5 28 3 hvcurveto
            9 81 7 148 23 vvcurveto
            22 -20 11 -18 vhcurveto
            return
          </CharString>
          <CharString index="2">
            rmoveto
            -27 114 -31 138 -3 13 rrcurveto
            33 -8 -15 15 -29 hhcurveto
            -31 -22 -14 -33 -10 hvcurveto
            -7 -24 -38 -110 -39 -123 rrcurveto
            -74 232 -6 27 6 vvcurveto
            6 5 4 9 vhcurveto
            28 hlineto
            24 14 7 21 30 -21 1 -39 hvcurveto
            -124 hlineto
            -42 -30 -3 -30 -30 37 5 26 -1 hvcurveto
            8 2 -1 -11 4 hvcurveto
            115 -332 rlineto
            -41 14 18 -13 25 hhcurveto
            27 19 11 27 9 hvcurveto
            91 269 62 -272 rlineto
            -37 8 15 -23 29 hhcurveto
            23 18 14 26 10 hvcurveto
            77 200 46 119 10 7 rrcurveto
            return
          </CharString>
          <CharString index="3">
            39 11 10 19 25 vvcurveto
            24 -20 16 -27 -46 -41 -43 -69 -65 40 -46 81 67 49 31 41 33 vhcurveto
            26 33 20 42 33 93 95 269 rcurveline
            5 15 6 8 14 1 rrcurveto
            31 2 38 9 27 vvcurveto
            27 -23 9 -35 vhcurveto
            -162 hlineto
            -27 -23 -7 -29 -18 8 -12 29 -4 hvcurveto
            32 -4 10 -8 -10 vvcurveto
            -11 -2 -9 -6 -17 vhcurveto
            -60 -192 -116 209 rlineto
            -15 27 -3 7 9 vvcurveto
            6 5 3 5 1 vhcurveto
            41 8 16 12 20 vvcurveto
            21 -11 15 -41 vhcurveto
            -154 hlineto
            return
          </CharString>
          <CharString index="4">
            127 -86 114 -156 -157 -93 -103 -139 -142 92 -99 149 118 133 80 162 vhcurveto
            -240 163 rmoveto
            86 60 -67 -92 -115 -90 -52 -65 -66 -81 53 110 105 74 58 82 hvcurveto
            return
          </CharString>
          <CharString index="5">
            -90 2 -88 -89 -45 -1 -45 -43 vvcurveto
            -73 2 -88 18 -48 vhcurveto
            -95 36 78 -44 156 hhcurveto
            157 108 88 198 hvcurveto
            73 -2 74 73 62 2 53 63 vvcurveto
            25 27 5 47 vhcurveto
            return
          </CharString>
          <CharString index="6">
            38 48 -24 51 hhcurveto
            30 81 16 59 21 -15 14 -7 -6 -10 -5 -8 -14 hvcurveto
            -10 -19 -23 -7 -18 hhcurveto
            return
          </CharString>
          <CharString index="7">
            -40 -15 -15 -14 vvcurveto
            -23 20 0 6 16 65 39 80 58 -36 23 -32 return
          </CharString>
          <CharString index="8">
            rmoveto
            -24 -24 -8 -29 -1 hvcurveto
            -2 -44 -7 -75 -4 -41 rrcurveto
            -23 callgsubr
            -278 293 hlineto
            1 38 12 1 38 27 16 -1 11 hhcurveto
            return
          </CharString>
          <CharString index="9">
            -5 callsubr
            25 49 23 53 82 23 -54 -82 vhcurveto
            -217 -151 rmoveto
            33 27 33 75 66 45 -26 -28 -24 -33 -41 -90 -62 -28 19 34 vhcurveto
            return
          </CharString>
          <CharString index="10">
            35 2 -9 -40 hvcurveto
            -74 vlineto
            -42 11 -13 37 19 21 4 40 vhcurveto
            21 -1 47 22 21 1 42 22 vvcurveto
            39 -6 4 -32 vhcurveto
            -99 -78 -2 -99 -98 -79 2 -98 hhcurveto
            -31 -7 -4 -39 hvcurveto
            -22 1 -42 -21 -22 -1 -47 -21 vvcurveto
            -39 25 -5 18 28 17 13 42 vhcurveto
            74 vlineto
            38 2 11 35 vhcurveto
            endchar
          </CharString>
          <CharString index="11">
            33 30 37 15 55 36 -28 25 -32 -48 -18 return
          </CharString>
          <CharString index="12">
            rmoveto
            19 -13 12 -23 -25 -9 -9 -37 -12 vhcurveto
            -105 -34 -61 -36 -114 hhcurveto
            -139 -68 153 185 184 88 171 125 127 50 -119 -116 2 hvcurveto
            -50 1 15 -9 32 hhcurveto
            33 10 16 32 hvcurveto
            42 -2 37 42 48 4 58 47 vvcurveto
            return
          </CharString>
          <CharString index="13">
            rmoveto
            23 -8 21 -32 -38 -4 -29 -20 -30 -5 -81 -5 -40 vhcurveto
            -25 -3 -14 -9 -43 hhcurveto
            -282 hlineto
            -16 -4 2 8 10 300 455 110 180 hvcurveto
            4 7 30 49 13 vvcurveto
            12 -7 2 -15 vhcurveto
            -68 -96 -2 -68 -68 -67 2 -68 hhcurveto
            -91 -14 -7 -34 hvcurveto
            -30 1 -30 -30 -30 -1 -23 -30 vvcurveto
            -20 8 -32 38 30 7 22 49 vhcurveto
            19 1 35 14 vvcurveto
            32 4 11 38 vhcurveto
            244 hlineto
            45 3 -3 -13 -28 -392 -578 -37 -54 hvcurveto
            -15 -22 -4 -9 -11 vvcurveto
            -16 10 -3 43 vhcurveto
            return
          </CharString>
          <CharString index="14">
            318 vlineto
            3 14 30 4 28 hhcurveto
            69 168 -22 -129 hvcurveto
            -192 -425 rmoveto
            -109 74 70 -98 18 hhcurveto
            192 9 5 31 23 -15 7 -35 hvcurveto
            -108 hlineto
            -87 101 -131 207 0 vvcurveto
            159 20 142 78 166 vvcurveto
            168 -175 59 -122 vhcurveto
            -120 -49 -3 -106 hhcurveto
            -29 -10 -18 -15 -20 15 -12 32 -4 hvcurveto
            37 -5 22 -11 2 -48 rrcurveto
            4 -107 2 -59 -107 -101 -2 -102 -100 vvcurveto
            -38 -24 -6 -24 -3 vhcurveto
            -50 -7 -14 -8 -16 vvcurveto
            return
          </CharString>
          <CharString index="15">
            -93 1 -40 10 14 vvcurveto
            11 25 20 25 8 vhcurveto
            -3 14 7 0 13 hhcurveto
            136 77 66 99 53 -23 48 -49 29 hvcurveto
            31 18 43 1 16 5 rrcurveto
            11 3 7 7 18 vvcurveto
            33 -23 12 -24 -41 -48 -34 -41 -30 vhcurveto
            4 -19 -21 3 -24 hhcurveto
            55 -463 rmoveto
            86 84 -21 -67 -58 -72 -26 -102 hvcurveto
            return
          </CharString>
          <CharString index="16">
            112 -51 111 -35 -74 vvcurveto
            -49 -50 -43 -84 -105 -76 74 51 -13 vhcurveto
            23 -6 0 61 -45 hhcurveto
            -37 -3 -47 -28 hvcurveto
            -20 2 -36 -27 -38 -4 -54 -12 vvcurveto
            -19 11 -22 30 28 16 19 22 13 0 15 -4 48 vhcurveto
            return
          </CharString>
          <CharString index="17">
            rmoveto
            -69 -1 -63 -64 -75 hhcurveto
            -95 0 107 78 hvcurveto
            59 4 90 35 vvcurveto
            42 -15 3 -70 vhcurveto
            return
          </CharString>
          <CharString index="18">
            640 rmoveto
            -14 -60 -39 -23 -46 hvcurveto
            23 -46 -59 39 28 callsubr
            -52 114 -88 18 23 110 91 42 10 -4 11 -9 hvcurveto
            return
          </CharString>
          <CharString index="19">
            rmoveto
            -42 39 45 -8 45 hhcurveto
            91 83 37 92 102 -105 16 -84 24 hvcurveto
            -35 10 -49 19 52 vvcurveto
            33 20 26 58 55 23 -23 -19 12 vhcurveto
            10 -15 12 -23 5 -24 rrcurveto
            return
          </CharString>
          <CharString index="20">
            -27 -2 -15 -9 -31 vvcurveto
            -20 11 -11 26 vhcurveto
            211 hlineto
            262 131 199 240 284 -214 98 -169 -81 -76 0 -3 -66 hvcurveto
            -22 -1 -13 -17 -24 vvcurveto
            252 -38 rmoveto
            203 90 -135 -164 -203 -88 -154 -205 -24 -38 0 10 hvcurveto
            return
          </CharString>
          <CharString index="21">
            -20 67 callsubr
            hintmask 11010000
            149 -85 -83 callsubr
            return
          </CharString>
          <CharString index="22">
            rmoveto
            8 182 1 15 hhcurveto
            73 26 1 10 18 hvcurveto
            20 11 7 18 27 vvcurveto
            return
          </CharString>
          <CharString index="23">
            rmoveto
            33 72 -24 43 vvcurveto
            16 -15 14 -24 vhcurveto
            -228 hlineto
            -23 -23 -9 -21 -22 25 -10 24 -2 hvcurveto
            67 -6 19 -10 11 -21 return
          </CharString>
          <CharString index="24">
            33 callsubr
            hintmask 11001000
            -104 callsubr
            hintmask 11100000
            -81 callsubr
            hintmask 11010000
            96 callgsubr
            return
          </CharString>
          <CharString index="25">
            45 -29 -49 9 -40 hhcurveto
            -145 -93 -120 -131 -133 97 -104 146 121 64 61 45 23 hvcurveto
            6 11 2 13 6 vvcurveto
            16 -13 15 -22 -22 -15 -16 -17 -14 vhcurveto
            return
          </CharString>
          <CharString index="26">
            -42 -20 -5 -33 -23 11 -10 51 -5 hvcurveto
            33 -3 8 -6 11 -19 186 -336 rcurveline
            -9 -28 -13 -31 -25 -27 rrcurveto
            -19 -18 -17 -10 -32 hhcurveto
            return
          </CharString>
          <CharString index="27">
            -59 50 -31 72 75 36 42 45 43 -23 35 -49 8 vhcurveto
            24 2 43 26 56 vvcurveto
            45 -43 37 -70 -72 -33 -41 -45 -39 30 -37 28 -4 vhcurveto
            -33 -5 -35 -27 -51 vvcurveto
            71 5 rmoveto
            33 29 9 17 31 14 -17 -29 -17 -11 -20 -32 -23 -25 9 32 vhcurveto
            9 150 rmoveto
            27 20 9 19 16 22 -6 -34 -9 -9 -22 -30 -12 -26 5 30 vhcurveto
            return
          </CharString>
          <CharString index="28">
            rmoveto
            -26 14 23 -10 21 hhcurveto
            hintmask 1011001000000000
            -66 callsubr
            hintmask 1011010010000000
            -28 callgsubr
            hintmask 1011001000000000
            -7 callgsubr
            hintmask 1011010100000000
            -86 callgsubr
            hintmask 1010110100000000
            -83 callgsubr
            25 -25 6 -25 hvcurveto
            hintmask 1011010100000000
            -82 592 hlineto
            endchar
          </CharString>
          <CharString index="29">
            -26 -21 -6 -12 -21 hvcurveto
            -18 -10 -16 -16 -29 vvcurveto
            endchar
          </CharString>
          <CharString index="30">
            rmoveto
            47 -26 21 -52 -41 -34 -20 -50 -47 35 -22 45 40 33 23 48 vhcurveto
            -77 26 rmoveto
            11 11 -8 -19 -21 -10 -6 -8 -9 -15 4 22 23 13 5 7 hvcurveto
            return
          </CharString>
          <CharString index="31">
            14 184 1 43 18 vvcurveto
            28 -14 13 -24 -38 -5 -20 -30 -20 -11 -118 -2 -12 vhcurveto
            -23 -5 -17 -8 -18 hhcurveto
            -190 636 hlineto
            25 11 14 56 return
          </CharString>
          <CharString index="32">
            rmoveto
            75 -30 70 -57 45 vhcurveto
            10 20 12 28 12 vvcurveto
            12 -8 24 -40 -24 -17 -40 -7 -3 vhcurveto
            -5 -10 rlineto
            8 -24 -27 4 -29 hhcurveto
            -157 -93 -103 -139 -89 36 -72 63 -41 hvcurveto
            -25 -50 rlineto
            -3 -6 -3 -9 -5 vvcurveto
            -23 34 -2 14 17 15 3 29 15 vhcurveto
            16 31 rlineto
            -4 19 21 -3 22 hhcurveto
            118 133 80 162 hvcurveto
            -240 163 rmoveto
            14 14 -2 -4 13 hvcurveto
            -51 -98 -52 -90 -48 -89 rrcurveto
            -27 27 -19 40 53 vvcurveto
            105 74 58 82 vhcurveto
            146 -159 rmoveto
            -115 -90 -52 -65 -8 -9 1 1 -8 vhcurveto
            145 272 rlineto
            22 -28 13 -37 -42 vvcurveto
            endchar
          </CharString>
          <CharString index="33">
            -13 9 22 -25 hhcurveto
            -19 -9 -17 -17 -24 21 -14 40 70 81 47 67 44 -35 25 -40 -6 -5 -1 -1 -5 hvcurveto
            endchar
          </CharString>
          <CharString index="34">
            -17 6 -18 35 27 15 10 23 vhcurveto
            31 -2 43 38 38 2 35 38 vvcurveto
            return
          </CharString>
          <CharString index="35">
            -3 callsubr
            47 141 1 53 hhcurveto
            29 7 28 14 hvcurveto
            return
          </CharString>
          <CharString index="36">
            -23 44 51 -12 55 hhcurveto
            144 190 98 326 132 -33 121 -68 80 hvcurveto
            14 27 111 callgsubr
            -23 -11 -8 -30 -17 vhcurveto
            24 -41 -48 14 -56 hhcurveto
            -241 -100 -230 -204 -155 39 -108 63 -68 hvcurveto
            -6 327 rmoveto
            -19 callsubr
            40 34 -14 -23 29 vhcurveto
            -66 -134 14 24 -104 -192 -140 -257 rcurveline
            -35 58 -21 80 96 vvcurveto
            463 10 rmoveto
            -228 -88 -119 -148 -41 -37 12 24 -32 vhcurveto
            294 554 rlineto
            34 -63 18 -86 -94 vvcurveto
            return
          </CharString>
          <CharString index="37">
            4 -1 21 53 152 3 47 28 vvcurveto
            48 -20 1 -74 return
          </CharString>
          <CharString index="38">
            rmoveto
            -11 14 -10 16 17 12 6 10 6 vhcurveto
            147 281 rlineto
            16 30 2 5 5 vvcurveto
            3 -2 2 -15 vhcurveto
            -21 -134 -4 -19 hhcurveto
            -14 -14 -11 -19 -15 10 -12 15 hvcurveto
            43 -3 2 40 hhcurveto
            4 2 -3 -2 hvcurveto
            -13 -122 -232 -12 vvcurveto
            return
          </CharString>
          <CharString index="39">
            -16 -1 -16 -11 -23 vvcurveto
            -25 13 -4 21 vhcurveto
            228 hlineto
            return
          </CharString>
          <CharString index="40">
            -18 4 -28 40 33 11 27 25 vhcurveto
            134 vlineto
            28 -10 8 -18 vhcurveto
            -145 -12 -2 -121 -50 -102 2 -89 hhcurveto
            -20 -38 -1 -35 -25 29 -3 11 14 20 0 -6 15 hvcurveto
            -80 -150 -154 -345 -94 -155 -14 -24 -14 -11 -29 -3 rrcurveto
            -1 -8 -60 -5 -33 hhcurveto
            -21 -18 -9 -21 -20 15 -7 22 hvcurveto
            42 50 2 42 42 35 -2 42 hhcurveto
            26 19 5 26 20 -10 8 -13 1 hvcurveto
            -16 1 -12 2 5 vvcurveto
            9 44 81 35 56 vhcurveto
            208 hlineto
            return
          </CharString>
          <CharString index="41">
            35 14 26 32 hvcurveto
            94 -2 140 87 149 4 54 141 vvcurveto
            22 18 4 67 6 vhcurveto
            return
          </CharString>
          <CharString index="42">
            134 50 -102 -136 -40 24 -13 22 30 15 24 32 hvcurveto
            34 -2 56 34 54 4 30 55 vvcurveto
            16 -13 23 -34 -28 -10 -12 -19 vhcurveto
            5 -86 rlineto
            return
          </CharString>
          <CharString index="43">
            -74 1 -72 -164 vvcurveto
            -157 -1 -83 -4 -70 vhcurveto
            -1 -19 -16 -12 -20 -1 -37 -2 rcurveline
            return
          </CharString>
          <CharString index="44">
            16 21 10 26 23 -9 8 -42 hvcurveto
            -203 hlineto
            return
          </CharString>
          <CharString index="45">
            -97 -15 -16 -26 -18 11 -13 23 hvcurveto
            53 hlineto
            24 3 -19 -22 hvcurveto
            return
          </CharString>
          <CharString index="46">
            6 7 8 4 30 hhcurveto
            26 31 2 27 22 -13 10 -118 -99 -17 -14 -23 -18 9 -6 11 hvcurveto
            5 hlineto
            return
          </CharString>
          <CharString index="47">
            13 5 -12 -28 hvcurveto
            -19 -5 -170 -8 vvcurveto
            -6 0 -48 -28 vhcurveto
            -11 hlineto
            return
          </CharString>
          <CharString index="48">
            rmoveto
            26 -18 4 -20 -17 -15 -14 -15 vhcurveto
            return
          </CharString>
          <CharString index="49">
            -35 -8 -21 3 -33 vvcurveto
            -34 37 -2 32 vhcurveto
            193 hlineto
            17 13 17 20 37 -19 2 -29 hvcurveto
            -53 hlineto
            return
          </CharString>
          <CharString index="50">
            10 5 -6 -8 -172 0 -43 -1 -32 hvcurveto
            -1 -29 -20 -5 -21 -5 rrcurveto
            -22 -5 -7 -15 -17 vvcurveto
            -20 9 -22 32 vhcurveto
            40 18 3 42 40 43 -3 42 hhcurveto
            26 11 13 22 31 -25 13 -69 hvcurveto
            return
          </CharString>
          <CharString index="51">
            -42 -5 -23 -6 -32 vvcurveto
            -19 9 -15 45 vhcurveto
            439 hlineto
            20 11 7 22 2 hvcurveto
            return
          </CharString>
          <CharString index="52">
            -11 68 -68 119 68 62 27 200 -68 68 return
          </CharString>
          <CharString index="53">
            215 401 rmoveto
            21 -2 14 -16 -23 -54 0 -5 -38 vhcurveto
            -46 -6 -34 5 -42 vvcurveto
            -6 18 -13 10 vhcurveto
            9 57 5 9 hhcurveto
            return
          </CharString>
          <CharString index="54">
            39 callsubr
            hintmask 11110000
            -31 callgsubr
            endchar
          </CharString>
          <CharString index="55">
            -10 -1 -2 -9 -6 hhcurveto
            -150 hlineto
            -12 -5 2 5 hvcurveto
            26 259 272 37 vvcurveto
            9 -9 8 -22 vhcurveto
            -42 -59 -2 -43 return
          </CharString>
          <CharString index="56">
            -11 -17 -12 -39 -25 -34 6 17 vhcurveto
            return
          </CharString>
          <CharString index="57">
            rmoveto
            -56 45 -27 71 75 42 38 49 42 -23 36 -49 8 vhcurveto
            24 2 43 28 54 vvcurveto
            38 -38 44 -70 -73 -37 -41 -45 -43 30 -33 101 callgsubr
            37 29 9 17 36 9 -24 -22 -16 -13 -21 -32 -23 -23 9 28 vhcurveto
            9 154 rmoveto
            30 23 6 16 16 22 -6 -34 -13 -12 -18 -27 -14 -24 7 28 vhcurveto
            endchar
          </CharString>
          <CharString index="58">
            -104 -14 76 -76 197 47 60 113 75 return
          </CharString>
          <CharString index="59">
            -84 -97 20 55 55 98 42 87 hvcurveto
            -55 389 rmoveto
            69 31 -38 -47 -51 -38 -41 -63 hvcurveto
            return
          </CharString>
          <CharString index="60">
            -29 -18 -11 -20 -24 8 -12 39 -4 hvcurveto
            return
          </CharString>
          <CharString index="61">
            -391 rmoveto
            -71 45 -70 84 84 46 57 87 77 -33 64 -92 -75 -59 -59 -85 vhcurveto
            73 2 rmoveto
            48 23 23 37 24 26 -17 -50 -35 -15 -41 -41 -43 -11 37 35 vhcurveto
            return
          </CharString>
          <CharString index="62">
            -12 3 12 -19 29 hhcurveto
            31 9 15 38 hvcurveto
            12 -1 109 7 vvcurveto
            return
          </CharString>
          <CharString index="63">
            -28 19 -34 49 46 24 31 33 29 -21 33 -47 -51 -19 -37 -27 vhcurveto
            return
          </CharString>
          <CharString index="64">
            rmoveto
            -12 -12 -1 -3 -9 vvcurveto
            -13 16 -6 16 12 6 3 7 10 vhcurveto
            42 31 70 91 104 vvcurveto
            69 -39 37 -67 -59 -54 -24 -71 vhcurveto
            hintmask 01111000
            -53 34 -45 60 46 18 38 8 3 vhcurveto
            -4 -42 -40 -56 -57 -54 rrcurveto
            45 249 rmoveto
            29 17 -11 -33 -19 -11 -23 -31 -32 -12 20 23 34 24 9 16 hvcurveto
            endchar
          </CharString>
          <CharString index="65">
            -37 -4 -11 -11 -18 vvcurveto
            -27 17 -3 37 vhcurveto
            224 hlineto
            return
          </CharString>
          <CharString index="66">
            513 rmoveto
            -94 63 -47 62 79 51 65 62 8 vhcurveto
            1 8 1 5 7 vvcurveto
            -8 13 32 -7 22 hhcurveto
            13 16 1 2 11 hvcurveto
            -1 -5 -244 -446 -19 vvcurveto
            -11 12 -12 24 28 16 19 9 4 vhcurveto
            28 64 288 528 16 vvcurveto
            5 -1 15 -34 -33 -19 -61 -25 -36 vhcurveto
            -10 -14 -17 -3 -16 hhcurveto
            return
          </CharString>
          <CharString index="67">
            -20 1 -24 -41 hhcurveto
            -15 -14 7 14 return
          </CharString>
          <CharString index="68">
            84 32 -53 -34 -15 -5 -9 -13 hvcurveto
            return
          </CharString>
          <CharString index="69">
            rmoveto
            8 6 1 6 4 vvcurveto
            14 -24 5 -10 -8 -7 -3 -7 -10 vhcurveto
            -43 -31 -71 -99 -86 vvcurveto
            -84 61 -29 60 55 50 34 55 48 -35 37 -60 -46 -22 -27 0 46 74 90 27 21 vhcurveto
            -49 -254 rmoveto
            -12 -29 10 34 hvcurveto
            hintmask 01111000
            18 8 26 32 27 13 -22 -23 -33 -27 -10 -12 vhcurveto
            endchar
          </CharString>
          <CharString index="70">
            128 -107 107 -92 92 return
          </CharString>
          <CharString index="71">
            58 24 -2 94 hhcurveto
            8 6 8 11 17 1 36 1 14 hvcurveto
            6 96 rlineto
            return
          </CharString>
          <CharString index="72">
            rmoveto
            6 3 -2 -6 hvcurveto
            -14 -251 -276 -36 vvcurveto
            -24 19 -2 50 vhcurveto
            21 79 3 58 hhcurveto
            return
          </CharString>
          <CharString index="73">
            -209 229 13 callsubr
            319 309 104 callsubr
            -48 54 callsubr
            121 1 53 hhcurveto
            29 7 28 14 20 -15 17 -13 hvcurveto
            endchar
          </CharString>
          <CharString index="74">
            rmoveto
            168 -115 140 -197 -188 -125 -132 -182 -184 127 -127 163 146 189 104 213 vhcurveto
            -66 3 rmoveto
            -175 -150 -83 -119 -133 -88 101 148 147 88 103 154 158 90 -109 -132 vhcurveto
            return
          </CharString>
          <CharString index="75">
            -231 -9 rmoveto
            -62 -68 31 123 99 44 77 98 72 30 -42 -28 12 hvcurveto
            12 -28 2 -29 -23 vvcurveto
            -118 -53 -62 -87 vhcurveto
            endchar
          </CharString>
          <CharString index="76">
            28 21 21 33 43 -37 15 -28 -55 -48 -54 -81 -95 65 -64 125 154 90 98 195 hvcurveto
            444 vlineto
            19 16 10 45 vhcurveto
            return
          </CharString>
          <CharString index="77">
            10 -7 12 -29 -29 -114 -131 -29 -26 114 -133 29 29 7 12 10 16 -52 68 -33 53 vhcurveto
            33 53 52 69 16 vvcurveto
            return
          </CharString>
          <CharString index="78">
            23 -6 25 -32 -32 -10 -24 -22 -8 1 -14 1 -15 vhcurveto
            return
          </CharString>
          <CharString index="79">
            80 -56 -19 callgsubr
            return
          </CharString>
          <CharString index="80">
            -31 36 -2 -17 vvcurveto
            return
          </CharString>
          <CharString index="81">
            -105 -4 -84 -98 vvcurveto
            -39 -18 -7 -21 -31 -12 -19 -20 -24 29 -5 26 vhcurveto
            229 hlineto
            13 15 5 30 15 -13 13 -25 hvcurveto
            return
          </CharString>
          <CharString index="82">
            518 231 rmoveto
            -103 callsubr
            return
          </CharString>
          <CharString index="83">
            -37 -1 -29 -52 vvcurveto
            -28 -19 -8 -62 -26 -13 -5 -23 -24 26 -8 20 vhcurveto
            81 81 2 81 98 92 -2 98 hhcurveto
            29 10 10 23 3 hvcurveto
            10 81 6 140 23 vvcurveto
            16 -5 33 -36 vhcurveto
            -589 -30 rmoveto
            -24 -25 1 1 -23 hvcurveto
            return
          </CharString>
          <CharString index="84">
            -31 -64 -52 39 -68 87 92 90 54 142 20 vhcurveto
            3 23 3 59 23 vvcurveto
            return
          </CharString>
          <CharString index="85">
            rmoveto
            -37 2 -58 26 -40 vhcurveto
            -27 18 29 -14 43 hhcurveto
            91 46 57 68 23 -9 13 -24 -22 -12 -7 -22 -5 hvcurveto
            return
          </CharString>
          <CharString index="86">
            -96 314 hlineto
            1 68 68 1 68 hhcurveto
            51 98 -2 0 hvcurveto
            -315 vlineto
            -39 -15 -7 -15 -28 -22 -13 -25 return
          </CharString>
          <CharString index="87">
            -31 -3 -15 -13 -28 vvcurveto
            -23 24 -3 18 vhcurveto
            260 hlineto
            return
          </CharString>
          <CharString index="88">
            190 86 172 163 return
          </CharString>
          <CharString index="89">
            -41 -56 28 -40 hhcurveto
            return
          </CharString>
          <CharString index="90">
            20 15 15 16 28 -76 72 -38 -26 -15 -19 -17 vhcurveto
            return
          </CharString>
          <CharString index="91">
            -21 5 -10 39 vhcurveto
            211 hlineto
            59 8 16 17 27 -26 3 -25 hvcurveto
            -70 262 10 hlineto
            endchar
          </CharString>
          <CharString index="92">
            31 -32 8 18 20 25 56 14 vvcurveto
            9 -15 9 -7 -44 -26 -121 -31 -33 22 -22 30 vhcurveto
            return
          </CharString>
          <CharString index="93">
            77 78 -1 77 hhcurveto
            29 7 6 25 hvcurveto
            32 10 206 4 vvcurveto
            return
          </CharString>
          <CharString index="94">
            -102 4 -132 -102 -105 -4 -78 -98 vvcurveto
            -43 -31 -4 -35 -3 vhcurveto
            return
          </CharString>
          <CharString index="95">
            35 -9 3 -35 -110 -40 -11 -28 -27 33 -6 22 vhcurveto
            30 hlineto
            return
          </CharString>
          <CharString index="96">
            23 15 5 26 26 -26 6 -25 hvcurveto
            return
          </CharString>
          <CharString index="97">
            12 4 -2 -9 -18 -72 -197 -1 -11 hvcurveto
            endchar
          </CharString>
          <CharString index="98">
            -72 -3 -19 -9 -17 23 -5 56 68 61 26 52 38 -33 25 -44 -28 -20 -10 -19 -32 hvcurveto
            return
          </CharString>
          <CharString index="99">
            -96 -250 75 172 78 61 73 177 74 return
          </CharString>
          <CharString index="100">
            42 -110 79 -23 -18 -114 -75 -53 return
          </CharString>
          <CharString index="101">
            -237 0 65 687 69 return
          </CharString>
          <CharString index="102">
            -3 1 -8 3 10 vvcurveto
            return
          </CharString>
          <CharString index="103">
            60 callgsubr
            203 -91 91 -91 173 return
          </CharString>
          <CharString index="104">
            -18 14 -22 19 vhcurveto
            return
          </CharString>
          <CharString index="105">
            75 callgsubr
            -27 -56 -4 -5 hhcurveto
            -14 -19 -10 -17 -24 16 -2 17 hvcurveto
            4 11 1 4 hhcurveto
            9 0 -12 -2 hvcurveto
            return
          </CharString>
          <CharString index="106">
            -28 -22 -8 -24 -23 13 -11 27 -3 hvcurveto
            23 -3 13 -7 -16 vvcurveto
            -249 vlineto
            -1 3 -98 -1 -51 hhcurveto
            -68 -68 0 1 -68 hvcurveto
            255 vlineto
            31 15 9 49 return
          </CharString>
          <CharString index="107">
            -48 116 hlineto
            119 80 56 48 25 20 -13 -22 vhcurveto
            return
          </CharString>
          <CharString index="108">
            -35 -52 6 -42 vvcurveto
            -31 28 -11 26 59 19 56 45 vhcurveto
            return
          </CharString>
          <CharString index="109">
            rmoveto
            -38 27 -28 33 30 36 15 55 return
          </CharString>
          <CharString index="110">
            19 6 -6 -20 hvcurveto
            -64 vlineto
            -55 -2 -206 -6 -57 vhcurveto
            -64 -7 -32 -69 -70 hhcurveto
            -45 -7 26 7 8 20 callgsubr
            return
          </CharString>
          <CharString index="111">
            3 -44 1 -29 -45 vvcurveto
            -20 -2 -68 -2 -30 vhcurveto
            -1 -14 -18 -5 -21 -2 rrcurveto
            return
          </CharString>
          <CharString index="112">
            rmoveto
            25 -5 10 -13 -23 -54 -2 -3 -38 vhcurveto
            -68 -6 -12 -9 -28 vvcurveto
            -12 15 -7 13 vhcurveto
            9 57 5 9 hhcurveto
            9 4 -8 -25 2 hvcurveto
            return
          </CharString>
          <CharString index="113">
            -16 52 -69 33 -53 vhcurveto
            -33 -53 -52 -68 -16 vvcurveto
            -6 7 -16 29 29 114 133 26 29 -114 131 -29 -29 -7 -16 -6 vhcurveto
            return
          </CharString>
          <CharString index="114">
            21 15 1 53 31 36 1 13 hhcurveto
            32 16 6 28 32 -14 9 -36 hvcurveto
            return
          </CharString>
          <CharString index="115">
            12 -8 19 -30 -37 -3 -27 -34 -4 vhcurveto
            -7 -55 rlineto
            return
          </CharString>
          <CharString index="116">
            rmoveto
            6 253 0 6 0 vvcurveto
            10 -4 2 -4 vhcurveto
            return
          </CharString>
          <CharString index="117">
            42 116 112 173 29 77 rrcurveto
            -4 vlineto
            -91 6 6 -150 vvcurveto
            -57 0 -39 -1 -32 vhcurveto
            -1 -38 -40 0 -38 hhcurveto
            endchar
          </CharString>
          <CharString index="118">
            14 callgsubr
            166 147 -91 91 -91 return
          </CharString>
          <CharString index="119">
            17 95 callgsubr
            -72 -28 -16 14 53 callgsubr
            return
          </CharString>
          <CharString index="120">
            77 -55 -21 78 83 callsubr
            hintmask 01010000
            return
          </CharString>
          <CharString index="121">
            21 29 46 hvcurveto
            -29 46 60 -21 14 hhcurveto
            return
          </CharString>
          <CharString index="122">
            106 67 60 49 27 hvcurveto
            4 7 5 9 10 vvcurveto
            return
          </CharString>
          <CharString index="123">
            -2 13 58 -1 37 hhcurveto
            23 23 12 28 34 -32 2 -48 2 hvcurveto
            return
          </CharString>
          <CharString index="124">
            -30 63 -100 205 23 vvcurveto
            endchar
          </CharString>
          <CharString index="125">
            14 -31 78 -33 75 291 75 return
          </CharString>
          <CharString index="126">
            972 rmoveto
            -14 -60 -21 -29 -46 hvcurveto
            29 -46 -59 21 -14 hhcurveto
            return
          </CharString>
          <CharString index="127">
            520 -33 -21 58 -21 707 69 return
          </CharString>
          <CharString index="128">
            17 10 17 15 30 -27 5 -15 hvcurveto
            return
          </CharString>
          <CharString index="129">
            192 -90 90 -90 210 return
          </CharString>
          <CharString index="130">
            3 rrcurveto
            10 1 26 10 28 vvcurveto
            31 -29 6 -20 vhcurveto
            -12 -127 -3 -23 hhcurveto
            162 1 41 19 vvcurveto
            42 return
          </CharString>
          <CharString index="131">
            465 0 57 -57 84 130 82 -26 191 -82 82 -82 191 -106 -20 155 222 -84 84 return
          </CharString>
          <CharString index="132">
            31 20 1 10 18 39 2 17 hhcurveto
            21 21 10 27 hvcurveto
            return
          </CharString>
          <CharString index="133">
            51 hhcurveto
            73 94 17 110 96 -77 18 -120 29 hvcurveto
            -59 14 -34 21 46 vvcurveto
            38 27 22 61 return
          </CharString>
          <CharString index="134">
            -52 114 -76 18 23 110 79 42 return
          </CharString>
          <CharString index="135">
            -14 hhcurveto
            -8 -5 -7 -7 return
          </CharString>
          <CharString index="136">
            111 -59 59 -36 -21 374 61 318 68 hstemhm
            -33 190 -159 159 -89 192 return
          </CharString>
          <CharString index="137">
            111 56 callgsubr
            8 14 rlineto
            return
          </CharString>
          <CharString index="138">
            -1 -138 -2 -84 -41 vvcurveto
            -47 -8 -13 -21 -3 vhcurveto
            return
          </CharString>
          <CharString index="139">
            rmoveto
            20 7 21 7 5 vhcurveto
            -8 9 13 -5 13 hhcurveto
            return
          </CharString>
          <CharString index="140">
            rmoveto
            13 4 2 7 2 vhcurveto
            return
          </CharString>
          <CharString index="141">
            -18 0 -51 -17 vhcurveto
            return
          </CharString>
          <CharString index="142">
            -72 88 callsubr
            return
          </CharString>
          <CharString index="143">
            vvcurveto
            -50 58 -25 52 return
          </CharString>
          <CharString index="144">
            -119 504 rmoveto
            -40 27 -31 34 28 40 20 55 41 -28 25 -33 -48 -20 -46 -24 vhcurveto
            return
          </CharString>
          <CharString index="145">
            -48 callgsubr
            endchar
          </CharString>
          <CharString index="146">
            rmoveto
            45 callgsubr
            return
          </CharString>
          <CharString index="147">
            -32 -45 -5 -55 hhcurveto
            -141 hlineto
            -11 -22 -8 -33 return
          </CharString>
          <CharString index="148">
            -158 0 79 143 217 -69 69 -69 81 return
          </CharString>
          <CharString index="149">
            -12 54 -40 -21 144 73 71 58 return
          </CharString>
          <CharString index="150">
            hstemhm
            10 192 -91 91 return
          </CharString>
          <CharString index="151">
            126 81 126 return
          </CharString>
          <CharString index="152">
            32 -36 -33 14 -49 hhcurveto
            -132 -101 -114 -142 -130 84 -102 138 hvcurveto
            return
          </CharString>
          <CharString index="153">
            17 47 1 21 64 56 -39 -79 vhcurveto
            -9 -1 -12 -37 vvcurveto
            37 -41 -47 17 -51 hhcurveto
            return
          </CharString>
          <CharString index="154">
            -73 6 -62 -161 -115 -2 -145 -30 vvcurveto
            -31 -25 -14 -33 -4 vhcurveto
            endchar
          </CharString>
          <CharString index="155">
            hvcurveto
            4 -1 25 65 152 3 47 28 vvcurveto
            48 -19 1 -75 vhcurveto
            hintmask 1100101010000000
            return
          </CharString>
          <CharString index="156">
            116 callgsubr
            -11 rmoveto
            -38 27 -28 32 30 37 15 55 37 -28 24 -32 return
          </CharString>
          <CharString index="157">
            13 15 5 24 30 -23 4 -15 hvcurveto
            -96 hlineto
            return
          </CharString>
          <CharString index="158">
            206 -93 93 -93 219 return
          </CharString>
          <CharString index="159">
            0 75 -55 -21 756 66 return
          </CharString>
          <CharString index="160">
            -14 -85 -4 -16 hhcurveto
            101 vlineto
            return
          </CharString>
          <CharString index="161">
            -50 callgsubr
            hintmask 10000000
            -3 callsubr
            hintmask 01010000
            47 return
          </CharString>
          <CharString index="162">
            -17 13 -22 28 32 10 19 18 vhcurveto
            37 -2 38 38 38 2 37 38 vvcurveto
            return
          </CharString>
          <CharString index="163">
            rmoveto
            -41 -6 -43 -28 -87 24 -51 24 24 24 73 66 34 -7 36 -42 hvcurveto
            return
          </CharString>
          <CharString index="164">
            -1 -3 hvcurveto
            -64 2 -54 -64 vvcurveto
            -42 -2 -151 69 callgsubr
            -5 return
          </CharString>
          <CharString index="165">
            43 callgsubr
            154 -6 callgsubr
            return
          </CharString>
          <CharString index="166">
            3 36 30 26 118 callgsubr
            return
          </CharString>
          <CharString index="167">
            17 -32 94 -78 78 697 78 return
          </CharString>
          <CharString index="168">
            48 0 83 -61 -21 736 84 return
          </CharString>
          <CharString index="169">
            rmoveto
            -147 -155 -30 -111 return
          </CharString>
          <CharString index="170">
            57 0 63 651 61 return
          </CharString>
          <CharString index="171">
            -28 19 -34 49 46 24 32 32 30 -21 32 -47 -51 -19 -37 -27 vhcurveto
            return
          </CharString>
          <CharString index="172">
            73 -37 62 676 59 -41 65 hstemhm
            50 179 -92 92 -92 202 return
          </CharString>
          <CharString index="173">
            66 170 1 74 hhcurveto
            35 9 28 14 20 -17 17 -15 hvcurveto
            endchar
          </CharString>
          <CharString index="174">
            81 callsubr
            -74 134 return
          </CharString>
          <CharString index="175">
            57 26 33 20 hvcurveto
            return
          </CharString>
          <CharString index="176">
            174 -36 36 165 -20 hstemhm
            21 63 91 72 hintmask 10111000
            185 return
          </CharString>
          <CharString index="177">
            -22 -25 -4 -28 -27 13 -8 34 -2 hvcurveto
            49 -3 13 -9 -23 vvcurveto
            return
          </CharString>
          <CharString index="178">
            -102 vvcurveto
            -51 -2 -146 69 callgsubr
            -7 -5 -15 -1 rrcurveto
            return
          </CharString>
          <CharString index="179">
            -196 -21 197 62 -62 78 -59 -21 390 64 -24 64 hstemhm
            return
          </CharString>
          <CharString index="180">
            -27 callgsubr
            endchar
          </CharString>
          <CharString index="181">
            224 -88 88 92 233 -91 91 -91 173 hintmask 1010011010000000
            return
          </CharString>
          <CharString index="182">
            -109 314 hlineto
            7 2 4 16 vhcurveto
            12 42 -2 12 hhcurveto
            return
          </CharString>
          <CharString index="183">
            972 rmoveto
            -14 -67 -20 -30 -39 hvcurveto
            30 -39 -66 20 -14 hhcurveto
            return
          </CharString>
          <CharString index="184">
            -23 -10 -21 -18 -18 14 -22 19 hvcurveto
            return
          </CharString>
          <CharString index="185">
            hstemhm
            558 247 -206 206 return
          </CharString>
          <CharString index="186">
            -44 66 -22 63 676 82 return
          </CharString>
          <CharString index="187">
            hstemhm
            -32 241 -28 199 return
          </CharString>
          <CharString index="188">
            hstemhm
            19 190 -134 74 return
          </CharString>
          <CharString index="189">
            hstemhm
            31 93 254 96 return
          </CharString>
          <CharString index="190">
            -20 21 -20 hstemhm
            return
          </CharString>
          <CharString index="191">
            218 -55 63 -8 68 311 82 284 62 -50 64 return
          </CharString>
          <CharString index="192">
            -19 71 143 71 106 71 61 67 20 71 8 -20 hstemhm
            return
          </CharString>
          <CharString index="193">
            -160 160 -94 94 -94 214 99 89 -89 207 return
          </CharString>
          <CharString index="194">
            27 -10 191 175 70 2 185 49 vvcurveto
            endchar
          </CharString>
          <CharString index="195">
            -28 -16 15 -15 return
          </CharString>
          <CharString index="196">
            -9 50 -50 72 -61 -21 151 42 51 107 -42 42 return
          </CharString>
          <CharString index="197">
            24 -21 -44 32 -55 hhcurveto
            -80 -81 -33 -109 -122 return
          </CharString>
          <CharString index="198">
            -96 3 -86 -73 vvcurveto
            -115 -2 -94 -2 -83 vhcurveto
            -17 return
          </CharString>
          <CharString index="199">
            -17 -22 -8 -25 -24 14 -12 25 return
          </CharString>
          <CharString index="200">
            -57 -30 78 -57 76 330 80 return
          </CharString>
          <CharString index="201">
            62 hstemhm
            12 217 -92 197 return
          </CharString>
          <CharString index="202">
            26 -1 42 -8 -28 return
          </CharString>
          <CharString index="203">
            -20 162 -20 hstemhm
            return
          </CharString>
          <CharString index="204">
            90 -90 165 return
          </CharString>
          <CharString index="205">
            16 88 -43 87 return
          </CharString>
          <CharString index="206">
            38 10 -47 -21 return
          </CharString>
          <CharString index="207">
            44 callgsubr
            176 97 callsubr
            return
          </CharString>
          <CharString index="208">
            907 2 callsubr
            36 return
          </CharString>
          <CharString index="209">
            hhcurveto
            41 7 25 17 hvcurveto
            39 -30 164 84 vvcurveto
            return
          </CharString>
          <CharString index="210">
            -60 26 -39 vhcurveto
            -27 18 27 -14 39 hhcurveto
            endchar
          </CharString>
          <CharString index="211">
            rmoveto
            hintmask 10000000
            -3 callgsubr
            hintmask 01100000
            -34 return
          </CharString>
          <CharString index="212">
            -7 -1 -14 -4 -26 vvcurveto
            -24 29 -6 22 vhcurveto
            return
          </CharString>
          <CharString index="213">
            120 callsubr
            vhcurveto
            return
          </CharString>
          <CharString index="214">
            428 rmoveto
            35 -8 24 -31 vhcurveto
            -225 hlineto
            return
          </CharString>
          <CharString index="215">
            hstemhm
            13 88 62 208 -92 213 60 88 return
          </CharString>
          <CharString index="216">
            33 callgsubr
            79 -9 -20 return
          </CharString>
          <CharString index="217">
            229 731 rmoveto
            25 46 2 25 1 vhcurveto
            return
          </CharString>
          <CharString index="218">
            -52 114 -76 18 24 109 79 42 vhcurveto
            return
          </CharString>
          <CharString index="219">
            hstemhm
            27 94 268 93 -93 return
          </CharString>
          <CharString index="220">
            -21 154 -20 hstem
            277 return
          </CharString>
          <CharString index="221">
            hstemhm
            21 160 -135 85 return
          </CharString>
          <CharString index="222">
            hstemhm
            42 85 -72 91 return
          </CharString>
          <CharString index="223">
            75 -57 -21 22 -21 return
          </CharString>
          <CharString index="224">
            -19 -43 -22 vhcurveto
            return
          </CharString>
          <CharString index="225">
            hstemhm
            24 102 -77 return
          </CharString>
          <CharString index="226">
            47 121 1 53 hhcurveto
            29 7 28 14 return
          </CharString>
          <CharString index="227">
            42 -109 79 -24 -18 -114 -75 -53 return
          </CharString>
          <CharString index="228">
            -73 -14 67 115 112 472 69 return
          </CharString>
          <CharString index="229">
            149 -85 33 callsubr
            return
          </CharString>
          <CharString index="230">
            -40 callsubr
            26 return
          </CharString>
          <CharString index="231">
            -7 -1 1 10 77 0 172 141 return
          </CharString>
          <CharString index="232">
            9 -3 12 -10 return
          </CharString>
        <CharString name=".notdef">
          59 2 70 669 77 hstem
          91 82 375 80 vstem
          610 815 rmoveto
          3 -54 -180 0 -72 hhcurveto
          -34 -114 0 -3 -43 hvcurveto
          -15 -1 -7 -11 -23 -245 2 -235 -263 vvcurveto
          -28 7 -7 12 vhcurveto
          497 hlineto
          12 7 7 28 263 0 235 3 245 hvcurveto
          16 -4 18 -17 1 vhcurveto
          -418 -743 rmoveto
          -14 -5 4 14 hvcurveto
          618 vlineto
          27 5 6 23 vhcurveto
          318 hlineto
          23 6 -11 -16 hvcurveto
          -621 vlineto
          -14 -6 -7 -13 vhcurveto
          -40 132 rmoveto
          8 -20 27 -53 61 vhcurveto
          28 38 12 18 31 38 rrcurveto
          5 6 1 4 5 vvcurveto
          10 -30 31 -7 -10 -14 -10 -43 -31 vhcurveto
          -30 -42 -42 56 -22 28 -5 6 rlinecurve
          26 -22 -13 25 -16 hhcurveto
          -8 -29 -36 -8 -11 29 -32 85 -113 hvcurveto
          -24 -32 15 23 -68 -84 rrcurveto
          -11 -14 -15 -12 -12 vvcurveto
          -9 26 -30 9 12 30 38 76 72 vhcurveto
          -60 55 9 -27 10 hhcurveto
          13 28 36 15 hvcurveto
          endchar
        </CharString>
        <CharString name="A">
          -24 callgsubr
          hstemhm
          -28 230 hintmask 01111000
          410 793 rmoveto
          -107 callsubr
          hintmask 10111000
          -104 callgsubr
          endchar
        </CharString>
        <CharString name="AE">
          24 callsubr
          hstemhm
          394 228 -94 94 188 85 98 callsubr
          hintmask 0110010101010100
          1002 326 rmoveto
          -34 -11 -26 -27 -1 hvcurveto
          -2 -48 -10 -90 -1 -14 rrcurveto
          -23 callgsubr
          0 callgsubr
          hintmask 1001000101010100
          55 callsubr
          hintmask 1010010101010100
          14 -11 23 -30 -22 -22 -5 -35 vhcurveto
          hintmask 1010001101010100
          -41 -4 -25 -13 vhcurveto
          hintmask 1001000101010100
          -12 -58 -3 -38 hhcurveto
          hintmask 1010001011011000
          50 callgsubr
          24 13 -5 -23 hvcurveto
          -64 vlineto
          hintmask 1010100101011000
          -67 callsubr
          hintmask 1010100100110100
          -24 callsubr
          10 callsubr
        </CharString>
        <CharString name="AEacute">
          24 callsubr
          20 131 hstemhm
          394 228 -98 147 -143 94 188 85 98 callsubr
          hintmask 0110100101010101
          671 98 callgsubr
          -15 19 -26 -38 -76 -73 -28 -15 15 53 callgsubr
          331 -610 rmoveto
          -34 -11 -26 -27 -1 hvcurveto
          -2 -48 -10 -90 -1 -14 rrcurveto
          -23 callgsubr
          hintmask 0110010101100101
          0 callgsubr
          hintmask 1001000101100101
          55 callsubr
          hintmask 1010010101100101
          14 -11 23 -30 -22 -22 -5 -35 vhcurveto
          hintmask 1010001101100101
          -41 -4 -25 -13 vhcurveto
          hintmask 1001000101100101
          -12 -58 -3 -38 hhcurveto
          hintmask 1010001011100110
          50 callgsubr
          24 13 -5 -23 hvcurveto
          -64 vlineto
          hintmask 1010100101100110
          -67 callsubr
          hintmask 1010100101001101
          -24 callsubr
          hintmask 1010100101010101
          10 callsubr
        </CharString>
        <CharString name="Aacute">
          -24 callgsubr
          23 131 hstemhm
          -28 230 92 155 hintmask 01111110
          449 98 callgsubr
          -15 19 -26 -38 102 callgsubr
          -39 -143 rmoveto
          -107 callsubr
          hintmask 10111110
          -104 callgsubr
          endchar
        </CharString>
        <CharString name="Abreve">
          -24 callgsubr
          44 54 callgsubr
          -28 230 40 65 hintmask 01111011
          410 793 rmoveto
          -107 callsubr
          hintmask 10110111
          -104 callgsubr
          133 250 -59 callsubr
          hintmask 10111011
          -51 callsubr
          hintmask 10110111
          -89 callgsubr
        </CharString>
        <CharString name="Acircumflex">
          99 -55 58 -3 61 153 82 536 -20 26 -20 154 -20 hstemhm
          -28 230 hintmask 10110110
          488 832 rmoveto
          10 3 11 9 43 -110 77 -23 -18 -114 -74 -52 -7 4 -7 9 14 52 19 29 53 hvcurveto
          -29 53 53 -19 14 hhcurveto
          -78 -39 rmoveto
          hintmask 01101110
          -107 callsubr
          hintmask 10110110
          -104 callgsubr
          endchar
        </CharString>
        <CharString name="Adieresis">
          99 -55 58 -3 61 153 82 534 -20 28 -20 23 131 hstemhm
          -28 230 -5 44 callsubr
          hintmask 1011010110000000
          197 907 rmoveto
          -38 26 -28 -96 callsubr
          116 callgsubr
          -11 rmoveto
          -38 26 -28 33 30 37 15 55 37 -28 24 -32 -48 -18 -43 -22 vhcurveto
          6 -103 rmoveto
          hintmask 0110111010000000
          -107 callsubr
          hintmask 1011011010000000
          -104 callgsubr
          endchar
        </CharString>
        <CharString name="Agrave">
          -24 callgsubr
          23 131 hstemhm
          -28 230 91 155 hintmask 01111110
          293 936 rmoveto
          -39 85 -56 35 -17 callsubr
          117 -143 rmoveto
          -107 callsubr
          hintmask 10111110
          -104 callgsubr
          endchar
        </CharString>
        <CharString name="Amacron">
          -24 callgsubr
          62 63 callgsubr
          -28 230 hintmask 01111001
          410 793 rmoveto
          -107 callsubr
          hintmask 10110011
          -104 callgsubr
          145 269 rmoveto
          hintmask 10111001
          -3 callgsubr
          hintmask 10110101
          -34 -68 -50 callgsubr
          hintmask 10111001
          -72 callsubr
          hintmask 10110011
          26 callgsubr
        </CharString>
        <CharString name="Aogonek">
          99 -212 53 -53 77 80 58 -3 61 153 82 542 -20 hstemhm
          -28 230 315 74 -74 188 hintmask 1010111010000000
          622 -212 rmoveto
          68 callsubr
          hintmask 0110111100000000
          35 callgsubr
          hintmask 1010111100000000
          -40 callsubr
          27 16 41 29 15 hvcurveto
          106 hlineto
          23 12 6 24 23 -25 5 -19 -97 -17 8 24 -6 hvcurveto
          -203 758 rlineto
          30 -8 -15 15 -28 hhcurveto
          -34 -11 -16 -30 -9 hvcurveto
          -39 -129 -102 -396 -57 -166 -9 -27 -16 -8 -24 -3 rrcurveto
          -1 -6 -46 -5 -5 hhcurveto
          -13 -16 -10 -17 hvcurveto
          hintmask 1001111100000000
          99 callgsubr
          vhcurveto
          278 hlineto
          26 8 14 15 24 -12 8 -21 -46 -26 5 11 22 17 70 19 45 hvcurveto
          232 hlineto
          9 -28 38 -132 -19 -57 -53 31 -42 vvcurveto
          hintmask 1010111100000000
          -11 7 -11 24 vhcurveto
          84 hlineto
          -24 -12 -43 -27 -43 36 callsubr
          vhcurveto
          -260 903 rmoveto
          24 -128 35 -148 32 -117 rrcurveto
          -1 -24 -47 -1 -24 hhcurveto
          -41 -14 1 1 -41 hvcurveto
          29 108 52 213 19 72 rrcurveto
          endchar
        </CharString>
        <CharString name="Aring">
          -24 callgsubr
          22 132 hstemhm
          -28 230 95 55 42 55 hintmask 01111111
          449 907 rmoveto
          45 -26 20 -52 -41 -33 -29 -38 -39 34 -26 45 40 33 22 45 vhcurveto
          -76 23 rmoveto
          6 15 -3 -21 -20 -12 -4 -6 -9 -15 4 19 22 16 3 5 hvcurveto
          37 -137 rmoveto
          -107 callsubr
          hintmask 10111111
          -104 callgsubr
          endchar
        </CharString>
        <CharString name="Aringacute">
          105 -58 61 -3 61 153 83 675 -20 hstemhm
          282 53 -11 155 -97 52 hintmask 10111010
          434 794 rmoveto
          30 -12 20 -25 9 vhcurveto
          hintmask 10110100
          38 18 44 37 28 vvcurveto
          17 -15 19 -26 -38 -76 -72 -28 -6 2 -6 4 -5 vhcurveto
          hintmask 01111010
          -28 -10 -20 -24 -29 vvcurveto
          -29 18 -21 27 -10 vhcurveto
          -7 -4 -3 -6 -1 -5 -33 -96 -119 -383 -54 -137 -10 -27 -14 -8 -25 -3 rrcurveto
          -1 -5 -47 -5 -5 hhcurveto
          -13 -15 -10 -17 99 callgsubr
          hvcurveto
          49 48 4 49 44 44 -4 43 hhcurveto
          26 8 14 15 24 -12 8 -13 -64 -15 11 5 5 30 88 18 44 hvcurveto
          210 hlineto
          12 -28 45 -140 -19 -62 -53 29 -32 vvcurveto
          hintmask 10111010
          -11 7 -9 24 vhcurveto
          45 40 5 50 31 49 -2 32 hhcurveto
          23 12 6 24 23 -26 5 -19 -70 -41 4 28 -9 hvcurveto
          -208 682 -2 6 -4 5 -7 4 rlinecurve
          23 10 16 21 31 vvcurveto
          -65 -202 rmoveto
          18 -80 33 -145 27 -69 rrcurveto
          -1 -19 -34 0 -19 hhcurveto
          -36 -25 0 1 -36 hvcurveto
          17 60 59 194 15 40 rrcurveto
          -11 226 rmoveto
          9 15 -4 -21 -21 -15 -5 -6 -7 -19 4 21 23 17 3 6 hvcurveto
          endchar
        </CharString>
        <CharString name="Atilde">
          -24 callgsubr
          44 -28 callsubr
          -28 230 hintmask 0111100110000000
          410 793 rmoveto
          -107 callsubr
          hintmask 1011010110000000
          -104 callgsubr
          -182 206 -74 callgsubr
          hintmask 1011100110000000
          -101 callsubr
          hintmask 1011001010000000
          -18 callsubr
          hintmask 1011100110000000
          -78 callsubr
        </CharString>
        <CharString name="B">
          94 0 80 291 82 288 80 hstemhm
          46 183 -91 91 312 93 -53 53 -53 95 hintmask 11110001
          81 76 rmoveto
          -25 -10 -18 -23 -23 14 -12 34 hvcurveto
          214 hlineto
          193 175 58 162 105 -74 75 -114 21 hvcurveto
          hintmask 11101010
          90 24 56 74 93 vvcurveto
          138 -125 71 -142 vhcurveto
          -26 -159 -3 -103 hhcurveto
          -21 -18 -17 -21 -25 10 -17 30 38 10 -6 -31 2 hvcurveto
          4 -67 4 -189 -132 -51 -1 -77 -85 vvcurveto
          -20 -34 -4 -22 vhcurveto
          227 295 rmoveto
          132 141 -16 -133 -109 -121 -33 -231 hvcurveto
          288 vlineto
          1 27 13 2 39 hhcurveto
          2 370 rmoveto
          hintmask 11110100
          111 120 -26 -110 -119 -109 -32 -133 -1 hvcurveto
          -44 -16 1 2 -10 hvcurveto
          281 vlineto
          1 11 24 3 46 hhcurveto
          endchar
        </CharString>
        <CharString name="C">
          109 callsubr
          hstemhm
          34 96 392 91 -77 77 hintmask 11101100
          628 222 -95 callsubr
          hintmask 11011010
          -29 callgsubr
          hintmask 11101100
          10 callgsubr
        </CharString>
        <CharString name="CR">
          -273 endchar
        </CharString>
        <CharString name="Cacute">
          109 callsubr
          31 132 hstemhm
          34 96 151 155 86 91 -77 77 hintmask 1110111100000000
          436 935 rmoveto
          18 -15 19 -26 -38 -76 -73 88 callsubr
          21 34 85 57 38 vhcurveto
          192 -713 -95 callsubr
          hintmask 1101111010000000
          -29 callgsubr
          hintmask 1110111100000000
          10 callgsubr
        </CharString>
        <CharString name="Ccaron">
          33 callgsubr
          78 -78 213 -143 -20 hstemhm
          34 96 392 91 -77 77 hintmask 11100110
          628 222 -95 callsubr
          hintmask 11001101
          -29 callgsubr
          hintmask 11100110
          -19 52 -56 68 -96 10 rrcurveto
          40 20 73 59 35 vvcurveto
          hintmask 11010110
          125 callsubr
          -14 -60 -21 -29 -46 vhcurveto
          29 -39 -66 21 28 callsubr
          hvcurveto
          hintmask 11100110
          -43 75 -58 38 -20 vhcurveto
          -161 -11 -131 -187 -234 vvcurveto
          -299 150 -120 145 216 83 152 84 vhcurveto
          endchar
        </CharString>
        <CharString name="Ccedilla">
          50 -190 50 10 81 -53 53 -53 168 399 -20 314 79 -9 -20 hstemhm
          34 96 181 208 -88 88 3 91 -77 77 hintmask 1001110110100000
          628 222 -95 callsubr
          hintmask 1100101110010000
          -29 callgsubr
          hintmask 1100110110100000
          56 -20 -64 75 -110 hhcurveto
          -168 -140 -191 -242 -275 126 -123 133 -18 hvcurveto
          -2 -17 -3 -29 87 callgsubr
          hintmask 1010110101100000
          25 callgsubr
          hintmask 1100110110100000
          -9 callsubr
          12 67 rlineto
          182 19 72 136 78 vvcurveto
          endchar
        </CharString>
        <CharString name="Ccircumflex">
          33 callgsubr
          79 -79 213 -143 83 callsubr
          34 96 392 91 -77 77 hintmask 1100011100000000
          457 -18 callgsubr
          hvcurveto
          hintmask 1101001100000000
          -7 callsubr
          vhcurveto
          hintmask 1100011100000000
          -7 4 -7 9 14 52 21 29 53 vhcurveto
          -29 53 53 -21 14 hhcurveto
          171 -608 rmoveto
          19 -13 12 -23 -25 -9 -9 -37 -12 vhcurveto
          -105 -34 -61 -36 -114 hhcurveto
          -139 -68 153 185 hvcurveto
          hintmask 1110001100000000
          184 88 171 125 127 50 -119 -116 2 vhcurveto
          -50 1 15 -9 32 hhcurveto
          33 10 16 32 hvcurveto
          42 -2 37 42 48 4 58 47 vvcurveto
          hintmask 1100101010000000
          -29 callgsubr
          hintmask 1110001100000000
          10 callgsubr
        </CharString>
        <CharString name="Cdotaccent">
          109 callsubr
          31 131 hstemhm
          34 96 154 126 112 91 -77 77 hintmask 1110111100000000
          628 222 -95 callsubr
          hintmask 1101111010000000
          -29 callgsubr
          hintmask 1110111100000000
          -51 callgsubr
          -344 684 rmoveto
          -43 26 -23 -96 callsubr
          -38 -27 vhcurveto
          endchar
        </CharString>
        <CharString name="D">
          104 0 82 656 83 hstemhm
          41 190 -92 92 355 96 hintmask 11101000
          41 776 rmoveto
          -26 14 -12 23 29 25 -7 -35 vhcurveto
          hintmask 11011000
          57 callgsubr
          hintmask 11101000
          -87 callsubr
          642 vlineto
          1 20 22 3 20 hhcurveto
          endchar
        </CharString>
        <CharString name="Dcaron">
          104 0 82 656 83 -83 234 119 callgsubr
          41 190 -92 92 355 96 hintmask 10101010
          443 76 callsubr
          -9 -4 -7 -7 hvcurveto
          hintmask 10011010
          27 callsubr
          vhcurveto
          hintmask 10101010
          125 callsubr
          vhcurveto
          -402 -196 rmoveto
          -26 14 -12 23 29 25 -7 -35 vhcurveto
          hintmask 11000110
          57 callgsubr
          hintmask 11001010
          -87 callsubr
          642 vlineto
          1 20 22 3 20 hhcurveto
          endchar
        </CharString>
        <CharString name="Dcroat">
          -84 callgsubr
        </CharString>
        <CharString name="E">
          -76 callgsubr
          90 callgsubr
          hintmask 1010101010100000
          613 318 -99 callsubr
          99 callsubr
          hvcurveto
          hintmask 1100101011000000
          -73 callsubr
          hintmask 1010101011000000
          -39 callgsubr
          hintmask 1001101011000000
          34 callsubr
          hintmask 1100101011000000
          37 callgsubr
          hintmask 1001011011000000
          -80 callgsubr
          hintmask 1100101011000000
          -102 callgsubr
          hintmask 1100100110100000
          -106 callsubr
          endchar
        </CharString>
        <CharString name="Eacute">
          -76 callgsubr
          20 131 23 callgsubr
          77 155 -42 97 callgsubr
          hintmask 1010101101001000
          462 98 callgsubr
          -15 19 -26 -38 -76 35 callsubr
          20 35 85 56 39 vhcurveto
          151 -618 -99 callsubr
          hintmask 1100101100110000
          99 callsubr
          -17 6 -18 35 27 15 10 23 hvcurveto
          31 -2 43 38 38 2 35 38 vvcurveto
          hintmask 1010101101010000
          -39 callgsubr
          hintmask 1001101101010000
          34 callsubr
          hintmask 1100101101010000
          37 callgsubr
          hintmask 1001011101010000
          -80 callgsubr
          hintmask 1100101101010000
          -102 callgsubr
          hintmask 1100101011001000
          -106 callsubr
          endchar
        </CharString>
        <CharString name="Ebreve">
          -76 callgsubr
          41 57 -57 109 23 callgsubr
          17 68 105 97 callgsubr
          hintmask 1010101010110100
          613 318 -99 callsubr
          99 callsubr
          hvcurveto
          hintmask 1100101010111000
          -73 callsubr
          hintmask 1010101010111000
          -39 callgsubr
          hintmask 1001101010111000
          34 callsubr
          hintmask 1100101010111000
          37 callgsubr
          hintmask 1001011010111000
          -80 callgsubr
          hintmask 1100101010111000
          -102 callgsubr
          hintmask 1100100101110100
          -106 callsubr
          -113 623 -59 callsubr
          hintmask 1100101010111000
          -51 callsubr
          hintmask 1100100110111000
          -89 callgsubr
        </CharString>
        <CharString name="Ecaron">
          -76 callgsubr
          -84 235 -142 -20 62 callgsubr
          79 20 88 -43 87 hintmask 1100001010110000
          486 972 rmoveto
          -14 -67 -21 -29 -39 hvcurveto
          29 -39 -66 21 28 callsubr
          hvcurveto
          hintmask 1100000110110000
          111 callsubr
          hintmask 1010001010101000
          125 callsubr
          vhcurveto
          127 -654 -99 callsubr
          99 callsubr
          hvcurveto
          hintmask 1100100010110000
          -73 callsubr
          hintmask 1010100010110000
          -39 callgsubr
          hintmask 1001100010110000
          34 callsubr
          hintmask 1100100010110000
          37 callgsubr
          hintmask 1001010010110000
          -80 callgsubr
          hintmask 1100100010110000
          -102 callgsubr
          hintmask 1100100001101000
          -106 callsubr
          endchar
        </CharString>
        <CharString name="Ecircumflex">
          -76 callgsubr
          -84 235 -142 -20 62 callgsubr
          77 22 88 -43 87 hintmask 1100000110110000
          484 -18 callgsubr
          hvcurveto
          hintmask 1100001010110000
          -7 callsubr
          vhcurveto
          hintmask 1010000110101000
          17 callgsubr
          129 -512 -99 callsubr
          99 callsubr
          hvcurveto
          hintmask 1100100010110000
          -73 callsubr
          hintmask 1010100010110000
          -39 callgsubr
          hintmask 1001100010110000
          34 callsubr
          hintmask 1100100010110000
          37 callgsubr
          hintmask 1001010010110000
          -80 callgsubr
          hintmask 1100100010110000
          -102 callgsubr
          hintmask 1100100001101000
          -106 callsubr
          endchar
        </CharString>
        <CharString name="Edieresis">
          -76 callgsubr
          9 -20 31 131 23 callgsubr
          -41 44 callsubr
          -102 97 callgsubr
          hintmask 1100001100110010
          189 -4 callgsubr
          217 -578 rmoveto
          -24 -24 -8 -29 -1 hvcurveto
          -2 -44 -7 -75 -4 -41 rrcurveto
          -23 callgsubr
          hintmask 1010100110001100
          -278 293 hlineto
          1 38 12 1 38 27 16 -1 11 hhcurveto
          99 callsubr
          hvcurveto
          hintmask 1100100110001100
          -73 callsubr
          hintmask 1010100110010010
          -39 callgsubr
          hintmask 1001100110010010
          34 callsubr
          hintmask 1100100110010010
          37 callgsubr
          hintmask 1001010110001100
          -80 callgsubr
          hintmask 1100100110001100
          -102 callgsubr
          hintmask 1100100101010010
          -106 callsubr
          endchar
        </CharString>
        <CharString name="Edotaccent">
          -76 callgsubr
          19 131 23 callgsubr
          58 126 6 97 callgsubr
          hintmask 1010101101101000
          613 318 -99 callsubr
          99 callsubr
          hvcurveto
          hintmask 1100101101110000
          -73 callsubr
          hintmask 1010101101110000
          -39 callgsubr
          hintmask 1001101101110000
          34 callsubr
          hintmask 1100101101110000
          37 callgsubr
          hintmask 1001011101110000
          -80 callgsubr
          hintmask 1100101101110000
          -102 callgsubr
          hintmask 1100101011101000
          -106 callsubr
          -325 588 rmoveto
          -43 26 -23 -96 callsubr
          -38 -27 vhcurveto
          endchar
        </CharString>
        <CharString name="Egrave">
          -76 callgsubr
          20 131 23 callgsubr
          49 155 -14 97 callgsubr
          hintmask 1010101101001000
          279 936 rmoveto
          -39 86 -56 34 -17 callsubr
          334 -618 -99 callsubr
          hintmask 1100101100110000
          99 callsubr
          -17 6 -18 35 27 15 10 23 hvcurveto
          31 -2 43 38 38 2 35 38 vvcurveto
          hintmask 1010101101010000
          -39 callgsubr
          hintmask 1001101101010000
          34 callsubr
          hintmask 1100101101010000
          37 callgsubr
          hintmask 1001011101010000
          -80 callgsubr
          hintmask 1100101101010000
          -102 callgsubr
          hintmask 1100101011001000
          -106 callsubr
          endchar
        </CharString>
        <CharString name="Emacron">
          -76 callgsubr
          64 77 2 -20 21 -20 90 callgsubr
          hintmask 1010101001010100
          613 318 -99 callsubr
          99 callsubr
          hvcurveto
          hintmask 1100101001011000
          -73 callsubr
          hintmask 1010101001011000
          -39 callgsubr
          hintmask 1001101001011000
          34 callsubr
          hintmask 1100101001011000
          37 callgsubr
          hintmask 1001011001011000
          -80 callgsubr
          hintmask 1100101001011000
          -102 callgsubr
          hintmask 1100100010110100
          -106 callsubr
          -104 647 rmoveto
          hintmask 1100101001011000
          -3 callgsubr
          hintmask 1100100101011000
          -34 -68 -50 callgsubr
          hintmask 1100101001011000
          -72 callsubr
          hintmask 1100100011011000
          26 callgsubr
        </CharString>
        <CharString name="Eng">
          238 -250 83 62 97 8 63 679 62 -50 67 hstemhm
          69 164 -107 107 -92 92 147 77 -77 176 -21 168 -93 93 -93 230 hintmask 1111010010100000
          537 -250 rmoveto
          107 59 80 150 hvcurveto
          114 -2 69 69 66 5 265 151 vvcurveto
          23 47 5 50 vhcurveto
          hintmask 1111010010001000
          16 21 7 27 21 -9 7 -42 hvcurveto
          -217 hlineto
          hintmask 1111010010100000
          -26 -11 -9 -19 -27 19 -7 18 hvcurveto
          hintmask 1110100110010000
          30 8 -8 -25 hvcurveto
          -546 vlineto
          -24 74 -266 510 -12 33 rrcurveto
          37 -13 -13 4 -12 hhcurveto
          -159 hlineto
          -54 -11 -10 -19 -26 25 -12 14 47 6 -3 -3 hvcurveto
          -161 3 -62 -115 vvcurveto
          hintmask 1111001010100000
          -72 -9 -144 -6 -88 vhcurveto
          -41 -3 -18 -5 -9 hhcurveto
          hintmask 1111010010100000
          -13 -14 -10 -18 -27 24 -5 17 hvcurveto
          239 hlineto
          13 17 8 24 26 -18 5 -22 hvcurveto
          -106 627 hlineto
          240 -492 53 -50 86 -152 rrcurveto
          -110 -34 -53 -56 -35 -30 20 32 9 1 14 14 7 vhcurveto
          -8 6 16 -12 20 hhcurveto
          hintmask 1111010001010000
          25 17 17 32 37 -34 11 -24 -85 -33 -52 -56 -84 72 -50 85 hvcurveto
          endchar
        </CharString>
        <CharString name="Eogonek">
          73 -155 53 -53 77 78 84 191 186 -82 191 -106 -20 153 224 -84 84 77 callgsubr
          -68 193 -109 88 -43 87 hintmask 1010101010100100
          613 318 -99 callsubr
          99 callsubr
          hvcurveto
          hintmask 1011001010101000
          -73 callsubr
          hintmask 1010101010101000
          -39 callgsubr
          hintmask 1010011010101000
          34 callsubr
          hintmask 1011001010101000
          37 callgsubr
          hintmask 1010010110101000
          -80 callgsubr
          hintmask 1011001010101000
          -102 callgsubr
          hintmask 1011001001010000
          -81 6 -66 -136 -183 -2 -5 -128 vvcurveto
          -22 -9 -12 -38 -2 vhcurveto
          -28 -1 -23 -10 -29 vvcurveto
          -22 13 -11 35 vhcurveto
          81 108 2 81 hhcurveto
          49 47 -1 -1 47 hvcurveto
          -25 -12 -39 -27 -41 36 callsubr
          57 26 33 20 vhcurveto
          hintmask 0111001010101000
          35 callgsubr
          hintmask 1011001010100100
          123 callsubr
          15 38 26 17 hvcurveto
          38 hlineto
          33 6 5 28 3 hvcurveto
          9 81 7 148 23 vvcurveto
          22 -20 11 -18 vhcurveto
          endchar
        </CharString>
        <CharString name="Eth">
          -84 callgsubr
        </CharString>
        <CharString name="Etilde">
          -76 callgsubr
          22 80 -56 56 -56 84 2 -20 90 callgsubr
          hintmask 1010101001101010
          613 318 -99 callsubr
          99 callsubr
          hvcurveto
          hintmask 1100101001101100
          -73 callsubr
          hintmask 1010101001101100
          -39 callgsubr
          hintmask 1001101001101100
          34 callsubr
          hintmask 1100101001101100
          37 callgsubr
          hintmask 1001011001101100
          -80 callgsubr
          hintmask 1100101001101100
          -102 callgsubr
          hintmask 1100100101011010
          -106 callsubr
          -435 560 -74 callgsubr
          hintmask 1100101001101100
          -101 callsubr
          hintmask 1100100010101100
          -18 callsubr
          hintmask 1100101001101100
          -78 callsubr
        </CharString>
        <CharString name="Euro">
          71 -14 80 -80 225 34 82 84 82 266 79 hstemhm
          557 91 hintmask 01111100
          645 166 rmoveto
          19 -3 26 -35 -42 4 -41 -21 -7 vhcurveto
          hintmask 10111100
          -68 -23 -67 -15 -77 hhcurveto
          -90 -73 75 104 -14 hvcurveto
          41 46 1 21 hhcurveto
          29 7 29 14 124 callgsubr
          -23 hlineto
          -4 25 -1 27 28 vvcurveto
          7 vlineto
          44 50 1 23 hhcurveto
          27 9 26 17 124 callgsubr
          -26 hlineto
          101 50 168 153 109 34 -59 -80 -40 5 -35 45 29 12 31 19 188 -117 55 -120 -174 -90 -129 -218 -32 vhcurveto
          -21 -20 1 -9 hhcurveto
          -23 -10 -22 -18 -17 14 -24 19 hvcurveto
          48 -6 hlineto
          -30 2 -26 3 -24 vhcurveto
          -22 -21 1 -10 hhcurveto
          -23 -10 -22 -18 -17 14 -24 19 hvcurveto
          61 hlineto
          -162 25 103 -97 144 hhcurveto
          198 49 96 84 hvcurveto
          endchar
        </CharString>
        <CharString name="F">
          0 0 78 188 196 -82 82 2 -20 153 224 -84 84 -70 70 hstemhm
          40 189 -89 89 191 83 16 88 hintmask 1010100101100000
          135 119 rmoveto
          -1 -38 -21 -8 -35 -3 rrcurveto
          -22 -2 -16 -10 -27 vvcurveto
          -23 14 -8 29 vhcurveto
          276 hlineto
          21 26 7 34 31 -25 6 -28 hvcurveto
          -121 hlineto
          11 -3 76 40 48 1 76 48 vvcurveto
          2 38 13 1 38 hhcurveto
          19 21 -1 -3 19 hvcurveto
          19 -3 21 -13 2 -55 rrcurveto
          hintmask 1100100101100000
          -25 1 18 -14 23 hhcurveto
          26 15 10 28 hvcurveto
          32 -2 46 33 33 2 38 33 vvcurveto
          28 -5 19 -36 -39 -5 -22 -31 vhcurveto
          hintmask 1001100101100000
          -8 0 -41 -14 vhcurveto
          hintmask 1100100101100000
          -8 -51 -2 -29 hhcurveto
          hintmask 1001010101100000
          -37 -10 0 2 -39 hvcurveto
          273 250 vlineto
          27 12 -5 -36 hvcurveto
          -41 vlineto
          hintmask 1100100101100000
          -24 8 -34 34 34 12 17 41 vhcurveto
          118 vlineto
          35 -6 13 -28 vhcurveto
          -70 -70 -2 -70 -85 -109 2 -85 hhcurveto
          -33 -15 -8 -26 hvcurveto
          hintmask 1100001011100000
          -25 14 -10 27 -1 vhcurveto
          38 -1 16 -15 2 -27 rrcurveto
          5 -74 2 -58 -87 vvcurveto
          -128 -2 -114 -3 -128 vhcurveto
          endchar
        </CharString>
        <CharString name="G">
          -12 callgsubr
          hstemhm
          34 96 392 91 -79 79 hintmask 1011101010000000
          509 245 -36 callgsubr
          hintmask 1011101100000000
          -65 callsubr
          hintmask 1011011100000000
          -71 callgsubr
          hintmask 0111101100000000
          -81 callgsubr
          endchar
        </CharString>
        <CharString name="Gbreve">
          -12 callgsubr
          24 54 callgsubr
          34 96 99 68 225 91 -79 79 hintmask 1011101011010000
          509 245 -36 callgsubr
          hintmask 1011101011100000
          -65 callsubr
          hintmask 1011011011100000
          -71 callgsubr
          hintmask 0111100111100000
          -81 callgsubr
          -27 696 -59 callsubr
          hintmask 1011101011100000
          -51 callsubr
          hintmask 1011100111100000
          -89 callgsubr
        </CharString>
        <CharString name="Gcircumflex">
          -12 callgsubr
          -79 213 119 callgsubr
          34 96 392 91 -79 79 hintmask 1011000111000000
          464 -18 callgsubr
          hvcurveto
          hintmask 1011001011000000
          106 callsubr
          hintmask 1011000110100000
          -7 5 -7 8 14 66 21 29 39 vhcurveto
          -29 39 67 -21 14 hhcurveto
          45 -585 rmoveto
          19 6 -3 -17 -65 -91 -93 -99 -155 -59 172 165 hvcurveto
          hintmask 1011100011000000
          195 94 160 114 134 50 -102 -136 -40 24 -13 22 30 15 24 32 vhcurveto
          34 -2 56 34 54 4 30 55 vvcurveto
          16 -13 23 -34 -28 -10 -12 -19 vhcurveto
          5 -86 rlineto
          hintmask 1011010011000000
          -71 callgsubr
          hintmask 0111100011000000
          -81 callgsubr
          endchar
        </CharString>
        <CharString name="Gcommaaccent">
          61 -228 -21 200 35 0 81 -50 -21 71 171 0 92 0 138 291 67 -67 79 hstemhm
          36 96 168 -37 callsubr
          96 91 -79 79 hintmask 1101101011100100
          300 -107 rmoveto
          hintmask 1101101011001100
          -27 callsubr
          hintmask 1101101011010100
          -100 callsubr
          vhcurveto
          hintmask 1010001101100010
          -27 callgsubr
          211 352 -36 callgsubr
          hintmask 1101101101100100
          -65 callsubr
          hintmask 1101010011001100
          -71 callgsubr
          -81 callgsubr
          endchar
        </CharString>
        <CharString name="Gdotaccent">
          -12 callgsubr
          2 131 hstemhm
          34 96 167 134 91 91 -79 79 hintmask 1011101110100000
          509 245 -36 callgsubr
          hintmask 1011101111000000
          -65 callsubr
          hintmask 1011011111000000
          -71 callgsubr
          hintmask 0111101111000000
          -81 callgsubr
          -204 661 rmoveto
          -43 26 -23 -96 callsubr
          -38 -27 vhcurveto
          endchar
        </CharString>
        <CharString name="H">
          84 callsubr
          hstemhm
          50 181 -92 208 -208 226 140 106 callgsubr
          hintmask 1011010000100000
          677 705 12 callgsubr
          hintmask 1010110010000000
          -1 callsubr
          vhcurveto
          hintmask 1010101010000000
          94 callgsubr
          hvcurveto
          -199 hlineto
          hintmask 1011010010000000
          92 callsubr
          35 11 -8 -23 hvcurveto
          hintmask 0111000110000000
          -105 4 -110 -105 -26 callsubr
          hintmask 1011010001000000
          -21 callsubr
          -25 16 -8 36 vhcurveto
          235 hlineto
          hintmask 1011010000010000
          50 callsubr
          hintmask 1011010010000000
          87 callsubr
        </CharString>
        <CharString name="Hbar">
          227 -55 63 -8 68 311 82 91 82 111 62 -50 64 hstemhm
          53 181 -161 161 -96 96 -96 212 -212 230 140 170 -91 91 -91 172 -172 219 -219 235 hintmask 1011101000000010
          680 705 12 callgsubr
          hintmask 1011011000010000
          -28 -22 -8 -24 -23 13 -11 27 -3 hvcurveto
          23 -3 13 -7 -16 vvcurveto
          -78 vlineto
          -63 -64 -1 -27 hhcurveto
          -20 -95 0 1 -81 hvcurveto
          83 vlineto
          31 15 9 49 vhcurveto
          hintmask 1011010001010000
          94 callgsubr
          hvcurveto
          -199 hlineto
          hintmask 1011101000010000
          92 callsubr
          hvcurveto
          hintmask 1011100010010000
          35 11 -8 -23 hvcurveto
          -86 -24 vlineto
          hintmask 1011100100010000
          -23 -18 -21 -20 -19 22 -23 19 hvcurveto
          26 hlineto
          1 -51 1 -51 -49 vvcurveto
          hintmask 0111100000110000
          -26 callsubr
          hintmask 1011101000001000
          -21 callsubr
          -25 16 -8 36 vhcurveto
          235 hlineto
          hintmask 1011101000000001
          50 callsubr
          hintmask 1011101000010000
          27 -10 191 175 vvcurveto
          152 41 vlineto
          hintmask 1011101000000100
          28 12 30 14 21 -19 18 -13 hvcurveto
          -47 hlineto
          -96 -83 rmoveto
          -90 vlineto
          -1 3 -98 -1 -51 hhcurveto
          -68 -68 0 1 -68 hvcurveto
          90 vlineto
          105 133 1 112 hhcurveto
          endchar
        </CharString>
        <CharString name="Hcircumflex">
          84 callsubr
          9 96 callsubr
          50 181 -92 92 67 49 158 106 callgsubr
          hintmask 1011011101001000
          551 830 rmoveto
          10 3 11 9 43 -110 79 -23 -18 -115 -76 -52 -8 5 -6 9 14 59 14 callsubr
          126 -125 12 callgsubr
          hintmask 1010101101100000
          -1 callsubr
          94 callgsubr
          vhcurveto
          -199 hlineto
          92 callsubr
          35 11 -8 -23 hvcurveto
          hintmask 0111011011010000
          -105 4 -110 -105 -26 callsubr
          -21 callsubr
          vhcurveto
          hintmask 1011011101000100
          -25 16 -8 36 vhcurveto
          235 hlineto
          50 callsubr
          hintmask 1011011101100000
          87 callsubr
        </CharString>
        <CharString name="I">
          -6 callsubr
          19 callgsubr
          -91 209 hintmask 11100000
          236 719 rmoveto
          -91 callgsubr
          hintmask 11001000
          -73 callgsubr
          hintmask 11010000
          -68 callsubr
          hintmask 11001000
          38 callsubr
        </CharString>
        <CharString name="IJ">
          308 -14 67 -53 65 103 112 472 69 19 callgsubr
          -91 209 23 42 callgsubr
          hintmask 1011100101000000
          236 719 rmoveto
          -91 callgsubr
          hintmask 1011001101000000
          -73 callgsubr
          hintmask 0111010101000000
          -68 callsubr
          hintmask 0111001101000000
          -48 callgsubr
          212 70 32 callsubr
          hintmask 1011100011000000
          -31 callsubr
          hintmask 1011100100010000
          40 callgsubr
          hintmask 1011100101000000
          32 callgsubr
          hintmask 1011100100100000
          -1 callgsubr
        </CharString>
        <CharString name="Iacute">
          -6 callsubr
          20 131 19 callgsubr
          -130 155 -116 209 hintmask 11100100
          260 98 callgsubr
          -15 19 -26 -38 102 callgsubr
          -24 -217 -53 callsubr
        </CharString>
        <CharString name="Ibreve">
          -6 callsubr
          41 57 -57 109 19 callgsubr
          -178 68 19 91 -91 209 hintmask 1110100000000000
          236 719 rmoveto
          -91 callgsubr
          hintmask 1110001010000000
          -73 callgsubr
          hintmask 1110010000000000
          -68 callsubr
          hintmask 1101001010000000
          -48 callgsubr
          76 876 -59 callsubr
          hintmask 1110001100000000
          -51 callsubr
          hintmask 1101001100000000
          -89 callgsubr
        </CharString>
        <CharString name="Icircumflex">
          -6 callsubr
          9 96 callsubr
          31 204 -185 185 -91 209 hintmask 10110100
          302 6 callgsubr
          -66 -111 rmoveto
          -63 callgsubr
          hintmask 11011000
          21 -9 10 -42 vhcurveto
          -206 hlineto
          70 callsubr
          hintmask 11010010
          -73 callgsubr
          -68 callsubr
          38 callsubr
        </CharString>
        <CharString name="Idieresis">
          -6 callsubr
          9 117 callgsubr
          18 126 -113 113 -101 192 -10 126 hintmask 10111001
          18 907 rmoveto
          -38 27 -28 32 30 37 15 55 36 -28 25 -32 -47 -19 49 callsubr
          -47 117 callsubr
          11 -177 rmoveto
          -63 callgsubr
          hintmask 11010101
          21 -9 10 -42 vhcurveto
          -206 hlineto
          -22 -25 -4 -28 -27 13 -8 34 -2 hvcurveto
          49 -3 13 -9 -23 -73 callgsubr
          hintmask 11010010
          -68 callsubr
          38 callsubr
        </CharString>
        <CharString name="Idotaccent">
          -6 callsubr
          19 131 19 callgsubr
          -111 126 -106 209 hintmask 11110000
          236 719 rmoveto
          25 25 5 28 4 vhcurveto
          37 5 9 12 20 vvcurveto
          21 -9 10 -42 vhcurveto
          -206 hlineto
          -31 callgsubr
          hintmask 11100100
          -110 841 rmoveto
          -43 26 -23 -96 callsubr
          -38 -27 vhcurveto
          endchar
        </CharString>
        <CharString name="Igrave">
          -6 callsubr
          19 132 hstemhm
          31 188 -176 192 -171 155 -75 209 hintmask 11100100
          64 935 rmoveto
          -38 85 -57 34 21 15 15 16 28 -76 73 -38 -26 -15 -19 -18 vhcurveto
          172 -216 -53 callsubr
        </CharString>
        <CharString name="Imacron">
          -6 callsubr
          64 77 2 -20 21 -20 19 callgsubr
          -91 209 hintmask 11100100
          236 719 rmoveto
          -91 callgsubr
          hintmask 11100001
          -73 callgsubr
          hintmask 11100010
          -68 callsubr
          hintmask 11001001
          -48 callgsubr
          88 900 rmoveto
          hintmask 11100100
          -3 callgsubr
          hintmask 11010100
          -34 -68 -50 callgsubr
          hintmask 11100100
          -72 callsubr
          hintmask 11001100
          26 callgsubr
        </CharString>
        <CharString name="Iogonek">
          -237 -157 53 -53 77 80 65 687 69 hstemhm
          31 203 -191 125 -79 126 callgsubr
          -138 90 -90 209 hintmask 1011000100000000
          199 -157 rmoveto
          68 callsubr
          hintmask 0111100000000000
          35 callgsubr
          hintmask 1011010000000000
          -40 callsubr
          27 16 41 29 15 hvcurveto
          92 hlineto
          hintmask 1011000001000000
          31 17 11 18 22 -9 14 -25 hvcurveto
          hintmask 1011100000000000
          -85 hlineto
          1 103 1 491 60 vvcurveto
          -91 callgsubr
          hintmask 1011000010000000
          -73 callgsubr
          hintmask 1011010000000000
          -16 -1 -16 -11 -23 vvcurveto
          -25 13 -4 21 vhcurveto
          79 hlineto
          hintmask 1011001000000000
          -24 -12 -43 -27 -43 36 callsubr
          vhcurveto
          endchar
        </CharString>
        <CharString name="Itilde">
          -6 callsubr
          39 80 -56 56 -56 84 2 -20 19 callgsubr
          -91 209 hintmask 1110011000000000
          236 719 rmoveto
          -91 callgsubr
          hintmask 1110010010000000
          -73 callgsubr
          hintmask 1110010100000000
          -68 callsubr
          hintmask 1101010010000000
          -48 callgsubr
          -220 830 -74 callgsubr
          hintmask 1110011000000000
          -101 callsubr
          hintmask 1100101000000000
          -18 callsubr
          hintmask 1110011000000000
          -78 callsubr
        </CharString>
        <CharString name="J">
          121 callsubr
          hstemhm
          -5 42 callgsubr
          hintmask 11110100
          65 135 32 callsubr
          hintmask 11101100
          -31 callsubr
          hintmask 11110001
          40 callgsubr
          hintmask 11110100
          32 callgsubr
          hintmask 11110010
          -1 callgsubr
        </CharString>
        <CharString name="Jcircumflex">
          121 callsubr
          9 96 callsubr
          -5 42 callgsubr
          hintmask 1101110100000000
          477 -15 callgsubr
          20 29 46 hvcurveto
          -29 46 60 -20 14 hhcurveto
          -412 -695 32 callsubr
          hintmask 1110101100000000
          -31 callsubr
          hintmask 1110110001000000
          40 callgsubr
          hintmask 1110110100000000
          32 callgsubr
          hintmask 1110110010000000
          -1 callgsubr
        </CharString>
        <CharString name="K">
          154 -36 65 callsubr
          144 248 hintmask 10101001
          110 callsubr
          hintmask 10010011
          86 callgsubr
          hintmask 10011001
          73 callgsubr
          hintmask 01100101
          -17 callgsubr
          hintmask 10101001
          -49 callgsubr
          endchar
        </CharString>
        <CharString name="K.salt">
          169 -47 78 -78 140 -93 60 309 67 302 57 -36 62 hstemhm
          50 179 -95 210 -210 229 hintmask 1001011000000000
          229 728 rmoveto
          25 34 6 44 vhcurveto
          hintmask 1001010100000000
          16 21 7 24 14 -9 17 -42 hvcurveto
          -206 hlineto
          hintmask 1001011000000000
          -12 -25 -4 -27 -29 23 -2 25 hvcurveto
          hintmask 0011100010000000
          26 10 -6 -87 hvcurveto
          -45 3 -195 -22 vvcurveto
          -22 -2 -175 -3 -103 vhcurveto
          -37 -1 -7 -7 -32 hhcurveto
          -37 -8 -8 -23 -23 30 -6 30 109 callgsubr
          21 5 22 28 -18 7 -25 hvcurveto
          hintmask 0101101000000000
          -91 273 hlineto
          32 34 182 -7 57 -66 9 -76 rlinecurve
          -103 13 -27 -164 163 hhcurveto
          38 51 18 79 12 -4 31 -36 -34 -12 -21 -18 hvcurveto
          hintmask 1001101000000000
          -14 -2 -9 -16 -41 5 123 66 -7 vhcurveto
          60 -6 -30 156 -237 hhcurveto
          127 130 84 84 71 67 18 17 99 2 36 2 rrcurveto
          15 1 5 13 14 vvcurveto
          21 -11 8 -12 vhcurveto
          -274 hlineto
          -27 -7 -19 -12 -14 6 -16 20 4 7 -1 -11 -27 -180 -170 -79 -86 hvcurveto
          endchar
        </CharString>
        <CharString name="Kcommaaccent">
          154 -213 -21 198 65 callsubr
          -13 -37 callsubr
          29 248 hintmask 1101010010010000
          110 callsubr
          hintmask 1100100101010000
          86 callgsubr
          hintmask 1100110010010000
          73 callgsubr
          hintmask 1011001010010000
          -17 callgsubr
          hintmask 1101010010010000
          -49 callgsubr
          97 -531 rmoveto
          hintmask 1101010000110000
          -27 callsubr
          hintmask 1101010001010000
          -100 callsubr
          vhcurveto
          hintmask 1101010010010000
          73 callsubr
        </CharString>
        <CharString name="L">
          -30 0 84 675 94 callsubr
          138 66 -66 81 hintmask 11101000
          77 77 rmoveto
          -56 callsubr
          hintmask 11100100
          -76 callsubr
          vhcurveto
          hintmask 11011000
          -53 callgsubr
          endchar
        </CharString>
        <CharString name="Lacute">
          -30 0 84 675 62 19 132 hstemhm
          12 217 -98 98 -92 92 -92 161 -161 197 138 66 -66 81 hintmask 1110001010000000
          298 935 rmoveto
          18 95 callgsubr
          -73 -28 -16 14 -15 21 34 85 57 38 vhcurveto
          -221 -858 rmoveto
          hintmask 1111000010000000
          -56 callsubr
          hintmask 1111000001000000
          -76 callsubr
          vhcurveto
          hintmask 1110000110000000
          16 22 6 25 23 -9 8 -42 hvcurveto
          -220 hlineto
          -22 -20 -7 -28 -29 17 -7 25 -1 hvcurveto
          hintmask 1110100010000000
          95 callsubr
          vvcurveto
          hintmask 1110010010000000
          47 callsubr
        </CharString>
        <CharString name="Lcaron">
          -31 0 84 675 62 -62 213 119 callgsubr
          12 217 -92 92 -92 196 139 66 -66 81 hintmask 1010100100000000
          319 76 callsubr
          -8 -5 -7 -7 hvcurveto
          hintmask 1001001100000000
          -52 115 -76 17 24 110 79 42 vhcurveto
          hintmask 1010100100000000
          9 -3 12 -11 vhcurveto
          -242 -895 rmoveto
          -56 callsubr
          hintmask 1100100010000000
          -76 callsubr
          16 22 6 25 23 -9 8 -42 vhcurveto
          -220 hlineto
          -22 -20 -7 -28 -29 17 -7 25 -1 hvcurveto
          95 callsubr
          vvcurveto
          hintmask 1100010100000000
          47 callsubr
        </CharString>
        <CharString name="Lcommaaccent">
          -30 -229 -21 200 50 0 84 675 94 callsubr
          -85 -37 callsubr
          95 66 -66 81 hintmask 1101101001000000
          249 -108 rmoveto
          hintmask 1101100011000000
          -27 callsubr
          hintmask 1101100101000000
          -100 callsubr
          vhcurveto
          hintmask 1101101001000000
          -27 callgsubr
          -172 185 rmoveto
          -56 callsubr
          hintmask 1011101000100000
          -76 callsubr
          vhcurveto
          hintmask 1101010001000000
          -53 callgsubr
          endchar
        </CharString>
        <CharString name="Ldot">
          -34 0 84 211 131 333 94 callsubr
          -33 126 45 66 -66 81 hintmask 11110110
          77 77 rmoveto
          -56 callsubr
          hintmask 11110101
          -76 callsubr
          vhcurveto
          hintmask 11101010
          -53 callgsubr
          hintmask 11110110
          224 284 rmoveto
          -43 26 -23 -96 callsubr
          -38 -27 vhcurveto
          endchar
        </CharString>
        <CharString name="Lslash">
          -25 0 84 675 62 hstemhm
          16 217 -192 192 -92 92 -92 197 -197 245 90 66 -66 81 hintmask 1110000100000000
          81 77 rmoveto
          -56 callsubr
          hintmask 1110000010000000
          14 184 1 43 18 vvcurveto
          28 -14 13 -24 -38 -5 -20 -30 -20 -11 -118 -2 -12 vhcurveto
          -23 -5 -17 -8 -18 hhcurveto
          -190 303 hlineto
          124 47 rlineto
          hintmask 1100001100000000
          23 8 6 18 15 vvcurveto
          22 -18 21 -21 vhcurveto
          hintmask 1110000100000000
          -12 -48 -17 -20 -54 hvcurveto
          239 vlineto
          25 11 14 56 vhcurveto
          hintmask 1100010100000000
          16 22 6 25 23 -9 8 -42 hvcurveto
          -220 hlineto
          -22 -20 -7 -28 -29 17 -7 25 -1 hvcurveto
          95 callsubr
          vvcurveto
          -68 5 -59 1 -139 vhcurveto
          -74 -27 rlineto
          hintmask 1101000100000000
          -20 -7 -6 -16 -15 vvcurveto
          -17 17 -25 26 vhcurveto
          hintmask 1100100100000000
          7 22 6 10 28 hvcurveto
          -1 -101 -1 -103 -25 vvcurveto
          -31 -25 -14 -33 -4 vhcurveto
          endchar
        </CharString>
        <CharString name="M">
          446 -41 63 -29 -21 28 63 738 -20 hstemhm
          24 204 -95 218 326 193 -92 92 -92 231 hintmask 1001011000000000
          987 707 rmoveto
          29 2 16 19 24 vvcurveto
          25 -22 4 -30 vhcurveto
          -140 hlineto
          -83 -8 -3 -40 -13 hvcurveto
          -45 -138 -116 -348 -53 -144 -63 145 -161 385 -40 118 rrcurveto
          36 -12 -15 9 -17 hhcurveto
          -98 hlineto
          -79 -29 -7 -29 hvcurveto
          -65 125 49 -63 -104 3 -89 -110 vvcurveto
          -133 -4 -36 -4 -91 vhcurveto
          -2 -41 -9 -15 -24 -3 rrcurveto
          hintmask 0111101000000000
          -40 -5 -29 -4 -27 vvcurveto
          -23 10 -5 24 vhcurveto
          253 hlineto
          hintmask 0111011000000000
          31 9 15 14 30 -24 4 -26 hvcurveto
          hintmask 0111100100000000
          -73 544 hlineto
          40 -121 138 -308 52 -148 rrcurveto
          -14 5 15 -44 37 hhcurveto
          30 20 9 37 12 hvcurveto
          24 76 90 226 87 260 rrcurveto
          -496 vlineto
          -45 -15 -9 -28 -4 vhcurveto
          hintmask 0111101000000000
          -36 -5 -22 -8 -20 vvcurveto
          hintmask 1001101000000000
          -26 5 -8 46 vhcurveto
          241 hlineto
          hintmask 0111100010000000
          33 7 15 19 hvcurveto
          hintmask 1001101000000000
          22 -14 7 -36 vhcurveto
          -84 hlineto
          54 -5 194 110 141 4 76 55 vvcurveto
          25 4 19 27 3 vhcurveto
          29 5 25 0 28 3 rrcurveto
          endchar
        </CharString>
        <CharString name="N">
          82 callgsubr
          832 -20 34 callgsubr
          132 51 callsubr
          hintmask 01110100
          596 25 rmoveto
          -26 14 23 -10 21 hhcurveto
          -66 callsubr
          hintmask 10110001
          -28 callgsubr
          hintmask 10110100
          -7 callgsubr
          hintmask 10110010
          -86 callgsubr
          hintmask 10101100
          -83 callgsubr
          25 -25 6 -25 hvcurveto
          hintmask 10110100
          -82 592 hlineto
          endchar
        </CharString>
        <CharString name="NULL">
          -611 endchar
        </CharString>
        <CharString name="Nacute">
          82 callgsubr
          852 131 34 callgsubr
          4 148 -20 51 callsubr
          hintmask 0111010100000000
          517 98 callgsubr
          -15 19 -26 -38 -69 35 callsubr
          20 35 78 56 39 vhcurveto
          79 -911 -79 callsubr
        </CharString>
        <CharString name="Ncaron">
          82 callgsubr
          841 -20 162 -20 34 callgsubr
          132 51 callsubr
          hintmask 0111101000000000
          552 19 callsubr
          -9 -4 -7 -7 27 callsubr
          125 callsubr
          hvcurveto
          44 -947 rmoveto
          -26 14 23 -10 21 hhcurveto
          -66 callsubr
          hintmask 1011100010000000
          -28 callgsubr
          hintmask 1011101000000000
          -7 callgsubr
          hintmask 1011100100000000
          -86 callgsubr
          hintmask 1011011000000000
          -83 callgsubr
          25 -25 6 -25 hvcurveto
          hintmask 1011101000000000
          -82 592 hlineto
          endchar
        </CharString>
        <CharString name="Ncommaaccent">
          238 -226 -21 200 47 0 63 -53 -21 832 -20 34 callgsubr
          20 -37 callsubr
          -16 51 callsubr
          hintmask 1100110100010000
          385 -105 rmoveto
          hintmask 1100110001010000
          -27 callsubr
          hintmask 1100110010010000
          -100 callsubr
          vhcurveto
          hintmask 1001110100010000
          -27 callgsubr
          211 130 rmoveto
          -26 14 23 -10 21 hhcurveto
          hintmask 1100110000100000
          -66 callsubr
          hintmask 1100110100001000
          -28 callgsubr
          hintmask 1100110000100000
          -7 callgsubr
          hintmask 1100110100010000
          -86 callgsubr
          hintmask 1100101100010000
          -83 callgsubr
          hvcurveto
          hintmask 1010110100010000
          25 -25 6 -25 vhcurveto
          -82 592 hlineto
          endchar
        </CharString>
        <CharString name="Ndotaccent">
          82 callgsubr
          851 131 34 callgsubr
          10 126 -4 51 callsubr
          hintmask 0111010100000000
          375 906 rmoveto
          -43 26 -23 -96 callsubr
          -38 -27 vhcurveto
          221 -881 -79 callsubr
        </CharString>
        <CharString name="Ntilde">
          82 callgsubr
          873 -28 callsubr
          26 207 -92 224 132 93 20 93 -93 219 hintmask 0110011011000000
          596 25 rmoveto
          -26 14 23 -10 21 hhcurveto
          -66 callsubr
          hintmask 1010011010100000
          -28 callgsubr
          -7 callgsubr
          -86 callgsubr
          hintmask 1010010111000000
          -83 callgsubr
          25 -25 6 -25 hvcurveto
          hintmask 1001011011000000
          -82 592 hlineto
          6 242 -74 callgsubr
          hintmask 1010011011000000
          -101 callsubr
          hintmask 1000101011000000
          -18 callsubr
          hintmask 1010011011000000
          -78 callsubr
        </CharString>
        <CharString name="O">
          -5 callgsubr
          hstem
          34 96 463 96 vstem
          130 400 -33 callgsubr
          endchar
        </CharString>
        <CharString name="OE">
          533 -16 82 -66 66 -66 84 191 186 -82 184 -99 -20 151 226 -84 84 -62 79 hstemhm
          34 96 463 97 190 97 callgsubr
          hintmask 1001001001111000
          34 404 rmoveto
          -294 140 -126 171 159 52 72 94 40 vhcurveto
          -86 vlineto
          hintmask 0101001001110100
          -53 0 -11 58 vhcurveto
          33 40 2 81 103 39 -2 103 hhcurveto
          29 10 6 27 3 hvcurveto
          9 81 7 140 23 vvcurveto
          16 -2 28 -37 -35 -12 -21 -27 -1 vhcurveto
          -2 -48 -10 -90 -1 -14 rrcurveto
          hintmask 0010101001111000
          -23 callgsubr
          0 callgsubr
          hintmask 1001001001111000
          -17 7 -17 34 20 22 9 23 vhcurveto
          37 -2 38 38 38 2 31 38 vvcurveto
          hintmask 1000101001111000
          21 -13 15 -29 -35 -8 -22 -11 vhcurveto
          hintmask 1000011001111000
          -19 0 -47 -17 vhcurveto
          hintmask 1001001001111000
          -12 -58 -3 -38 hhcurveto
          hintmask 1000010101111000
          50 callgsubr
          23 14 -9 -51 hvcurveto
          -32 vlineto
          hintmask 1001001001111000
          -34 9 -16 35 34 10 15 41 vhcurveto
          134 vlineto
          28 -10 8 -18 vhcurveto
          -145 -12 -2 -121 -50 -33 2 -42 hhcurveto
          -44 0 -35 -36 -34 0 -11 1 -36 hvcurveto
          hintmask 1001000011111000
          52 -4 -55 117 -175 hhcurveto
          -223 -102 -230 -204 hvcurveto
          96 -4 rmoveto
          170 71 189 154 138 100 -160 -189 -228 -110 -116 -148 -124 -81 128 206 vhcurveto
          endchar
        </CharString>
        <CharString name="Oacute">
          -5 callgsubr
          3 131 hstem
          34 96 158 154 151 96 vstem
          442 936 rmoveto
          12 callsubr
          -312 -536 -33 callgsubr
          endchar
        </CharString>
        <CharString name="Obreve">
          -5 callgsubr
          24 54 callgsubr
          34 96 101 68 294 96 hintmask 11011110
          130 400 -33 callgsubr
          450 537 -59 callsubr
          hintmask 11101110
          -51 callsubr
          hintmask 11011110
          -89 callgsubr
        </CharString>
        <CharString name="Ocircumflex">
          -5 callgsubr
          -76 210 119 callgsubr
          34 96 463 96 hintmask 10011100
          473 -18 callgsubr
          hvcurveto
          hintmask 10101100
          -7 callsubr
          vhcurveto
          hintmask 10011100
          17 callgsubr
          -343 -430 rmoveto
          hintmask 11001100
          -105 callgsubr
          endchar
        </CharString>
        <CharString name="Odieresis">
          -5 callgsubr
          -8 117 callgsubr
          34 96 72 44 callsubr
          58 96 hintmask 10111111
          202 101 callsubr
          -28 25 -31 -20 callgsubr
          -28 24 -31 -48 117 callsubr
          -279 -496 rmoveto
          hintmask 11011111
          -105 callgsubr
          endchar
        </CharString>
        <CharString name="Ograve">
          -5 callgsubr
          3 131 hstem
          34 96 160 155 148 96 vstem
          290 936 rmoveto
          -39 86 -56 34 -17 callsubr
          -160 -536 -33 callgsubr
          endchar
        </CharString>
        <CharString name="Ohungarumlaut">
          -5 callgsubr
          3 131 hstem
          34 96 83 155 10 154 61 96 vstem
          368 98 callgsubr
          -15 19 -26 -38 -76 -72 -28 -16 15 53 callgsubr
          164 hmoveto
          12 callsubr
          -402 -536 -33 callgsubr
          endchar
        </CharString>
        <CharString name="Omacron">
          -5 callgsubr
          47 63 callgsubr
          34 96 463 96 hintmask 11001110
          492 965 rmoveto
          hintmask 11100110
          -3 callgsubr
          hintmask 11010110
          -34 -68 -50 callgsubr
          hintmask 11100110
          -72 callsubr
          hintmask 11001110
          104 callgsubr
          vhcurveto
          -362 -565 -33 callgsubr
          endchar
        </CharString>
        <CharString name="Oogonek">
          111 -169 53 -53 77 -77 232 699 76 hstemhm
          32 96 133 126 callgsubr
          137 96 hintmask 10011011
          32 404 rmoveto
          -278 124 -127 166 -14 vhcurveto
          -24 -13 -37 -27 -39 36 callsubr
          57 26 33 20 vhcurveto
          hintmask 01011101
          35 callgsubr
          hintmask 10011101
          123 callsubr
          14 37 26 17 hvcurveto
          139 12 168 105 306 vvcurveto
          231 -100 199 -214 -241 -100 -230 -204 vhcurveto
          96 -4 rmoveto
          -59 callgsubr
          vhcurveto
          hintmask 00111101
          -228 -88 -119 -148 -131 -96 131 206 vhcurveto
          endchar
        </CharString>
        <CharString name="Oslash">
          113 -16 79 -61 -21 781 76 hstemhm
          34 96 463 96 hintmask 01111000
          30 callsubr
          hintmask 10111000
          -71 callsubr
          endchar
        </CharString>
        <CharString name="Oslashacute">
          113 -16 79 -61 -21 781 76 3 131 hstemhm
          34 96 178 154 131 96 hintmask 01111110
          30 callsubr
          hintmask 10111110
          -71 callsubr
          -131 526 rmoveto
          17 95 callgsubr
          -73 -28 -15 14 53 callgsubr
          endchar
        </CharString>
        <CharString name="Otilde">
          -5 callgsubr
          24 -28 callsubr
          34 96 463 96 hintmask 11010111
          130 400 -33 callgsubr
          164 493 -74 callgsubr
          hintmask 11100111
          -101 callsubr
          hintmask 11001011
          -18 callsubr
          hintmask 11100111
          -78 callsubr
        </CharString>
        <CharString name="P">
          31 0 63 267 82 329 80 hstemhm
          20 211 -93 93 -93 241 161 96 hintmask 11110010
          78 60 rmoveto
          -47 -4 -11 -9 -17 vvcurveto
          -25 19 -5 42 vhcurveto
          253 hlineto
          hintmask 11100110
          37 8 13 19 23 -14 8 -29 hvcurveto
          hintmask 11110010
          -105 269 hlineto
          -1 29 19 -1 20 hhcurveto
          146 191 66 199 166 -129 60 -162 hvcurveto
          -111 -75 -3 -96 hhcurveto
          -24 -14 -12 -19 -18 8 -13 15 -1 hvcurveto
          52 -4 25 -2 6 -14 1 -23 rlinecurve
          hintmask 11101010
          3 -64 3 -97 -114 -149 -1 -37 -145 vvcurveto
          -32 -23 -11 -36 -3 vhcurveto
          225 681 rmoveto
          75 162 -6 -143 -109 -94 -71 -144 -21 -29 1 1 -21 hvcurveto
          320 vlineto
          4 23 24 3 25 hhcurveto
          endchar
        </CharString>
        <CharString name="Q">
          112 -128 80 -80 93 -74 172 -148 37 810 76 hstemhm
          34 96 463 21 -21 96 hintmask 00101110
          34 404 rmoveto
          -262 111 -128 152 -25 vhcurveto
          -47 -14 -53 -27 -35 vvcurveto
          -18 24 -4 22 vhcurveto
          hintmask 00011110
          19 42 24 49 hhcurveto
          hintmask 01001110
          38 53 -43 51 hhcurveto
          55 64 31 30 18 -10 14 -24 hvcurveto
          hintmask 10001101
          -39 -39 -13 -8 hhcurveto
          -27 -36 21 14 -33 hvcurveto
          136 18 155 108 295 vvcurveto
          231 -108 199 -214 -241 -92 -230 -204 vhcurveto
          96 -4 rmoveto
          190 78 172 163 138 84 -158 -194 vhcurveto
          hintmask 00101110
          -228 -88 -119 -148 -131 -96 131 206 vhcurveto
          endchar
        </CharString>
        <CharString name="R">
          104 79 callsubr
          hstemhm
          139 92 -92 208 193 96 hintmask 10110100
          540 588 62 callsubr
          -13 -17 1 2 -13 vhcurveto
          -93 callsubr
          hintmask 01101100
          -16 callsubr
        </CharString>
        <CharString name="R.salt">
          107 -96 78 -78 142 -46 60 289 83 307 82 hstemhm
          56 176 -98 223 184 96 hintmask 10111101
          637 602 rmoveto
          170 -157 49 -175 vhcurveto
          -43 -73 -3 -58 hhcurveto
          -37 -38 -4 -26 -31 36 -6 13 hvcurveto
          hintmask 10111011
          21 7 -8 -34 1 hvcurveto
          3 -101 3 -179 -17 vvcurveto
          -17 -4 -234 -1 -57 vhcurveto
          -38 -1 -9 -6 -30 hhcurveto
          -22 -23 -7 -24 -23 36 -6 24 109 callgsubr
          12 14 18 22 -19 8 -15 hvcurveto
          hintmask 01011101
          -91 287 hlineto
          199 30 -94 -64 4 hvcurveto
          -100 6 -29 -187 183 hhcurveto
          41 42 26 72 18 -7 26 -28 -28 -5 -28 -7 hvcurveto
          hintmask 10111101
          -10 -1 -10 -19 -16 hhcurveto
          -57 12 130 79 -7 hvcurveto
          -12 137 -72 32 -56 24 rrcurveto
          119 21 97 63 134 vvcurveto
          -96 -5 rmoveto
          -144 -157 -21 -110 vhcurveto
          -3 -37 2 -2 hhcurveto
          298 vlineto
          0 31 7 48 78 152 -21 -121 vhcurveto
          endchar
        </CharString>
        <CharString name="Racute">
          104 79 callsubr
          20 131 hstemhm
          229 92 -92 208 -186 155 224 96 hintmask 10110011
          406 98 callgsubr
          -15 19 -27 -37 102 callgsubr
          224 -348 62 callsubr
          vhcurveto
          hintmask 10111001
          -13 -17 1 2 -13 hvcurveto
          -93 callsubr
          hintmask 01110101
          -16 callsubr
        </CharString>
        <CharString name="Rcaron">
          104 79 callsubr
          -82 233 119 callgsubr
          229 92 -92 208 193 96 hintmask 10010101
          463 19 callsubr
          -8 -5 -7 -7 hvcurveto
          hintmask 10001101
          111 callsubr
          hintmask 10010101
          125 callsubr
          vhcurveto
          167 -384 62 callsubr
          -13 -17 1 2 -13 vhcurveto
          318 vlineto
          3 14 30 4 28 hhcurveto
          69 168 -22 -129 hvcurveto
          -192 -425 rmoveto
          -109 74 70 -98 18 hhcurveto
          192 9 5 31 23 -15 7 -35 hvcurveto
          -108 hlineto
          -87 101 -131 207 0 vvcurveto
          159 20 142 78 166 vvcurveto
          hintmask 01100011
          168 -175 59 -122 vhcurveto
          -120 -49 -3 -106 hhcurveto
          -29 -10 -18 -15 -20 15 -12 32 -4 hvcurveto
          37 -5 22 -11 2 -48 rrcurveto
          4 -107 2 -59 -107 -101 -2 -102 -100 vvcurveto
          -38 -24 -6 -24 -3 vhcurveto
          -50 -7 -14 -8 -16 vvcurveto
          -16 callsubr
        </CharString>
        <CharString name="Rcommaaccent">
          104 -223 -21 200 44 79 callsubr
          hstemhm
          229 92 -19 -37 callsubr
          200 96 hintmask 1010110101000000
          630 588 62 callsubr
          -13 -17 1 2 -13 vhcurveto
          -93 callsubr
          hintmask 1100110101000000
          -21 5 -10 39 vhcurveto
          211 hlineto
          59 8 16 17 hvcurveto
          hintmask 1001101001000000
          27 -26 3 -25 vhcurveto
          -70 262 10 hlineto
          -24 -427 rmoveto
          hintmask 1100110011000000
          -27 callsubr
          hintmask 1100110101000000
          -100 callsubr
          vhcurveto
          hintmask 1100101001000000
          73 callsubr
        </CharString>
        <CharString name="S">
          60 callsubr
          68 callgsubr
          hintmask 01101100
          123 85 -96 callgsubr
          hintmask 10101010
          -60 callgsubr
          hintmask 10110100
          -91 callsubr
          endchar
        </CharString>
        <CharString name="Sacute">
          60 callsubr
          4 131 115 callsubr
          103 155 59 92 -74 74 hintmask 0111011100000000
          404 98 callgsubr
          -15 19 -26 -38 102 callgsubr
          -281 -851 -96 callgsubr
          hintmask 1011011010000000
          -60 callgsubr
          hintmask 1011101100000000
          -91 callsubr
          endchar
        </CharString>
        <CharString name="Scaron">
          60 callsubr
          -78 213 68 callgsubr
          hintmask 01100110
          123 85 -96 callgsubr
          hintmask 10101001
          -9 2 1 5 -75 vhcurveto
          -33 88 -44 33 -73 3 rrcurveto
          40 20 73 59 35 vvcurveto
          hintmask 10010110
          125 callsubr
          -14 -60 -21 -29 -46 vhcurveto
          29 -46 -59 21 28 callsubr
          -44 80 -61 37 -18 hvcurveto
          -130 -12 -111 -103 -158 vvcurveto
          -153 104 -58 81 -37 vhcurveto
          112 -51 111 -35 -74 vvcurveto
          -49 -50 -43 -84 -105 -76 74 51 -13 vhcurveto
          23 -6 0 61 -45 hhcurveto
          -37 -3 -47 -28 hvcurveto
          -20 2 -36 -27 vvcurveto
          hintmask 10101010
          -38 -4 -54 -12 vvcurveto
          -19 11 -22 30 28 16 19 22 13 0 15 -4 48 vhcurveto
          endchar
        </CharString>
        <CharString name="Schwa">
          66 -11 81 236 86 364 81 hstemhm
          27 98 -84 100 404 96 hintmask 11101100
          532 310 rmoveto
          -105 -20 -49 -135 -139 hhcurveto
          -104 -79 127 73 20 4 13 20 hvcurveto
          377 89 rmoveto
          -51 -160 -2 -45 hhcurveto
          -74 -75 0 -2 -47 hvcurveto
          -34 -1 -15 -48 -49 vvcurveto
          -92 68 -209 202 194 136 179 257 233 -99 179 -227 vhcurveto
          hintmask 11110100
          -156 -132 -120 -158 -19 17 -28 32 34 15 28 19 103 105 94 88 140 87 -174 -143 -13 -2 -18 -1 -16 hvcurveto
          endchar
        </CharString>
        <CharString name="Scircumflex">
          60 callsubr
          -78 213 -142 -20 68 callgsubr
          hintmask 1000110100000000
          429 -18 callgsubr
          hvcurveto
          hintmask 1001010100000000
          106 callsubr
          hintmask 0100101100000000
          17 callgsubr
          -306 -745 rmoveto
          -74 52 79 -27 84 hhcurveto
          106 111 51 114 160 -217 58 -79 35 hvcurveto
          -55 24 -58 43 98 vvcurveto
          hintmask 1010001010000000
          119 85 73 85 92 52 -86 -122 11 vhcurveto
          -26 2 3 -33 41 hhcurveto
          25 15 13 21 hvcurveto
          41 -2 46 36 51 4 58 33 vvcurveto
          16 -2 30 -39 -38 -6 -25 -16 -60 callgsubr
          hintmask 1010010100000000
          -91 callsubr
          endchar
        </CharString>
        <CharString name="T">
          42 0 67 670 84 108 callsubr
          hintmask 11101100
          275 737 rmoveto
          -13 callsubr
          hintmask 11110100
          -20 callsubr
          hintmask 11101100
          21 callsubr
          hintmask 11110100
          -79 670 144 hlineto
          -97 callsubr
        </CharString>
        <CharString name="Tbar">
          42 0 67 326 84 2 -20 21 -20 277 84 hstemhm
          13 88 62 208 -93 214 60 88 hintmask 1100110110000000
          275 737 rmoveto
          -78 2 -96 1 -86 vhcurveto
          hintmask 1010111010000000
          1 -33 -37 1 -12 hhcurveto
          -23 -10 -26 -17 hvcurveto
          hintmask 1100111010000000
          -17 14 -26 19 vhcurveto
          83 hlineto
          -101 -4 -77 -95 vvcurveto
          -43 -31 -4 -35 -3 vhcurveto
          -20 callsubr
          hintmask 1100110110000000
          21 callsubr
          hintmask 1001111010000000
          -79 327 86 hlineto
          29 7 33 12 17 -14 24 -14 hvcurveto
          hintmask 1100111010000000
          -23 -34 -2 -1 -37 hvcurveto
          260 144 vlineto
          -97 callsubr
        </CharString>
        <CharString name="Tcaron">
          42 0 67 670 84 -84 235 -142 -20 108 callsubr
          hintmask 10101101
          438 972 rmoveto
          -14 -60 -20 -30 -46 hvcurveto
          30 -46 -59 20 -14 hhcurveto
          -9 -4 -7 -7 hvcurveto
          hintmask 10011101
          27 callsubr
          vhcurveto
          hintmask 10101011
          125 callsubr
          vhcurveto
          -163 -235 rmoveto
          -13 callsubr
          hintmask 11001101
          -20 callsubr
          hintmask 11001011
          21 callsubr
          hintmask 11001101
          -79 670 144 hlineto
          -97 callsubr
        </CharString>
        <CharString name="Thorn">
          39 0 63 119 82 303 82 110 62 hstemhm
          52 179 -93 217 -217 250 152 96 hintmask 11111001
          111 60 rmoveto
          -39 -20 -9 -20 -23 6 -8 72 hvcurveto
          196 hlineto
          hintmask 11110011
          43 19 7 25 25 -31 6 -29 hvcurveto
          hintmask 11111001
          -97 121 hlineto
          0 43 -2 23 149 190 60 181 166 -129 60 -162 -49 -34 0 -1 -32 vhcurveto
          72 vlineto
          31 15 8 51 vhcurveto
          hintmask 11110101
          34 25 8 25 26 -30 3 -27 hvcurveto
          -33 -119 -2 -46 hhcurveto
          -24 -21 -10 -23 -17 13 -11 19 hvcurveto
          16 hlineto
          24 5 -21 -19 hvcurveto
          -64 6 -143 -116 -147 -1 -1 -143 vvcurveto
          -25 -5 -19 -21 vhcurveto
          192 507 rmoveto
          75 162 -4 -143 -144 -187 -12 -57 hvcurveto
          hintmask 11111001
          -34 -31 2 0 hvcurveto
          294 vlineto
          4 23 24 3 25 hhcurveto
          endchar
        </CharString>
        <CharString name="U">
          -34 callgsubr
          58 callsubr
          hintmask 1011001000000000
          194 729 29 callgsubr
          hintmask 1010011000000000
          -47 callgsubr
          hintmask 1101001000000000
          -68 callgsubr
          hintmask 1100101000000000
          -102 callsubr
          hintmask 1101000010000000
          -63 callsubr
          hintmask 1101001000000000
          -47 callsubr
          hintmask 1101000100000000
          -90 callgsubr
          endchar
        </CharString>
        <CharString name="Uacute">
          -34 callgsubr
          20 131 43 callgsubr
          17 155 -18 -6 callgsubr
          hintmask 1011100101000000
          486 98 callgsubr
          -15 19 -26 -38 102 callgsubr
          -292 -75 callgsubr
        </CharString>
        <CharString name="Ubreve">
          -34 callgsubr
          41 57 -57 109 43 callgsubr
          -31 68 117 68 31 91 -91 202 hintmask 1011010011100000
          194 729 29 callgsubr
          hintmask 1011000101100000
          -47 callgsubr
          hintmask 1101010011100000
          -68 callgsubr
          hintmask 1101001011100000
          -102 callsubr
          hintmask 1100110011010000
          -63 callsubr
          -47 callsubr
          -90 callgsubr
          342 618 -59 callsubr
          hintmask 1101010011100000
          -51 callsubr
          hintmask 1100110011100000
          -89 callgsubr
        </CharString>
        <CharString name="Ucircumflex">
          -34 callgsubr
          9 96 callsubr
          2 192 -90 90 74 46 154 -6 callgsubr
          hintmask 1101110110000000
          520 -15 callgsubr
          14 callsubr
          -326 -101 rmoveto
          hintmask 1010110110000000
          25 41 0 42 27 10 14 22 23 -14 8 -42 vhcurveto
          -219 hlineto
          -68 callgsubr
          hintmask 1101101110000000
          -102 callsubr
          hintmask 1101110100100000
          -63 callsubr
          hintmask 1101110110000000
          -47 callsubr
          hintmask 1101110101000000
          -90 callgsubr
          endchar
        </CharString>
        <CharString name="Udieresis">
          -34 callgsubr
          9 -20 31 131 43 callgsubr
          -75 44 callsubr
          -104 104 -5 91 -91 202 hintmask 1101110011000000
          239 907 rmoveto
          -38 27 -28 32 30 37 15 55 36 -28 25 -32 -48 -18 49 callsubr
          -48 -18 -43 -22 vhcurveto
          -252 -167 rmoveto
          hintmask 1010100101000000
          25 41 0 42 27 10 14 22 23 -14 8 -42 vhcurveto
          -219 hlineto
          hintmask 1101110011000000
          -68 callgsubr
          hintmask 1101101010010000
          -102 callsubr
          hintmask 1101110010001000
          -63 callsubr
          hintmask 1101110010100000
          -47 callsubr
          hintmask 1101110010010000
          -90 callgsubr
          endchar
        </CharString>
        <CharString name="Ugrave">
          -34 callgsubr
          40 111 43 callgsubr
          11 155 -12 -6 callgsubr
          hintmask 1011100101000000
          325 936 rmoveto
          -39 85 -36 35 20 15 15 15 29 -76 52 -38 -26 -15 -19 -17 vhcurveto
          -131 -75 callgsubr
        </CharString>
        <CharString name="Uhungarumlaut">
          -34 callgsubr
          20 131 hstemhm
          2 192 -90 90 46 74 -74 155 28 155 -110 -6 callgsubr
          hintmask 1011100110000000
          395 98 callgsubr
          -15 19 -26 -38 102 callgsubr
          183 hmoveto
          17 -15 19 -27 -37 102 callgsubr
          -384 -207 29 callgsubr
          hintmask 1011101010000000
          -47 callgsubr
          -68 callgsubr
          hintmask 1101011001000000
          -102 callsubr
          hintmask 1101101000010000
          -63 callsubr
          hintmask 1101101001000000
          -47 callsubr
          hintmask 1101101000100000
          -90 callgsubr
          endchar
        </CharString>
        <CharString name="Umacron">
          -34 callgsubr
          64 77 2 -20 21 -20 58 callsubr
          hintmask 1011001001000000
          194 729 29 callgsubr
          hintmask 1011000011000000
          -47 callgsubr
          hintmask 1101001001000000
          -68 callgsubr
          hintmask 1101000101000000
          -102 callsubr
          hintmask 1101001000010000
          -63 callsubr
          hintmask 1101001001000000
          -47 callsubr
          hintmask 1100011000100000
          -90 callgsubr
          354 642 rmoveto
          hintmask 1101001001000000
          -3 callgsubr
          hintmask 1100101001000000
          -34 -68 -50 callgsubr
          hintmask 1101001001000000
          -72 callsubr
          hintmask 1100011001000000
          26 callgsubr
        </CharString>
        <CharString name="Uogonek">
          175 -170 53 -53 77 80 79 634 67 -13 67 hstemhm
          4 22 callsubr
          -19 126 callgsubr
          -20 -6 callgsubr
          hintmask 1011010001010000
          407 -170 rmoveto
          68 callsubr
          hintmask 0111010010100000
          35 callgsubr
          hintmask 1011010010100000
          -40 callsubr
          27 16 40 28 16 hvcurveto
          143 9 97 89 187 73 -2 74 73 62 2 53 63 vvcurveto
          25 27 5 47 vhcurveto
          hintmask 1011010010001000
          -63 callsubr
          hintmask 1011010010100000
          -47 callsubr
          hintmask 1010110010010000
          -90 callgsubr
          406 vlineto
          25 41 0 42 vhcurveto
          hintmask 1010100100100000
          -47 callgsubr
          hintmask 1011010010100000
          -68 callgsubr
          hintmask 1011001010100000
          -90 2 -88 -89 -45 -1 -45 -43 vvcurveto
          -73 2 -88 18 -48 vhcurveto
          33 -89 70 -43 135 -6 rrcurveto
          -24 -13 -42 -27 -42 36 callsubr
          vhcurveto
          endchar
        </CharString>
        <CharString name="Uring">
          -34 callgsubr
          12 139 43 callgsubr
          17 56 42 55 -16 -6 callgsubr
          hintmask 1011100110100000
          484 904 -77 callsubr
          -213 -201 29 callgsubr
          hintmask 1011001110100000
          -47 callgsubr
          hintmask 1101100110100000
          -68 callgsubr
          hintmask 1101010101000000
          -102 callsubr
          hintmask 1101100110010000
          -63 callsubr
          hintmask 1101100101000000
          -47 callsubr
          hintmask 1101100110100000
          -90 callgsubr
          endchar
        </CharString>
        <CharString name="Utilde">
          -34 callgsubr
          41 80 -56 56 -56 84 2 -20 58 callsubr
          hintmask 1011001100100000
          194 729 29 callgsubr
          hintmask 1011001001100000
          -47 callgsubr
          hintmask 1101001100100000
          -68 callgsubr
          hintmask 1101001010100000
          -102 callsubr
          hintmask 1101001100001000
          -63 callsubr
          hintmask 1101001100100000
          -47 callsubr
          hintmask 1100101100010000
          -90 callgsubr
          49 574 -74 callgsubr
          hintmask 1101001100100000
          -101 callsubr
          hintmask 1100010100100000
          -18 callsubr
          hintmask 1101001100100000
          -78 callsubr
        </CharString>
        <CharString name="V">
          80 -17 -21 733 71 -7 62 hstemhm
          -15 204 hintmask 10110000
          344 125 rmoveto
          -2 5 -153 556 45 38 96 -29 54 vvcurveto
          22 -11 5 -27 vhcurveto
          -208 hlineto
          -36 -18 -7 -21 -26 33 -7 22 -1 hvcurveto
          30 -1 17 -6 8 -27 204 -734 rcurveline
          -16 4 15 -13 27 hhcurveto
          32 11 19 10 3 hvcurveto
          41 135 99 367 62 172 9 24 11 11 29 3 10 1 47 4 22 1 rrcurveto
          17 1 20 4 22 vvcurveto
          hintmask 11010000
          26 -9 4 -31 vhcurveto
          -263 hlineto
          -36 -16 -10 -25 -24 12 -11 35 -1 hvcurveto
          38 -1 12 -2 -13 vvcurveto
          -53 -154 -495 -2 -6 vhcurveto
          endchar
        </CharString>
        <CharString name="W">
          20 callsubr
          62 -20 hstem
          -29 220 vstem
          926 661 -107 callgsubr
        </CharString>
        <CharString name="Wacute">
          20 callsubr
          82 131 hstem
          -29 220 302 154 vstem
          647 936 rmoveto
          12 callsubr
          279 -275 -107 callgsubr
        </CharString>
        <CharString name="Wcircumflex">
          20 callsubr
          71 -20 162 -20 hstem
          -29 220 vstem
          705 6 callgsubr
          221 -169 -107 callgsubr
        </CharString>
        <CharString name="Wdieresis">
          20 callsubr
          71 -20 31 131 hstem
          -29 220 238 44 callsubr
          vstem
          429 101 callsubr
          -28 25 -31 -20 callgsubr
          -28 24 -31 -48 117 callsubr
          290 -235 -107 callgsubr
        </CharString>
        <CharString name="Wgrave">
          20 callsubr
          82 131 hstem
          -29 220 328 155 vstem
          519 936 rmoveto
          -39 85 -56 35 -17 callsubr
          407 -275 -107 callgsubr
        </CharString>
        <CharString name="X">
          78 -37 61 -3 -21 821 -20 hstemhm
          -21 232 -210 210 225 243 hintmask 10101100
          211 722 rmoveto
          26 71 -18 42 vvcurveto
          19 -7 8 -24 vhcurveto
          -199 hlineto
          -31 -20 -9 -18 -25 15 -6 34 -3 hvcurveto
          31 -3 27 -5 11 -21 154 -297 rcurveline
          -151 -308 -13 -26 -14 -4 -24 -7 rlinecurve
          -10 -3 -40 -6 -3 -1 rrcurveto
          hintmask 10110100
          -17 -3 -22 -6 -24 vvcurveto
          hintmask 01110100
          -20 14 -4 18 vhcurveto
          236 hlineto
          26 10 7 20 22 -12 6 -23 3 hvcurveto
          -24 3 -20 3 10 23 113 224 3 0 142 -269 -21 -17 -64 15 -42 vvcurveto
          hintmask 10101100
          -13 7 -14 24 vhcurveto
          252 hlineto
          28 16 6 21 23 -16 11 -30 -73 -42 7 28 -15 hvcurveto
          -187 355 160 306 12 23 8 12 29 3 rlinecurve
          10 1 36 -1 28 6 rrcurveto
          15 3 22 8 19 vvcurveto
          21 -10 6 -30 vhcurveto
          -231 hlineto
          -36 -11 -6 -22 -20 16 -7 22 -3 hvcurveto
          26 -4 11 -10 -12 vvcurveto
          -21 -90 -146 -31 -66 vhcurveto
          0 -104 198 20 vvcurveto
          endchar
        </CharString>
        <CharString name="Y">
          63 callsubr
          38 -20 103 callgsubr
          hintmask 11110100
          209 731 -58 callgsubr
          hintmask 11101000
          -42 callsubr
          hintmask 11110010
          -11 callsubr
          hintmask 11101000
          -98 callgsubr
          hintmask 11110100
          17 callsubr
        </CharString>
        <CharString name="Yacute">
          63 callsubr
          65 132 103 callgsubr
          -179 154 hintmask 11110001
          472 935 rmoveto
          18 95 callgsubr
          -73 88 callsubr
          20 34 85 57 38 vhcurveto
          -263 -204 -84 callsubr
          rrcurveto
          hintmask 11110100
          78 -145 13 -36 84 -181 rrcurveto
          -241 vlineto
          -33 -25 -9 -35 -4 vhcurveto
          hintmask 11101000
          -42 callsubr
          hintmask 11110010
          -11 callsubr
          hintmask 11101000
          -98 callgsubr
          hintmask 11110100
          17 callsubr
        </CharString>
        <CharString name="Ycircumflex">
          63 callsubr
          55 -20 162 -20 80 callsubr
          -91 91 -91 203 hintmask 11111001
          479 -15 callgsubr
          14 callsubr
          -270 -99 -58 callgsubr
          hintmask 11110100
          -42 callsubr
          -11 callsubr
          -98 callgsubr
          hintmask 11111010
          17 callsubr
        </CharString>
        <CharString name="Ydieresis">
          63 callsubr
          55 117 callgsubr
          -32 241 -34 126 -12 91 2 126 -111 111 hintmask 1111010100000000
          175 -4 callgsubr
          hintmask 1111101010000000
          -173 -165 -58 callgsubr
          -42 callsubr
          -11 callsubr
          -98 callgsubr
          17 callsubr
        </CharString>
        <CharString name="Ygrave">
          63 callsubr
          66 131 80 callsubr
          -113 155 -133 91 -91 208 hintmask 11110100
          267 936 rmoveto
          -39 85 -56 35 -17 callsubr
          -58 -205 -84 callsubr
          rrcurveto
          hintmask 11110010
          78 -145 13 -36 84 -181 rrcurveto
          -241 vlineto
          -33 -25 -9 -35 -4 vhcurveto
          hintmask 11101000
          -42 callsubr
          hintmask 11110001
          -11 callsubr
          hintmask 11101000
          -98 callgsubr
          hintmask 11110100
          17 callsubr
        </CharString>
        <CharString name="Ytilde">
          63 callsubr
          87 80 -56 56 -56 84 2 -20 103 callgsubr
          hintmask 1110011010000000
          209 731 -58 callgsubr
          hintmask 1110010100000000
          -42 callsubr
          hintmask 1110011001000000
          -11 callsubr
          hintmask 1110010100000000
          -98 callgsubr
          hintmask 1101011010000000
          -30 63 -100 205 23 vvcurveto
          -34 166 -74 callgsubr
          hintmask 1110011010000000
          -101 callsubr
          hintmask 1100101010000000
          -18 callsubr
          hintmask 1110011010000000
          -78 callsubr
        </CharString>
        <CharString name="Z">
          61 callsubr
          hstemhm
          49 83 407 82 hintmask 10111000
          621 273 -94 callsubr
          hintmask 01111000
          77 117 1 77 hhcurveto
          hintmask 10111000
          59 callgsubr
        </CharString>
        <CharString name="Zacute">
          61 callsubr
          20 131 hstemhm
          49 83 141 155 111 82 hintmask 10111110
          428 98 callgsubr
          -15 19 -26 -38 -76 35 callsubr
          20 35 85 56 39 vhcurveto
          193 -663 -94 callsubr
          hintmask 01111110
          77 117 1 77 hhcurveto
          hintmask 10111110
          59 callgsubr
        </CharString>
        <CharString name="Zcaron">
          61 callsubr
          -84 235 119 callgsubr
          49 83 407 82 hintmask 10010110
          461 19 callsubr
          -9 -4 -7 -7 hvcurveto
          hintmask 10001110
          27 callsubr
          vhcurveto
          hintmask 10010110
          125 callsubr
          vhcurveto
          160 -699 rmoveto
          23 -8 21 -32 -38 -4 -29 -20 -30 -5 -81 -5 -40 vhcurveto
          -25 -3 -14 -9 -43 hhcurveto
          -282 hlineto
          -16 -4 2 8 10 300 455 110 180 hvcurveto
          4 7 30 49 13 vvcurveto
          hintmask 10100110
          12 -7 2 -15 vhcurveto
          -68 -96 -2 -68 -68 -67 2 -68 hhcurveto
          -91 -14 -7 -34 hvcurveto
          -30 1 -30 -30 -30 -1 -23 -30 vvcurveto
          -20 8 -32 38 30 7 22 49 vhcurveto
          19 1 35 14 vvcurveto
          32 4 11 38 vhcurveto
          244 hlineto
          45 3 -3 -13 -28 -392 -578 -37 -54 hvcurveto
          -15 -22 -4 -9 -11 vvcurveto
          -16 10 -3 43 vhcurveto
          hintmask 01100110
          77 117 1 77 hhcurveto
          hintmask 10100110
          59 callgsubr
        </CharString>
        <CharString name="Zdotaccent">
          61 callsubr
          19 131 hstemhm
          49 83 160 126 121 82 hintmask 10111110
          621 273 -94 callsubr
          hintmask 01111110
          77 117 1 77 hhcurveto
          hintmask 10111110
          -14 callsubr
          -329 633 rmoveto
          -43 26 -23 -96 callsubr
          -38 -27 vhcurveto
          endchar
        </CharString>
        <CharString name="a">
          -55 callsubr
          100 callsubr
          hintmask 1011010010000000
          333 203 -97 callgsubr
          hintmask 0111001100000000
          -103 callgsubr
          hintmask 1010110010000000
          -98 callsubr
          endchar
        </CharString>
        <CharString name="a.salt">
          -89 -11 76 -76 115 69 76 24 202 -76 76 -76 92 hstemhm
          25 91 -61 83 197 84 -84 196 hintmask 1011001001000000
          334 232 rmoveto
          11 -28 -42 6 -25 hhcurveto
          -141 -73 -60 -83 -70 65 -47 138 42 44 5 35 22 hvcurveto
          -26 20 26 -14 61 hhcurveto
          56 32 19 64 hvcurveto
          hintmask 0111001010000000
          7 -8 25 -29 -29 -8 -21 -7 vhcurveto
          hintmask 1011000110000000
          -7 -3 -4 -10 -7 -18 11 41 vhcurveto
          54 3 80 36 vvcurveto
          129 -47 59 -105 -54 -51 -17 -46 -31 vhcurveto
          1 8 3 16 12 vvcurveto
          hintmask 1010010110000000
          15 -9 28 -31 -37 -6 -28 -14 vhcurveto
          -79 1 -42 -15 vvcurveto
          hintmask 1011000110000000
          -11 4 -29 44 28 6 21 18 vhcurveto
          hintmask 1010101010000000
          52 27 35 74 52 44 -43 -69 -26 -1 -29 0 vhcurveto
          -218 -125 rmoveto
          38 40 28 76 46 56 -25 -31 -27 -32 -25 -70 -67 -49 11 31 vhcurveto
          endchar
        </CharString>
        <CharString name="aacute">
          -55 callsubr
          21 188 118 callsubr
          77 207 97 callsubr
          hintmask 1011011001000000
          355 626 rmoveto
          -101 callgsubr
          -22 -423 -97 callgsubr
          hintmask 0111010110000000
          -103 callgsubr
          -5 callsubr
          hintmask 1010111001000000
          25 49 23 53 82 23 -54 -82 vhcurveto
          -217 -151 rmoveto
          33 27 33 75 66 45 -26 -28 -24 -33 -41 -90 -62 -28 19 34 vhcurveto
          endchar
        </CharString>
        <CharString name="abreve">
          -55 callsubr
          45 57 -57 109 44 callgsubr
          -51 68 159 97 callsubr
          hintmask 1011010100010000
          333 203 -97 callgsubr
          hintmask 0111010010100000
          -103 callgsubr
          hintmask 1010101100010000
          -98 callsubr
          243 479 -59 callsubr
          hintmask 1011010001100000
          -51 callsubr
          hintmask 1011001001100000
          -89 callgsubr
        </CharString>
        <CharString name="acircumflex">
          -55 callsubr
          199 -20 100 callsubr
          hintmask 1011011001000000
          333 203 -97 callgsubr
          hintmask 0111010110000000
          -103 callgsubr
          hintmask 1010111001000000
          -98 callsubr
          234 400 -32 callgsubr
        </CharString>
        <CharString name="acute">
          -457 499 191 hstem
          5 152 vstem
          157 658 rmoveto
          5 callgsubr
          endchar
        </CharString>
        <CharString name="adieresis">
          -55 callsubr
          21 3 callgsubr
          24 102 -77 108 -84 44 callsubr
          -73 97 callsubr
          hintmask 1011010100001000
          333 203 -97 callgsubr
          hintmask 0111010010010000
          -103 callgsubr
          hintmask 1010110100001000
          -98 callsubr
          hintmask 1011001001100000
          -43 465 rmoveto
          -38 26 -28 -96 callsubr
          116 callgsubr
          -23 rmoveto
          hintmask 1011010100100000
          -38 26 -28 -96 callsubr
          -43 -22 vhcurveto
          endchar
        </CharString>
        <CharString name="ae">
          47 callgsubr
          hstemhm
          26 92 -62 90 -90 131 147 95 hintmask 1001000110010000
          431 235 11 callgsubr
          hintmask 1010100000110000
          27 callgsubr
          hintmask 1010010001010000
          -6 2 -14 1 12 vvcurveto
          46 callsubr
          hintmask 1010100010010000
          18 callgsubr
          hintmask 0101010010010000
          121 callgsubr
          hintmask 1010001010010000
          -26 callgsubr
        </CharString>
        <CharString name="aeacute">
          47 callgsubr
          9 188 hstemhm
          26 92 -62 90 188 95 hintmask 1001000111010000
          486 626 rmoveto
          -101 callgsubr
          -55 -391 11 callgsubr
          hintmask 1010100010110000
          27 callgsubr
          -6 2 -14 1 12 vvcurveto
          hintmask 1010010011010000
          46 callsubr
          18 callgsubr
          hintmask 0101010011010000
          121 callgsubr
          hintmask 1010001011010000
          -26 callgsubr
        </CharString>
        <CharString name="agrave">
          -55 callsubr
          21 188 100 callsubr
          hintmask 1011011001000000
          160 626 -72 callgsubr
          173 -423 -97 callgsubr
          hintmask 0111010110000000
          -103 callgsubr
          hintmask 1010111001000000
          -98 callsubr
          endchar
        </CharString>
        <CharString name="amacron">
          -55 callsubr
          74 77 2 -20 21 -20 100 callsubr
          hintmask 1011010010010000
          333 203 -97 callgsubr
          hintmask 0111010001100000
          -103 callgsubr
          hintmask 1010100110010000
          -98 callsubr
          253 509 rmoveto
          hintmask 1011010010100000
          -3 callgsubr
          hintmask 1011001010100000
          -34 -68 -50 callgsubr
          hintmask 1011010010100000
          -72 callsubr
          hintmask 1011000110100000
          26 callgsubr
        </CharString>
        <CharString name="ampersand">
          148 -9 54 -54 79 -68 -21 360 119 299 79 hstemhm
          26 96 11 96 132 95 -50 180 -74 74 hintmask 1001111101000000
          446 341 rmoveto
          14 17 11 18 19 3 9 10 10 12 -14 -46 -53 -15 -41 -21 -44 hvcurveto
          -56 81 -67 86 -45 93 rrcurveto
          61 59 87 85 111 vvcurveto
          99 -72 24 -63 -102 -86 -60 -103 -62 31 -72 37 -72 vhcurveto
          -37 -19 -138 -110 -152 vvcurveto
          -154 146 -43 100 74 60 21 67 69 vhcurveto
          hintmask 0011111101000000
          -55 46 28 -43 34 hhcurveto
          188 15 6 26 hvcurveto
          hintmask 1001111010000000
          23 -21 6 -76 3 vhcurveto
          -44 2 -33 0 -11 3 -10 3 -21 24 -46 63 rrcurveto
          29 55 33 62 90 vvcurveto
          103 -57 10 -41 -67 -15 -41 -26 -36 20 -16 20 vhcurveto
          -208 61 rmoveto
          73 -126 40 -68 64 -78 rrcurveto
          hintmask 0101111101000000
          -25 -24 -40 -35 -78 hhcurveto
          -51 -100 14 112 88 59 61 57 57 hvcurveto
          123 299 rmoveto
          -70 -86 -77 -13 -16 vhcurveto
          -19 48 -14 45 42 vvcurveto
          54 22 32 54 49 7 -27 -31 vhcurveto
          endchar
        </CharString>
        <CharString name="aogonek">
          -162 53 -53 77 74 68 119 62 27 200 -68 68 44 callgsubr
          162 126 callgsubr
          -179 97 callsubr
          hintmask 1011101001000000
          429 -162 rmoveto
          68 callsubr
          hintmask 0111101010000000
          35 callgsubr
          hintmask 1011101010000000
          -40 callsubr
          25 14 37 25 17 hvcurveto
          hintmask 1011101000010000
          36 8 25 25 45 vvcurveto
          31 -12 8 -20 -27 -1 -14 -15 -1 vhcurveto
          -6 -2 -6 -7 -9 0 8 49 vhcurveto
          hintmask 1011100100100000
          39 4 73 33 vvcurveto
          125 -59 71 -128 -113 -74 -55 -75 -31 13 -39 46 22 27 9 29 14 -6 12 -14 6 vhcurveto
          hintmask 1011011000100000
          -5 callsubr
          25 49 23 53 82 23 -54 -82 vhcurveto
          -58 vlineto
          25 -41 -40 10 -48 hhcurveto
          -113 -67 -56 -76 -71 60 -46 93 62 54 21 38 42 hvcurveto
          9 -32 18 -16 21 -6 rrcurveto
          hintmask 1011101010000000
          -25 -13 -39 -27 -41 36 callsubr
          vhcurveto
          -313 272 rmoveto
          33 27 33 75 66 45 -26 -28 -24 -33 -41 -90 -62 -28 19 34 vhcurveto
          endchar
        </CharString>
        <CharString name="apostrophe">
          -284 642 209 hstem
          116 96 vstem
          163 851 56 callsubr
          endchar
        </CharString>
        <CharString name="aring">
          -55 callsubr
          45 139 44 callgsubr
          8 56 42 55 15 97 callsubr
          hintmask 1011011011010000
          333 203 -97 callgsubr
          hintmask 0111010111100000
          -103 callgsubr
          hintmask 1010111011010000
          -98 callsubr
          202 471 -77 callsubr
          endchar
        </CharString>
        <CharString name="aringacute">
          -55 callsubr
          45 139 23 154 44 callgsubr
          8 56 -56 171 -73 55 15 97 callsubr
          hintmask 1011011100100000
          336 778 rmoveto
          26 -9 22 -44 -51 -61 -126 -6 -15 22 -7 15 36 92 72 34 vhcurveto
          hintmask 1011011101010100
          -3 -575 -97 callgsubr
          hintmask 0111011011011000
          -103 callgsubr
          hintmask 1010111101010100
          -98 callsubr
          202 471 -77 callsubr
          endchar
        </CharString>
        <CharString name="asciicircum">
          -296 531 113 callsubr
          510 -32 callgsubr
        </CharString>
        <CharString name="asciitilde">
          -170 499 80 -60 -21 25 -19 callgsubr
          hintmask 01101000
          47 534 -74 callgsubr
          hintmask 10001000
          -101 callsubr
          hintmask 01010000
          -18 callsubr
          hintmask 10001000
          -78 callsubr
        </CharString>
        <CharString name="asterisk">
          -217 542 172 -59 59 -59 177 hstemhm
          85 218 -218 233 hintmask 00110000
          273 832 rmoveto
          -25 -18 -50 -51 -33 hvcurveto
          68 -45 -13 33 -24 hhcurveto
          -18 -12 -11 -20 -19 20 -15 53 -57 hvcurveto
          hintmask 01001000
          4 -43 -17 0 -32 hhcurveto
          -28 -14 -18 -13 -24 26 -4 16 29 25 0 1 38 hvcurveto
          -28 -19 -45 -42 -25 vvcurveto
          hintmask 10001000
          -18 10 -10 23 26 48 84 10 4 vhcurveto
          -9 7 60 -85 25 hhcurveto
          15 15 6 20 38 -76 45 -4 5 hvcurveto
          hintmask 00110000
          -1 11 59 0 34 hhcurveto
          14 15 12 20 15 -14 13 -16 -27 -47 -1 -4 -27 hvcurveto
          1 15 62 51 25 vvcurveto
          14 -7 17 -23 vhcurveto
          endchar
        </CharString>
        <CharString name="at">
          93 -84 80 53 78 194 78 -78 90 48 82 hstemhm
          40 87 41 93 -93 200 51 85 77 84 hintmask 1101111011000000
          581 236 rmoveto
          -76 -39 -27 -12 -15 -9 1 40 -2 vhcurveto
          -1 23 0 19 21 51 2 36 52 vvcurveto
          15 -14 20 -28 -24 -20 -12 -19 -8 1 -2 1 -10 vhcurveto
          hintmask 1110110111000000
          32 -21 -37 7 -28 hhcurveto
          -96 -71 -81 -103 -92 62 -74 91 49 34 22 26 21 hvcurveto
          -20 8 18 -23 45 hhcurveto
          89 80 49 134 hvcurveto
          164 -1 -113 140 -207 hhcurveto
          -176 -128 -132 -182 -184 131 -127 150 24 23 7 29 29 -16 15 -30 -109 -86 94 137 136 87 96 131 161 75 -101 -122 hvcurveto
          -162 -13 rmoveto
          -30 -20 -66 -73 vhcurveto
          hintmask 1110111011000000
          -40 -25 31 58 65 33 40 39 58 28 -40 -50 hvcurveto
          endchar
        </CharString>
        <CharString name="atilde">
          -55 callsubr
          34 80 -56 56 -56 84 2 -20 100 callsubr
          hintmask 1011010011001000
          333 203 -97 callgsubr
          hintmask 0111010010110000
          -103 callgsubr
          hintmask 1010101011001000
          -98 callsubr
          -49 424 -74 callgsubr
          hintmask 1011010011010000
          -101 callsubr
          hintmask 1011000101010000
          -18 callsubr
          hintmask 1011010011010000
          -78 callsubr
        </CharString>
        <CharString name="b">
          -79 -9 79 -61 -21 388 82 297 63 hstemhm
          -53 207 -91 91 256 94 hintmask 10111010
          154 782 rmoveto
          34 -14 2 -12 vhcurveto
          -90 hlineto
          -85 -6 -16 -19 -19 24 -9 22 hvcurveto
          24 hlineto
          29 16 -9 -18 hvcurveto
          hintmask 01110110
          -35 1 -102 -93 vvcurveto
          -301 -8 -42 -1 -131 vhcurveto
          -24 20 -12 23 45 0 12 64 4 vhcurveto
          hintmask 10111010
          -36 22 35 -37 72 callgsubr
          -41 -78 -37 hvcurveto
          6 -120 rmoveto
          28 22 129 123 55 50 -34 -117 -121 -79 -34 -51 -63 -57 36 113 vhcurveto
          endchar
        </CharString>
        <CharString name="backslash">
          -63 2 -21 857 -20 hstem
          525 24 rmoveto
          -66 127 -20 35 -129 237 -116 213 30 -54 -95 192 rrcurveto
          52 -26 -10 12 -28 hhcurveto
          -28 -17 -15 -16 -10 9 -21 5 -8 hvcurveto
          405 -763 rlineto
          -14 7 17 -10 27 hhcurveto
          14 23 12 21 2 -1 6 -1 2 hvcurveto
          endchar
        </CharString>
        <CharString name="bar">
          -354 -140 -21 1017 -20 hstem
          83 90 vstem
          174 802 rmoveto
          22 -12 32 -33 -13 -33 -7 -31 vhcurveto
          -147 1 -177 -146 -147 -1 -186 -146 vvcurveto
          -18 20 -12 25 34 11 7 26 vhcurveto
          143 -1 184 143 143 2 173 144 vvcurveto
          endchar
        </CharString>
        <CharString name="braceleft">
          -262 -58 63 343 52 435 -20 23 -20 hstemhm
          118 93 -93 222 hintmask 11011000
          211 201 rmoveto
          0 -1 173 -111 111 1 205 0 vhcurveto
          170 vlineto
          12 4 12 49 5 vhcurveto
          41 5 rlineto
          hintmask 11010100
          9 1 26 4 22 vvcurveto
          26 -25 2 -11 vhcurveto
          hintmask 11101000
          -27 -60 -3 -20 hhcurveto
          -70 -10 -60 -28 hvcurveto
          -77 1 -55 -35 vvcurveto
          -180 -66 0 -15 -25 -17 -8 -18 -18 13 -8 23 15 74 -9 -139 vhcurveto
          -168 vlineto
          -79 26 -11 42 vhcurveto
          57 hlineto
          61 32 10 17 31 -50 5 -31 -41 -5 9 45 hvcurveto
          endchar
        </CharString>
        <CharString name="braceright">
          -262 -37 -21 438 52 343 63 hstemhm
          9 222 -93 93 hintmask 11101000
          138 579 rmoveto
          0 1 -173 111 -111 -1 -205 0 vhcurveto
          -170 vlineto
          -12 -4 -12 -49 -5 vhcurveto
          -41 -5 rlineto
          hintmask 11110000
          -9 -1 -26 -4 -22 vvcurveto
          -26 25 -2 11 vhcurveto
          27 60 3 20 hhcurveto
          70 10 60 28 hvcurveto
          77 -1 55 35 vvcurveto
          180 66 0 15 25 17 8 18 18 -13 8 -23 -15 -74 9 139 vhcurveto
          168 vlineto
          79 -26 11 -42 vhcurveto
          -57 hlineto
          -61 -32 -10 -17 -31 50 -5 31 hvcurveto
          hintmask 11101000
          41 5 -9 -45 hvcurveto
          endchar
        </CharString>
        <CharString name="bracketleft">
          -277 -58 63 833 -20 hstemhm
          86 90 -90 237 hintmask 11010000
          103 835 rmoveto
          -10 -1 -11 -18 -16 vvcurveto
          4 -209 0 -16 -209 vvcurveto
          -115 0 -209 -1 -65 vhcurveto
          -28 7 -7 12 vhcurveto
          126 hlineto
          46 47 4 27 24 -26 8 -55 hvcurveto
          hintmask 11100000
          -42 -24 0 17 hvcurveto
          722 vlineto
          9 4 20 17 1 vhcurveto
          93 8 rlineto
          20 2 15 4 22 vvcurveto
          23 -22 5 -14 -24 -98 0 -3 -64 vhcurveto
          endchar
        </CharString>
        <CharString name="bracketright">
          -277 -58 63 833 -20 hstemhm
          9 239 -90 90 hintmask 11100000
          231 835 rmoveto
          3 -64 -98 0 -24 hhcurveto
          -14 -22 -5 -23 -22 15 -4 20 -2 hvcurveto
          93 -8 rlineto
          hintmask 11010000
          17 -1 4 -20 -9 vvcurveto
          -722 vlineto
          -17 -24 0 -42 -55 -26 -8 -24 -27 47 -4 46 vhcurveto
          126 hlineto
          12 7 7 28 hvcurveto
          -1 65 0 209 115 vvcurveto
          209 0 16 4 209 vhcurveto
          16 -11 18 -10 1 vhcurveto
          endchar
        </CharString>
        <CharString name="breve">
          -362 510 54 callgsubr
          -19 68 hintmask 01100000
          234 589 -59 callsubr
          hintmask 10100000
          -51 callsubr
          hintmask 01100000
          -89 callgsubr
        </CharString>
        <CharString name="brokenbar">
          -356 -141 -21 1018 -20 hstem
          83 91 vstem
          174 817 rmoveto
          13 -16 26 -30 -14 -31 -17 -16 vhcurveto
          -69 1 -75 -69 -68 -1 -74 -68 vvcurveto
          -15 20 -5 24 27 20 7 17 vhcurveto
          67 -2 70 67 66 2 76 67 vvcurveto
          -2 -525 rmoveto
          8 -12 14 -32 -14 -31 -4 -15 vhcurveto
          -69 1 -73 -69 -68 -1 -73 -68 vvcurveto
          -26 20 -11 24 27 18 7 32 vhcurveto
          67 -2 71 67 66 2 77 67 vvcurveto
          endchar
        </CharString>
        <CharString name="bullet">
          -295 258 201 hstem
          63 191 vstem
          254 360 rmoveto
          53 -32 46 -61 -58 -40 -43 -58 -59 43 -41 50 46 52 34 68 vhcurveto
          endchar
        </CharString>
        <CharString name="c">
          -107 -16 callgsubr
          hstemhm
          26 98 256 81 hintmask 01010110
          382 428 rmoveto
          -82 callsubr
          hintmask 10001110
          -55 callgsubr
          hintmask 10100110
          -45 callsubr
          hintmask 10001110
          -29 callsubr
          endchar
        </CharString>
        <CharString name="c.salt">
          -111 -6 77 -77 157 131 200 -76 76 hstemhm
          26 102 184 146 -122 122 hintmask 10011010
          417 128 rmoveto
          -37 -44 -48 -20 -55 hhcurveto
          -107 -35 62 91 110 48 72 114 43 3 -13 -9 hvcurveto
          hintmask 01101100
          -17 -24 -2 -30 vvcurveto
          -22 12 -31 47 71 16 52 31 70 -90 47 -100 -146 -96 -113 -142 -130 71 -103 166 103 50 34 64 68 vhcurveto
          6 6 3 10 10 vvcurveto
          19 -11 14 -22 -16 -10 -8 -15 -17 vhcurveto
          endchar
        </CharString>
        <CharString name="c_h">
          350 -93 61 26 80 -80 162 -135 -21 351 77 -24 78 207 80 callgsubr
          -22 187 -91 91 -91 166 20 211 -91 155 hintmask 1100101101001000
          912 293 rmoveto
          43 -6 -30 92 -144 hhcurveto
          -52 -40 -10 -43 -30 hvcurveto
          291 vlineto
          17 -9 84 -120 vhcurveto
          hintmask 1010011110101000
          -81 -45 -39 -113 -67 14 -66 11 -40 hvcurveto
          3 -11 4 -11 -1 vvcurveto
          49 -33 -46 14 -47 hhcurveto
          -136 -99 -114 -142 -130 84 -102 138 15 callsubr
          7 -4 20 -29 -35 -13 -22 -6 -3 vhcurveto
          hintmask 1100011110011000
          46 callgsubr
          -36 11 22 -3 19 102 callsubr
          72 20 8 16 16 22 -8 -47 vhcurveto
          -52 1 -168 -8 vvcurveto
          -61 -5 -182 -2 -59 vhcurveto
          -1 -30 -6 -6 -19 -4 rrcurveto
          hintmask 1001101101001000
          -54 -10 -10 -9 -21 vvcurveto
          -21 11 -3 21 vhcurveto
          20 28 3 29 31 47 -3 38 hhcurveto
          hintmask 1001101110010100
          17 20 9 21 28 -36 6 -23 hvcurveto
          -22 129 hlineto
          73 27 85 98 76 12 -52 -11 2 vhcurveto
          5 -31 1 -71 -49 vvcurveto
          -48 -1 -64 -2 -25 vhcurveto
          -2 -25 -10 -4 -23 -2 rrcurveto
          hintmask 1100101110101000
          -40 -4 -42 -4 -27 vvcurveto
          -21 26 -6 24 vhcurveto
          16 42 3 27 28 49 -3 14 hhcurveto
          hintmask 1100101110100100
          25 24 6 23 27 -23 5 -24 hvcurveto
          hintmask 1100101110101000
          -17 208 hlineto
          36 0 54 -4 27 vhcurveto
          endchar
        </CharString>
        <CharString name="c_k">
          332 -58 61 -9 59 -59 80 -80 162 -139 -21 408 78 207 80 callgsubr
          7 158 -91 174 -35 243 hintmask 0001011111010000
          248 -6 rmoveto
          15 callsubr
          7 -3 20 -30 -35 -13 -22 -6 -3 vhcurveto
          hintmask 0010011110100000
          46 callgsubr
          -33 10 19 -6 23 102 callsubr
          71 18 9 19 18 18 -11 -45 1 vhcurveto
          2 -132 0 -50 -95 -99 -4 -50 -120 vvcurveto
          -20 -17 -7 -28 -5 vhcurveto
          hintmask 0100011111010000
          -11 -2 -9 -4 -25 vvcurveto
          -27 28 -3 21 vhcurveto
          hintmask 0000111111010000
          19 38 2 12 hhcurveto
          hintmask 0100011110100000
          62 -10 -2 45 hhcurveto
          11 15 5 23 21 -10 10 -32 hvcurveto
          hintmask 0100011111010000
          -41 132 hlineto
          19 20 rlineto
          hintmask 1000011111010000
          -54 29 99 -209 35 hhcurveto
          163 11 5 24 29 -49 2 -31 1 hvcurveto
          -26 1 -18 1 -4 4 -4 4 -90 117 -54 126 39 36 32 32 28 30 5 6 13 6 13 1 rrcurveto
          78 7 3 10 16 vvcurveto
          25 -14 7 -147 -50 -32 -12 -27 -10 9 -9 7 vhcurveto
          7 hlineto
          6 8 -1 -3 -1 hvcurveto
          -2 -8 -16 -14 -66 -66 rrcurveto
          384 vlineto
          16 -9 85 -125 -74 -47 -39 -114 -70 15 -61 9 -36 vhcurveto
          4 -16 3 -9 -1 vvcurveto
          47 -33 -46 14 -46 hhcurveto
          -136 -99 -114 -142 hvcurveto
          hintmask 0001011111010000
          -130 84 -102 138 vhcurveto
          endchar
        </CharString>
        <CharString name="c_p">
          381 -202 57 134 85 -85 167 -141 -21 286 191 -79 79 -67 67 11 -20 152 80 callgsubr
          -42 207 -90 90 -90 163 186 95 hintmask 1001100011101010
          248 -6 rmoveto
          15 callsubr
          hintmask 1010100011101010
          7 -5 20 -28 -35 -13 -22 -6 -3 vhcurveto
          hintmask 1100001011101010
          -12 -7 -23 -42 -83 hhcurveto
          -98 -40 59 91 107 58 73 81 71 31 -59 -26 12 hvcurveto
          hintmask 1100100011100110
          -26 12 7 -13 31 hhcurveto
          43 7 27 13 hvcurveto
          31 -30 126 65 vvcurveto
          62 26 10 15 15 19 -13 -43 vhcurveto
          -84 2 -335 -10 vvcurveto
          -31 0 -93 -3 -91 vhcurveto
          -1 -36 -12 -22 -49 -1 rrcurveto
          hintmask 1100100011010010
          -33 -1 -21 -7 -24 vvcurveto
          -21 13 -4 13 vhcurveto
          225 hlineto
          hintmask 1100100011100110
          13 16 8 18 24 -26 10 -33 hvcurveto
          hintmask 1100010011010010
          -14 162 hlineto
          -17 14 47 -14 61 hhcurveto
          120 112 68 168 109 -48 137 -171 -69 -35 -20 -23 -31 hvcurveto
          139 vlineto
          64 -7 61 -118 vhcurveto
          hintmask 1001000111101010
          -78 -52 -39 -94 -58 21 -49 1 -16 hvcurveto
          45 callsubr
          485 73 rmoveto
          -77 -47 62 94 hvcurveto
          hintmask 1100010011101010
          100 50 69 74 81 55 -69 -101 -89 -56 -66 -80 vhcurveto
          endchar
        </CharString>
        <CharString name="c_t">
          171 -6 80 -80 165 -149 -21 291 202 -78 78 132 80 callgsubr
          72 91 hintmask 0101011110000000
          248 -6 rmoveto
          15 callsubr
          7 -6 23 -31 -33 -16 -25 -6 -3 vhcurveto
          hintmask 1000111110000000
          -13 -6 -20 -41 -82 hhcurveto
          -98 -40 59 91 107 58 73 79 73 33 -62 -23 10 hvcurveto
          hintmask 0011011110000000
          -28 12 9 -11 31 hhcurveto
          41 7 27 13 hvcurveto
          31 -30 126 64 vvcurveto
          63 26 10 13 13 20 -4 -37 vhcurveto
          -135 -2 -136 -137 vvcurveto
          -36 2 -60 26 -39 vhcurveto
          -27 18 31 -14 47 hhcurveto
          93 37 90 38 14 -16 22 -21 -35 -9 -30 -21 -7 hvcurveto
          -12 -4 -1 -23 -30 hhcurveto
          -26 -12 10 75 hvcurveto
          hintmask 0100111110000000
          252 vlineto
          44 3 45 -2 40 7 rrcurveto
          12 2 22 10 25 vvcurveto
          28 -27 11 -16 vhcurveto
          -14 -84 -4 -17 hhcurveto
          0 -1 63 27 vvcurveto
          62 -50 56 -79 -71 -57 -35 -98 -58 14 -31 8 -34 vhcurveto
          45 callsubr
          endchar
        </CharString>
        <CharString name="cacute">
          -107 -16 callgsubr
          -9 188 hstemhm
          26 98 256 81 hintmask 01010111
          400 642 rmoveto
          -101 callgsubr
          -18 -214 rmoveto
          -82 callsubr
          hintmask 10001011
          -55 callgsubr
          hintmask 10100111
          -45 callsubr
          hintmask 10001011
          -29 callsubr
          endchar
        </CharString>
        <CharString name="caron">
          -296 507 113 callsubr
          -89 callsubr
          endchar
        </CharString>
        <CharString name="ccaron">
          -112 -16 callgsubr
          -107 236 hstemhm
          26 98 256 81 hintmask 10000111
          402 -89 callsubr
          -20 -212 rmoveto
          hintmask 01010011
          -82 callsubr
          hintmask 10001011
          -55 callgsubr
          hintmask 10100011
          -45 callsubr
          hintmask 10001011
          -29 callsubr
          endchar
        </CharString>
        <CharString name="ccedilla">
          -107 -181 50 10 81 -53 53 35 78 -78 166 121 200 -78 78 -78 107 hstemhm
          26 98 110 208 -88 88 -62 81 hintmask 1101001011000000
          382 428 rmoveto
          45 -29 -49 9 -40 hhcurveto
          -145 -93 -120 -131 -117 74 -94 116 -21 hvcurveto
          -2 -17 -3 -30 87 callgsubr
          hintmask 1011010010100000
          25 callgsubr
          hintmask 1100110011000000
          -9 callsubr
          11 64 104 8 56 55 21 42 rlinecurve
          6 11 2 13 6 vvcurveto
          16 -13 15 -22 -22 -15 -16 -17 -14 vhcurveto
          hintmask 1101000111000000
          -55 callgsubr
          hintmask 1101010010010000
          -45 callsubr
          hintmask 1101000110010000
          -29 callsubr
          endchar
        </CharString>
        <CharString name="ccircumflex">
          -112 -16 callgsubr
          153 -20 hstemhm
          26 98 256 26 -26 81 hintmask 0101011100000000
          393 510 rmoveto
          9 4 11 10 42 -110 91 -23 -18 -114 -88 -52 -7 5 -7 8 14 59 39 23 46 hvcurveto
          -23 46 60 -39 14 hhcurveto
          -11 -82 rmoveto
          -82 callsubr
          hintmask 1000111100000000
          -55 callgsubr
          hintmask 1010011010000000
          -45 callsubr
          hintmask 1000111100000000
          -29 callsubr
          endchar
        </CharString>
        <CharString name="cdotaccent">
          -107 -16 callgsubr
          3 131 hstemhm
          26 98 93 126 37 81 hintmask 0101011110000000
          382 428 rmoveto
          -82 callsubr
          hintmask 1000111110000000
          -55 callgsubr
          hintmask 1010011110000000
          -45 callsubr
          hintmask 1000111110000000
          -29 callsubr
          -165 152 rmoveto
          -43 26 -23 -96 callsubr
          -38 -27 vhcurveto
          endchar
        </CharString>
        <CharString name="cedilla">
          -383 -181 50 10 81 -53 53 -53 100 hstemhm
          0 208 -88 88 hintmask 10011000
          -16 7 rmoveto
          -2 -12 -4 -38 -6 -28 rrcurveto
          -1 -5 -2 -8 -4 vvcurveto
          hintmask 11001000
          -15 8 -18 30 vhcurveto
          hintmask 10100100
          25 callgsubr
          hintmask 11001000
          -9 callsubr
          13 72 rlineto
          hintmask 10011000
          -19 4 rlineto
          endchar
        </CharString>
        <CharString name="cent">
          -107 38 -21 807 -20 hstemhm
          31 102 91 85 9 146 -123 123 hintmask 11111000
          271 17 rmoveto
          33 13 22 16 24 0 11 1 65 hvcurveto
          51 9 38 26 57 60 rrcurveto
          6 6 2 11 10 vvcurveto
          18 -12 15 -20 -14 -10 -5 -18 -19 vhcurveto
          -30 -29 -29 -17 -29 -10 rrcurveto
          333 vlineto
          hintmask 11110100
          25 -3 7 -5 -12 vvcurveto
          hintmask 11111000
          -17 -23 -2 -30 vvcurveto
          -23 11 -31 48 66 21 52 32 59 -67 44 -81 11 vhcurveto
          1 41 0 43 47 vvcurveto
          22 -13 32 -32 -13 -35 -8 -30 vhcurveto
          -54 1 -48 -47 vvcurveto
          -120 -21 -74 -104 -126 vvcurveto
          -118 56 -96 137 -18 vhcurveto
          -100 vlineto
          -18 19 -19 28 vhcurveto
          -138 366 rmoveto
          84 25 63 67 26 vhcurveto
          -238 0 -44 -1 -41 vhcurveto
          -72 18 -19 57 75 vvcurveto
          endchar
        </CharString>
        <CharString name="circumflex">
          -296 531 113 callsubr
          510 -32 callgsubr
        </CharString>
        <CharString name="colon">
          -363 -27 126 178 126 hstem
          55 138 vstem
          55 35 rmoveto
          -44 callsubr
          304 vmoveto
          -29 19 -33 49 46 24 31 33 29 -21 33 -47 -51 -19 -38 -26 vhcurveto
          endchar
        </CharString>
        <CharString name="comma">
          -398 -85 -21 200 -20 hstemhm
          42 -37 callsubr
          hintmask 11100000
          42 36 rmoveto
          hintmask 11001000
          -27 callsubr
          hintmask 11010000
          -100 callsubr
          vhcurveto
          hintmask 11100000
          73 callsubr
        </CharString>
        <CharString name="copyright">
          95 -67 62 84 51 -51 108 78 149 -68 50 -50 68 80 64 hstemhm
          40 69 76 63 351 66 hintmask 1010101111000000
          665 250 -33 callsubr
          -181 108 rmoveto
          30 -21 -31 5 -26 hhcurveto
          -95 -60 -79 -85 -86 62 -67 96 79 42 38 29 15 hvcurveto
          4 8 1 8 4 vvcurveto
          11 -8 10 -15 -15 -9 -11 -11 -9 vhcurveto
          hintmask 1100011111000000
          -20 -18 -23 -15 -44 hhcurveto
          -67 -28 39 63 65 31 49 66 51 11 -33 -27 7 hvcurveto
          hintmask 1101001111000000
          -9 3 7 -12 18 hhcurveto
          21 6 11 24 hvcurveto
          8 -1 71 5 vvcurveto
          15 -4 15 -21 -21 -6 -15 -14 -5 1 -11 1 -8 vhcurveto
          endchar
        </CharString>
        <CharString name="currency">
          -28 194 -21 24 78 209 77 19 -20 hstemhm
          64 126 -93 93 193 93 -93 135 hintmask 11101001
          279 197 rmoveto
          36 51 12 32 43 hvcurveto
          -30 11 39 -38 25 hhcurveto
          19 15 21 18 12 -48 45 -18 19 hvcurveto
          hintmask 11101010
          15 25 9 31 39 vvcurveto
          34 -6 29 -11 25 vhcurveto
          hintmask 11011001
          21 21 38 40 9 vvcurveto
          18 -8 21 -26 -18 -39 -41 -17 -11 vhcurveto
          hintmask 11101010
          25 -32 -42 14 -49 hhcurveto
          -50 -44 -11 -24 -36 hvcurveto
          hintmask 11010110
          7 -3 -37 47 -26 hhcurveto
          hintmask 11101010
          -23 -10 -19 -17 -15 39 -37 15 -17 hvcurveto
          hintmask 11100110
          -14 -25 -7 -31 -39 vvcurveto
          -43 9 -34 13 -25 vhcurveto
          hintmask 11101010
          -23 -22 -32 -32 -14 vvcurveto
          hintmask 11100110
          -24 8 -13 25 28 30 43 13 8 vhcurveto
          -23 35 40 -9 41 hhcurveto
          3 78 rmoveto
          -33 -59 31 73 70 52 35 37 67 37 -40 -62 -77 -54 -30 -47 hvcurveto
          endchar
        </CharString>
        <CharString name="d">
          93 callsubr
          263 69 112 callsubr
          190 hintmask 01111100
          482 76 -43 callgsubr
          hintmask 10111010
          16 callsubr
          hintmask 01111100
          -8 -9 2 26 hvcurveto
          -32 callsubr
        </CharString>
        <CharString name="dagger">
          -261 12 -21 398 77 2 -20 21 -20 392 -20 hstemhm
          30 190 -91 91 -91 191 hintmask 10011100
          292 469 rmoveto
          hintmask 11001010
          -20 -24 -3 -30 hhcurveto
          119 2 83 124 vvcurveto
          16 -12 33 -32 -29 -18 -15 -18 vhcurveto
          -128 1 -89 -125 vvcurveto
          hintmask 10101100
          -24 -32 2 -11 hhcurveto
          -11 -22 -16 -23 hvcurveto
          hintmask 11001001
          -26 24 -14 9 vhcurveto
          67 hlineto
          -137 -1 -97 -136 vvcurveto
          -8 21 -20 25 18 26 8 23 vhcurveto
          135 -1 98 135 vvcurveto
          66 hlineto
          15 21 12 30 hvcurveto
          hintmask 10011100
          26 -23 11 -5 vhcurveto
          endchar
        </CharString>
        <CharString name="daggerdbl">
          -262 10 -21 289 77 91 80 310 -20 hstemhm
          30 190 -91 91 -91 191 hintmask 11110010
          292 358 rmoveto
          -20 -24 -3 -30 hhcurveto
          91 vlineto
          25 25 1 16 hhcurveto
          23 13 27 15 104 callgsubr
          hvcurveto
          -20 -24 -3 -30 hhcurveto
          hintmask 11110100
          94 2 62 103 vvcurveto
          16 -12 38 -32 -30 -17 -20 -18 vhcurveto
          -107 1 -70 -98 vvcurveto
          -24 -32 2 -11 hhcurveto
          hintmask 11111000
          -19 -14 -21 -18 -18 14 -22 19 hvcurveto
          67 -91 hlineto
          -24 -32 2 -11 hhcurveto
          -20 -13 -21 -18 -18 13 -22 20 hvcurveto
          67 hlineto
          hintmask 11110010
          -1 -93 0 -68 -98 vvcurveto
          -13 19 -17 25 20 26 9 24 vhcurveto
          97 -1 68 91 vvcurveto
          25 25 1 16 hhcurveto
          25 11 27 15 22 -16 15 -12 hvcurveto
          endchar
        </CharString>
        <CharString name="dcaron">
          93 callsubr
          263 69 40 -20 112 callsubr
          190 -55 -37 callsubr
          hintmask 1011111010000000
          524 791 rmoveto
          hintmask 1011111000100000
          -27 callsubr
          hintmask 1011111001000000
          -100 callsubr
          vhcurveto
          hintmask 0111111010000000
          -27 callgsubr
          -42 -715 -43 callgsubr
          hintmask 1011110100000000
          16 callsubr
          hintmask 0111111010000000
          -8 -9 2 26 hvcurveto
          -32 callsubr
        </CharString>
        <CharString name="dcroat">
          93 callsubr
          88 83 92 69 112 callsubr
          187 hintmask 10111110
          482 76 rmoveto
          -1 124 -1 125 0 vvcurveto
          18 1 113 1 109 vhcurveto
          58 hlineto
          hintmask 10111101
          28 8 30 14 18 -15 21 -13 hvcurveto
          hintmask 01111110
          -19 -21 -1 -1 -26 hvcurveto
          1 55 0 48 22 vvcurveto
          37 -34 1 -52 -150 -22 -11 -38 -12 11 -8 21 vhcurveto
          20 43 2 23 hhcurveto
          28 18 -3 -31 hvcurveto
          -63 vlineto
          -35 -44 2 -14 hhcurveto
          -23 -10 -24 -17 -17 13 -25 20 hvcurveto
          93 -148 hlineto
          27 -21 -48 34 -79 hhcurveto
          -185 -29 -185 -74 -97 50 -130 141 70 70 32 60 28 hvcurveto
          2 -54 1 -40 9 -12 27 -4 rlinecurve
          hintmask 10111110
          16 callsubr
          -8 -9 2 26 hvcurveto
          hintmask 01111110
          -32 callsubr
        </CharString>
        <CharString name="degree">
          -358 669 53 -53 168 hstemhm
          30 71 54 71 hintmask 01110000
          226 754 rmoveto
          44 -26 39 -71 -70 -29 -37 -48 -58 40 -25 51 54 51 27 58 vhcurveto
          -99 28 rmoveto
          18 10 -14 -15 hvcurveto
          hintmask 10110000
          -18 -7 -13 -20 -18 -9 13 17 17 12 13 14 vhcurveto
          endchar
        </CharString>
        <CharString name="dieresis">
          -269 486 3 callgsubr
          5 44 callsubr
          hintmask 01110000
          5 575 rmoveto
          -38 26 -28 -96 callsubr
          116 callgsubr
          -23 rmoveto
          hintmask 10110000
          -38 26 -28 -96 callsubr
          -43 -22 vhcurveto
          endchar
        </CharString>
        <CharString name="divide">
          -229 169 126 77 77 70 126 hstem
          121 138 vstem
          121 231 rmoveto
          64 callsubr
          350 vmoveto
          64 callsubr
          210 -127 rmoveto
          40 callsubr
          -33 24 -8 9 hvcurveto
          67 callgsubr
          34 -23 5 -5 hvcurveto
          endchar
        </CharString>
        <CharString name="dollar">
          21 -62 -21 941 -20 hstemhm
          50 84 126 90 124 92 -53 80 hintmask 11111000
          304 -83 rmoveto
          30 16 8 25 hvcurveto
          11 -1 10 11 vvcurveto
          102 9 115 43 106 vvcurveto
          107 -117 66 -101 42 vhcurveto
          76 1 151 1 126 vhcurveto
          58 -18 83 -86 11 -101 rrcurveto
          -29 12 -30 31 vhcurveto
          hintmask 11110100
          29 19 15 19 hvcurveto
          42 -2 42 42 48 4 51 47 vvcurveto
          9 0 30 -45 -39 -6 -25 -16 -11 3 -31 5 -83 vhcurveto
          -34 98 -55 52 -74 13 rrcurveto
          18 vlineto
          23 -12 31 -33 -15 -31 -8 -30 vhcurveto
          -34 vlineto
          -102 -16 -107 -65 -136 vvcurveto
          -160 73 -41 137 -70 vhcurveto
          -85 -1 -74 -80 vvcurveto
          -81 13 -44 52 51 vvcurveto
          29 -3 46 -44 -38 -7 -31 -19 vhcurveto
          -42 2 -13 -42 -29 -4 -57 -15 vvcurveto
          -12 17 -27 29 32 12 26 16 1 -3 71 0 vhcurveto
          25 -62 52 -24 55 -9 rrcurveto
          -35 vlineto
          -17 21 -13 24 vhcurveto
          -162 643 rmoveto
          83 56 44 61 18 vhcurveto
          1 -114 0 -129 -72 vvcurveto
          -98 41 -20 44 85 vvcurveto
          205 -500 rmoveto
          1 91 0 62 48 vvcurveto
          hintmask 11111000
          67 -32 59 -37 -52 vvcurveto
          -37 -54 -32 -73 -11 vhcurveto
          endchar
        </CharString>
        <CharString name="dotaccent">
          -476 514 131 hstem
          5 126 vstem
          5 580 rmoveto
          -43 26 -23 -96 callsubr
          -38 -27 vhcurveto
          endchar
        </CharString>
        <CharString name="dotlessi">
          -308 0 60 376 -20 hstemhm
          0 213 -191 191 -95 95 -95 196 hintmask 11100000
          213 401 rmoveto
          21 -2 14 -16 -22 -55 -1 -4 -38 vhcurveto
          -46 -5 -34 -6 -29 vvcurveto
          -20 35 -2 10 vhcurveto
          9 40 5 9 hhcurveto
          hintmask 11001000
          11 4 -13 -4 hvcurveto
          3 -42 1 -63 -39 vvcurveto
          -38 0 -55 -4 -41 vhcurveto
          -1 -14 -3 -6 -11 -1 rrcurveto
          hintmask 11010000
          -45 -4 -36 -6 -20 vvcurveto
          -26 48 -2 38 vhcurveto
          159 hlineto
          hintmask 11000100
          14 33 4 25 19 -20 12 -45 hvcurveto
          hintmask 11100000
          -36 hlineto
          endchar
        </CharString>
        <CharString name="dotlessj">
          -321 -240 80 -80 215 402 63 113 callgsubr
          -88 88 hintmask 01110100
          33 -73 rmoveto
          30 -27 18 -32 -38 -41 -23 callsubr
          hintmask 10101000
          29 3 282 30 vvcurveto
          27 -5 11 -18 -200 -25 -7 -30 -15 12 -11 26 vhcurveto
          97 hlineto
          hintmask 10110100
          19 6 -4 -17 hvcurveto
          -78 vlineto
          -65 0 -184 -8 -69 vhcurveto
          -64 -7 -33 -56 -70 hhcurveto
          -44 -7 12 7 9 20 callgsubr
          endchar
        </CharString>
        <CharString name="e">
          -49 callsubr
          82 callsubr
          hintmask 01111100
          126 288 -21 callgsubr
          -106 callgsubr
          hintmask 10111100
          -77 callgsubr
          endchar
        </CharString>
        <CharString name="eacute">
          -49 callsubr
          24 188 82 callsubr
          hintmask 01111110
          376 642 rmoveto
          -101 callgsubr
          -250 -354 -21 callgsubr
          -106 callgsubr
          hintmask 10111110
          -77 callgsubr
          endchar
        </CharString>
        <CharString name="ebreve">
          -49 callsubr
          32 54 callgsubr
          31 93 8 68 178 96 hintmask 0111101110000000
          126 288 -21 callgsubr
          -106 callgsubr
          hintmask 1011011110000000
          -77 callgsubr
          260 360 -59 callsubr
          hintmask 1011101110000000
          -51 callsubr
          hintmask 1011011110000000
          -89 callgsubr
        </CharString>
        <CharString name="ecaron">
          -49 callsubr
          -75 237 82 callsubr
          hintmask 10101110
          375 -89 callsubr
          -249 -352 -21 callgsubr
          -39 callsubr
          -235 -63 -85 callsubr
          hintmask 01110110
          61 -50 120 -160 -140 -93 -94 -157 -148 86 -93 146 166 41 114 43 33 -16 7 -25 -22 -15 -16 -21 -8 vhcurveto
          hintmask 10110110
          -77 callgsubr
          endchar
        </CharString>
        <CharString name="ecircumflex">
          -49 callsubr
          186 -20 82 callsubr
          hintmask 01111110
          373 510 rmoveto
          9 4 11 10 42 -110 91 -23 -18 -114 -88 -52 -7 5 -7 8 14 59 39 23 46 hvcurveto
          -23 46 60 -39 14 hhcurveto
          -247 -222 -21 callgsubr
          -106 callgsubr
          hintmask 10111110
          -77 callgsubr
          endchar
        </CharString>
        <CharString name="edieresis">
          -49 callsubr
          23 3 callgsubr
          31 93 -34 44 callsubr
          -45 96 hintmask 1011010110000000
          90 590 rmoveto
          -38 26 -28 -96 callsubr
          116 callgsubr
          -23 rmoveto
          hintmask 1011101010000000
          -38 26 -28 -96 callsubr
          -43 -22 vhcurveto
          -171 -279 -21 callgsubr
          hintmask 0111101001000000
          -106 callgsubr
          hintmask 1011101010000000
          -77 callgsubr
          endchar
        </CharString>
        <CharString name="edotaccent">
          -49 callsubr
          43 131 hstemhm
          31 93 73 126 55 96 hintmask 01111111
          126 288 -21 callgsubr
          -106 callgsubr
          hintmask 10111111
          -77 callgsubr
          72 358 rmoveto
          -43 26 -23 -96 callsubr
          -38 -27 vhcurveto
          endchar
        </CharString>
        <CharString name="egrave">
          -49 callsubr
          22 188 82 callsubr
          hintmask 01111110
          176 640 -72 callgsubr
          -50 -352 -21 callgsubr
          -106 callgsubr
          hintmask 10111110
          -77 callgsubr
          endchar
        </CharString>
        <CharString name="eight">
          -33 -20 75 319 93 286 79 hstemhm
          21 96 -70 89 296 77 -77 95 hintmask 11110010
          21 193 rmoveto
          -142 99 -71 137 173 97 109 125 112 -86 81 -72 13 vhcurveto
          hintmask 11101100
          51 15 89 78 109 vvcurveto
          100 -59 110 -175 -150 -78 -104 -114 -104 62 -64 58 -26 vhcurveto
          hintmask 11110100
          -54 -18 -92 -70 -139 vvcurveto
          96 16 rmoveto
          95 66 70 88 88 73 -63 -102 -99 -70 -55 -100 -117 -28 71 83 vhcurveto
          hintmask 11101100
          19 403 rmoveto
          65 42 76 101 88 55 -59 -78 -82 -66 -67 -78 -71 -71 49 96 vhcurveto
          endchar
        </CharString>
        <CharString name="eightinferior">
          -329 -12 100 callgsubr
          71 -50 callsubr
        </CharString>
        <CharString name="eightsuperior">
          -329 496 100 callgsubr
          579 -50 callsubr
        </CharString>
        <CharString name="ellipsis">
          -45 -28 126 hstem
          40 138 40 138 32 138 vstem
          40 34 rmoveto
          -44 callsubr
          178 hmoveto
          -28 19 -34 48 46 25 31 33 29 -22 33 -47 -50 -19 -37 -27 vhcurveto
          170 hmoveto
          -44 callsubr
          endchar
        </CharString>
        <CharString name="emacron">
          -49 callsubr
          85 77 2 -20 21 -20 82 callsubr
          hintmask 0111100110000000
          126 288 -21 callgsubr
          -106 callgsubr
          hintmask 1011001110000000
          -77 callgsubr
          270 414 rmoveto
          hintmask 1011100110000000
          -3 callgsubr
          hintmask 1011010110000000
          -34 -68 -50 callgsubr
          hintmask 1011100110000000
          -72 callsubr
          hintmask 1011001110000000
          26 callgsubr
        </CharString>
        <CharString name="emdash">
          129 229 13 callsubr
          655 309 rmoveto
          hintmask 10000000
          -32 -196 -3 -55 hhcurveto
          hintmask 01100000
          -34 -227 -50 callgsubr
          hintmask 10000000
          -18 13 -22 20 vhcurveto
          hintmask 01010000
          47 455 1 53 hhcurveto
          28 8 28 14 20 -15 17 -13 hvcurveto
          endchar
        </CharString>
        <CharString name="endash">
          -106 229 13 callsubr
          418 309 rmoveto
          hintmask 10000000
          -45 -58 -3 -77 hhcurveto
          hintmask 01100000
          -48 -67 2 -27 hhcurveto
          -27 -12 -21 -18 hvcurveto
          hintmask 10000000
          -18 18 -22 21 vhcurveto
          hintmask 01010000
          66 callsubr
        </CharString>
        <CharString name="eng">
          -30 -250 74 69 97 24 73 301 63 4 -20 hstemhm
          -7 221 -170 170 -91 91 21 86 -86 171 30 91 hintmask 1110110010100000
          361 -250 rmoveto
          83 83 66 155 hvcurveto
          286 vlineto
          168 -96 30 -54 -65 -68 -35 -63 -28 vhcurveto
          -3 58 rlineto
          hintmask 1111010010100000
          32 -2 -7 4 -40 hhcurveto
          -165 -6 -9 -26 -23 20 -5 52 hvcurveto
          40 hlineto
          hintmask 1111000110100000
          14 4 -13 -27 hvcurveto
          -41 -5 -161 -3 vvcurveto
          -41 -1 -12 -15 -15 hhcurveto
          -15 -1 rlineto
          hintmask 1111001010100000
          -17 -14 -8 -27 -34 26 -3 25 hvcurveto
          15 145 1 10 hhcurveto
          28 28 5 30 34 -19 8 -24 hvcurveto
          -67 94 hlineto
          38 19 54 2 5 vhcurveto
          40 15 39 54 59 hhcurveto
          77 14 -47 -125 hvcurveto
          -241 vlineto
          -67 -16 -73 -68 -21 -18 12 25 17 10 14 20 1 vhcurveto
          hintmask 1111010001100000
          50 3 13 21 22 vvcurveto
          35 -22 16 -30 -94 -25 -63 -68 -76 78 -33 48 vhcurveto
          endchar
        </CharString>
        <CharString name="eogonek">
          -104 -161 53 -53 77 70 76 168 60 113 75 hstemhm
          31 93 88 126 callgsubr
          -27 96 hintmask 1011111010000000
          125 229 -85 callsubr
          61 -50 120 -160 -140 -93 -94 -157 -148 85 -92 145 -1 vhcurveto
          -23 -15 -26 -24 -33 36 callsubr
          vhcurveto
          hintmask 1011110100000000
          68 callsubr
          hintmask 0111111010000000
          35 callgsubr
          hintmask 1011111010000000
          123 callsubr
          14 38 27 17 hvcurveto
          109 26 29 86 37 vvcurveto
          33 -16 7 -25 -22 -15 -16 -21 -8 vhcurveto
          -77 callgsubr
          1 59 -21 callgsubr
          -39 callsubr
          endchar
        </CharString>
        <CharString name="equal">
          -217 245 77 -55 -21 167 63 callgsubr
          hintmask 10100000
          315 325 rmoveto
          -32 -41 -3 -55 -34 -48 2 -19 hhcurveto
          77 callsubr
          hintmask 01001000
          119 callsubr
          20 -15 17 -13 hvcurveto
          168 vmoveto
          hintmask 10100000
          -3 callgsubr
          hintmask 10010000
          -34 -48 -50 callgsubr
          hintmask 10100000
          -3 callsubr
          119 callsubr
          hvcurveto
          hintmask 10001000
          20 -15 17 -13 vhcurveto
          endchar
        </CharString>
        <CharString name="eth">
          -33 -19 79 327 81 365 -20 hstem
          26 96 327 95 vstem
          470 756 rmoveto
          -17 -63 -38 -11 -14 hvcurveto
          -54 66 -26 16 -37 30 rrcurveto
          9 -11 -20 5 -17 hhcurveto
          -24 -11 -19 -14 -4 1 -9 6 -4 hvcurveto
          46 -29 47 -31 39 -52 -72 -39 rcurveline
          -18 -10 -10 -7 -12 vvcurveto
          -11 12 -26 17 11 87 46 5 7 vhcurveto
          56 -95 33 -101 7 -8 rrcurveto
          41 -46 -67 14 -58 hhcurveto
          -118 -130 -74 -164 -113 59 -136 192 210 57 147 92 145 -39 137 -72 119 hvcurveto
          -12 20 4 -5 -11 18 30 17 24 14 17 9 rrcurveto
          6 3 11 11 17 vvcurveto
          14 -8 17 -24 vhcurveto
          -187 -696 rmoveto
          -85 -76 41 123 85 59 78 111 72 85 -38 -130 -72 -34 -87 -132 hvcurveto
          endchar
        </CharString>
        <CharString name="etilde">
          -49 callsubr
          24 -28 callsubr
          31 93 254 96 hintmask 0111100111000000
          126 288 -21 callgsubr
          -106 callgsubr
          hintmask 1011010111000000
          -77 callgsubr
          -39 308 -74 callgsubr
          hintmask 1011100111000000
          -101 callsubr
          hintmask 1011001011000000
          -18 callsubr
          hintmask 1011100111000000
          -78 callsubr
        </CharString>
        <CharString name="exclam">
          -346 -66 132 0 35 741 -20 hstemhm
          62 149 -126 91 hintmask 01101000
          94 127 rmoveto
          -3 1 7 -23 32 hhcurveto
          36 6 15 56 hvcurveto
          623 vlineto
          47 -38 0 -9 -18 -26 -8 -39 -43 4 -611 5 -14 vhcurveto
          hintmask 10110000
          117 -125 rmoveto
          28 -21 36 -54 -60 -14 -46 -21 -24 15 -41 57 56 21 37 31 vhcurveto
          endchar
        </CharString>
        <CharString name="exclamdown">
          -349 -198 -21 741 36 0 132 hstemhm
          60 150 -128 91 hintmask 10110000
          210 622 rmoveto
          31 -22 37 -55 -58 -15 -41 -24 -21 14 -46 60 55 21 36 28 vhcurveto
          -119 -126 rmoveto
          hintmask 11001000
          -5 -14 -4 -611 -43 vvcurveto
          -39 26 -8 18 9 38 0 47 vhcurveto
          623 vlineto
          56 -6 15 -36 -32 -7 -23 -3 -1 vhcurveto
          endchar
        </CharString>
        <CharString name="f">
          -278 3 116 callsubr
          402 76 148 198 -74 74 hstemhm
          9 169 -94 94 -94 224 27 121 hintmask 0101101001000000
          81 93 rmoveto
          -2 -18 -4 -1 -17 -2 rrcurveto
          -12 -1 -37 -4 -34 vvcurveto
          -33 35 0 16 vhcurveto
          hintmask 1001101001000000
          15 53 3 36 hhcurveto
          hintmask 0011101001000000
          29 59 -2 21 hhcurveto
          38 22 7 33 hvcurveto
          hintmask 1001101001000000
          37 -28 0 -18 vhcurveto
          75 callsubr
          hintmask 1001100011000000
          11 35 0 40 38 -31 0 -13 hvcurveto
          -78 hlineto
          hintmask 1001010101000000
          -5 -3 1 4 75 0 192 143 27 17 -7 -8 -6 -9 -7 -6 -7 hvcurveto
          -13 -15 -2 -16 -8 vvcurveto
          hintmask 1001100101000000
          -26 23 -24 32 41 25 38 49 43 -20 68 -116 -220 -12 -242 -92 -4 vhcurveto
          -6 -1 -6 -11 vhcurveto
          -13 hlineto
          -22 -27 -1 -35 -33 23 -7 23 hvcurveto
          16 hlineto
          11 2 -1 -4 hvcurveto
          1 -68 1 -114 -1 vvcurveto
          -35 -3 -61 -3 -26 vhcurveto
          endchar
        </CharString>
        <CharString name="f_b">
          197 -9 85 -73 73 -67 -21 33 -21 379 79 -47 76 264 74 hstemhm
          -1 166 -144 144 -89 209 54 91 256 94 hintmask 1000011001110000
          430 693 rmoveto
          71 -4 61 -119 -209 -22 -191 -143 -3 -3 -1 -9 vhcurveto
          -23 hlineto
          hintmask 1000011100110000
          -24 -18 -9 -26 -27 17 -14 22 15 callgsubr
          -142 -1 -33 -4 -32 vhcurveto
          -2 -16 -6 -3 -11 -2 rrcurveto
          hintmask 0001101010110000
          -28 -5 -4 -8 -23 vvcurveto
          -24 16 -12 18 vhcurveto
          hintmask 0100101001110000
          15 45 3 36 30 38 118 callgsubr
          8 17 21 25 -9 12 -20 hvcurveto
          hintmask 1000011100110000
          -91 324 2 callgsubr
          112 callgsubr
          -5 -3 1 2 93 0 168 122 26 24 -17 -29 1 hvcurveto
          1 -54 0 -86 -39 -274 -9 -157 -59 vvcurveto
          hintmask 0010101100110000
          -34 12 -14 30 41 5 12 68 4 vhcurveto
          hintmask 1000101100110000
          -36 22 35 -41 72 callgsubr
          -45 -79 -37 hvcurveto
          1 -128 rmoveto
          73 55 100 87 61 52 -43 -108 -133 -77 -25 -50 -107 -21 57 79 vhcurveto
          endchar
        </CharString>
        <CharString name="f_f">
          -94 -107 116 callsubr
          109 78 325 76 148 198 -125 75 -24 74 hstemhm
          -22 168 -94 94 36 118 -29 91 -91 221 -221 246 2 123 hintmask 0101110010100010
          28 -110 rmoveto
          hintmask 1001110010100010
          15 57 3 36 hhcurveto
          hintmask 0011110010100010
          30 50 -2 25 hhcurveto
          38 21 10 28 hvcurveto
          hintmask 1001110010000110
          34 -19 5 -27 vhcurveto
          -108 424 hlineto
          7 4 4 14 56 11 2 1 36 vhcurveto
          3 -7 1 -162 -22 vvcurveto
          -39 -2 -42 69 callgsubr
          -8 -4 -35 -2 rrcurveto
          hintmask 1001110010100010
          -14 -1 -25 -6 -30 vvcurveto
          -30 17 -5 24 vhcurveto
          15 74 3 36 30 56 -2 25 hhcurveto
          hintmask 1001110010000110
          33 25 7 31 32 -17 7 -29 hvcurveto
          hintmask 1001110010010010
          75 callsubr
          hintmask 1001110010001010
          20 26 5 38 30 -25 5 -19 hvcurveto
          -78 hlineto
          hintmask 1001100110010010
          -5 -3 2 3 109 10 158 139 18 20 -8 -6 -6 -3 -2 -12 -13 hvcurveto
          -12 -14 -3 -15 -11 vvcurveto
          hintmask 1001110010100010
          -20 18 -29 41 24 40 19 72 38 -27 69 -100 -74 -51 -25 -35 -36 vhcurveto
          hintmask 1001101001100010
          7 -15 -18 3 -21 hhcurveto
          -231 -17 -151 -133 114 callgsubr
          hintmask 0101101010100010
          -24 -25 -1 -37 -31 61 callgsubr
          -1 -3 hvcurveto
          -18 2 -58 71 callsubr
          -16 -1 -33 -7 -29 vvcurveto
          -30 27 -5 24 vhcurveto
          267 810 rmoveto
          1 6 0 -2 5 hvcurveto
          -30 -81 -9 -64 -74 vvcurveto
          -114 hlineto
          -6 -2 4 7 136 16 74 133 hvcurveto
          endchar
        </CharString>
        <CharString name="f_f_b">
          430 -98 78 -56 -21 88 85 -81 -21 29 73 -67 -21 33 -21 379 79 -44 76 222 74 -35 35 -35 74 hstemhm
          -52 203 -168 168 -94 94 89 31 25 88 -88 196 -196 211 66 89 256 94 hintmask 101000010001100110011000
          791 -9 rmoveto
          94 127 55 175 101 -41 136 -136 -53 -70 -20 -108 -51 hvcurveto
          29 1 270 97 vvcurveto
          47 -12 52 -118 -78 -55 -23 -31 -31 vhcurveto
          hintmask 101000001010001110011000
          10 -18 -21 5 -23 hhcurveto
          -232 -13 -150 -134 -4 hvcurveto
          -6 -1 -6 -11 vhcurveto
          -13 hlineto
          hintmask 010110001100010110011000
          -24 -25 -1 -37 -30 24 -8 22 hvcurveto
          16 hlineto
          12 1 -2 -6 hvcurveto
          -94 2 4 -81 vvcurveto
          -55 -2 -144 -4 -41 vhcurveto
          -16 -1 -41 -5 -15 hhcurveto
          hintmask 101000010100100110011000
          -14 -35 -7 -30 -29 23 -6 28 hvcurveto
          15 101 3 36 hhcurveto
          hintmask 011000010100100110011000
          30 6 -2 25 hhcurveto
          34 25 6 32 hvcurveto
          hintmask 100000101100100101011000
          33 -17 6 -29 vhcurveto
          -74 423 hlineto
          7 2 4 16 vhcurveto
          7 90 1 26 hhcurveto
          2 -27 2 -12 -68 vvcurveto
          -89 -1 -87 -3 -36 vhcurveto
          -1 -14 -4 -7 -15 -3 rrcurveto
          -15 -3 -17 -7 -30 vvcurveto
          -16 15 -16 19 vhcurveto
          hintmask 100010010100100101011000
          15 45 59 callsubr
          8 21 19 22 -9 13 -20 hvcurveto
          hintmask 101000010100100110011000
          -79 324 2 callgsubr
          hintmask 101000010100100100111000
          112 callgsubr
          hintmask 100001010010100110011000
          -6 -2 1 5 hvcurveto
          136 1 8 122 124 hhcurveto
          16 36 -11 -21 1 hvcurveto
          2 -53 1 2 -71 -328 -11 -215 -11 vvcurveto
          -40 10 -15 32 40 6 10 70 4 vhcurveto
          hintmask 101000010100100110011000
          -36 22 35 -41 80 hhcurveto
          79 vmoveto
          -95 -35 64 54 104 62 87 87 70 38 -51 -100 -133 -66 -25 -61 hvcurveto
          hintmask 101000001100100110011000
          -495 420 rmoveto
          -137 hlineto
          -5 -3 1 4 115 0 102 150 8 8 -5 -4 5 hvcurveto
          -23 -55 -3 -95 -63 vvcurveto
          endchar
        </CharString>
        <CharString name="f_f_h">
          429 -107 116 callsubr
          48 61 0 63 288 77 -20 71 224 72 -24 74 hstemhm
          -29 202 -169 169 -94 94 41 103 -13 88 -88 152 -152 195 13 240 -195 89 -89 195 55 146 -91 198 hintmask 010101010100100010010000
          55 -110 rmoveto
          hintmask 100011010100100010010000
          15 67 3 36 hhcurveto
          hintmask 001101010100100010010000
          30 30 93 callgsubr
          hintmask 100010110100001010010000
          33 -17 6 -29 vhcurveto
          -98 427 hlineto
          7 2 6 16 vhcurveto
          37 18 4 53 hhcurveto
          4 -9 1 -73 -20 vvcurveto
          -78 -3 -127 -1 -22 vhcurveto
          -16 -1 -30 -4 -15 hhcurveto
          hintmask 100011010100100010010000
          -25 -15 -11 -20 -18 13 -14 29 hvcurveto
          15 38 3 36 23 33 -2 12 hhcurveto
          hintmask 100011010100001010010000
          31 12 13 16 22 -7 11 -23 hvcurveto
          hintmask 100011010100010010010000
          -34 337 hlineto
          9 5 2 13 vhcurveto
          12 28 -2 12 hhcurveto
          hintmask 100010110100000110010000
          15 22 8 30 22 -16 10 -19 hvcurveto
          -64 hlineto
          hintmask 100011001100010000110000
          -6 -2 1 4 130 7 137 128 18 11 -7 -19 hvcurveto
          -16 1 -233 -40 -126 -7 -153 -53 vvcurveto
          -23 -3 -16 -15 -1 vhcurveto
          hintmask 010101010100100010001000
          -15 -1 -5 -15 -12 vvcurveto
          -22 15 -14 24 vhcurveto
          30 8 3 31 31 37 -3 38 hhcurveto
          19 7 17 13 23 -13 11 -35 hvcurveto
          -63 108 hlineto
          83 41 96 101 56 15 -46 -22 2 vhcurveto
          5 -49 1 -83 -28 -23 -3 -49 -19 vvcurveto
          -26 -9 -6 -10 vhcurveto
          hintmask 010101010100100010010000
          -20 -13 -5 -29 -14 9 -13 22 hvcurveto
          19 42 3 29 28 54 -3 21 hhcurveto
          hintmask 010101010100100010001000
          20 9 15 12 26 -14 8 -40 hvcurveto
          hintmask 010101001100100001010000
          -53 66 callgsubr
          -60 -33 -64 -35 hvcurveto
          335 2 21 26 vvcurveto
          hintmask 100011001100100010010000
          35 -21 77 -115 -56 -52 -18 -41 -31 vhcurveto
          hintmask 100010110001100010010000
          7 -18 -25 2 -13 hhcurveto
          -215 -18 -150 -134 -5 hvcurveto
          -6 -1 -6 -11 vhcurveto
          -47 hlineto
          hintmask 100011010100100010010000
          -24 -25 -1 -37 -31 24 -7 22 hvcurveto
          50 hlineto
          12 1 -2 -4 hvcurveto
          -62 2 -12 71 callsubr
          hintmask 010100110010100010010000
          -18 -1 -31 -8 -28 vvcurveto
          -27 22 -8 29 vhcurveto
          266 813 rmoveto
          5 4 -1 5 hhcurveto
          -20 -51 -8 -70 -102 vvcurveto
          -126 hlineto
          -5 -3 1 4 121 7 98 141 hvcurveto
          endchar
        </CharString>
        <CharString name="f_f_i">
          115 -105 78 -56 -21 104 60 353 74 224 74 -38 78 hstemhm
          -22 168 -94 94 68 56 2 88 121 146 -115 133 -102 207 hintmask 1011011011010000
          632 107 callsubr
          -7 -1 1 10 75 12 174 111 61 8 -27 -23 hvcurveto
          -52 -40 8 -35 vvcurveto
          -23 13 -25 49 55 16 43 43 140 -75 29 -65 -70 -49 -19 -30 -34 vhcurveto
          hintmask 1011100111100000
          7 -15 -17 2 -21 hhcurveto
          -230 -17 -154 -130 114 callgsubr
          hintmask 1011101011100000
          -29 -20 -5 -34 -30 61 callgsubr
          57 callsubr
          -10 -17 -1 rrcurveto
          -14 -1 -35 -6 -30 vvcurveto
          -30 26 -5 25 vhcurveto
          15 67 3 36 hhcurveto
          hintmask 0111101011100000
          30 11 118 callgsubr
          25 7 31 hvcurveto
          hintmask 1011101011001000
          32 -16 7 -30 vhcurveto
          -78 429 hlineto
          8 5 5 15 vhcurveto
          35 21 -1 47 hhcurveto
          1 -7 2 -60 -47 vvcurveto
          -80 -1 -118 -4 -25 vhcurveto
          -2 -14 -2 -6 -8 -1 rrcurveto
          -14 -2 -27 -7 -20 vvcurveto
          -23 17 -4 26 vhcurveto
          15 38 59 callsubr
          11 9 20 20 -12 10 -20 hvcurveto
          -72 hlineto
          -1 5 -8 47 45 26 2 205 58 callgsubr
          -11 -6 1 hvcurveto
          2 -18 2 -137 -90 vvcurveto
          -84 -2 -54 -2 -23 vhcurveto
          -1 -13 -10 -5 -30 -3 rrcurveto
          hintmask 1011101011100000
          -10 -1 -7 -8 -16 vvcurveto
          -28 22 -8 52 vhcurveto
          165 hlineto
          hintmask 1011101011001000
          13 17 6 25 23 -18 9 -30 hvcurveto
          -74 hlineto
          hintmask 1011101011100000
          107 callgsubr
          -361 59 rmoveto
          -117 hlineto
          -5 -3 2 5 143 16 74 133 2 3 0 -2 4 hvcurveto
          -26 -67 -7 -60 -95 vvcurveto
          endchar
        </CharString>
        <CharString name="f_f_j">
          86 -250 69 79 53 -53 72 36 57 348 76 214 74 -28 78 hstemhm
          -24 168 -94 94 74 44 22 88 -88 206 -188 85 -85 138 86 131 -106 88 -75 93 hintmask 110110110110000100000000
          473 -250 rmoveto
          75 67 53 153 15 hvcurveto
          11 107 -3 240 1 131 rrcurveto
          42 -14 11 -28 vhcurveto
          -217 hlineto
          124 callsubr
          hvcurveto
          hintmask 110111010110000010000000
          34 17 -25 -25 hvcurveto
          hintmask 110110110110001000000000
          -47 -38 1 -33 vvcurveto
          -33 10 -24 45 55 21 34 61 140 -75 29 -65 -78 -51 -24 -36 -34 vhcurveto
          hintmask 110111001110001000000000
          7 -15 -21 3 -19 hhcurveto
          -231 -18 -149 -119 -14 -5 -6 -9 hvcurveto
          -19 hlineto
          hintmask 101111010101001000000000
          -24 -17 -8 -30 -31 61 callgsubr
          -2 -5 hvcurveto
          -67 2 -32 -83 vvcurveto
          -51 -2 -142 69 callgsubr
          -7 -8 -15 -1 rrcurveto
          -19 -1 -30 -9 -25 vvcurveto
          -28 29 -3 22 vhcurveto
          15 67 3 36 30 9 -2 26 hhcurveto
          33 20 4 31 31 -18 5 -38 hvcurveto
          -62 430 hlineto
          9 7 2 11 vhcurveto
          64 -11 3 63 hhcurveto
          4 -40 2 -43 -31 vvcurveto
          -80 -3 -116 -2 -24 vhcurveto
          -15 -1 -21 -5 -7 hhcurveto
          -19 -13 -8 -21 -20 16 -8 18 hvcurveto
          15 55 3 36 30 36 118 callgsubr
          8 11 18 115 callgsubr
          -86 hlineto
          -3 26 -2 25 45 vvcurveto
          hintmask 110111010110000100000000
          26 2 203 12 vvcurveto
          8 5 3 13 14 31 -2 -1 89 vhcurveto
          17 10 -5 -16 -174 -4 -185 -4 -68 hvcurveto
          -105 -6 -29 -36 -54 hhcurveto
          hintmask 110111010100101000000000
          -38 -29 11 27 10 5 8 11 1 hvcurveto
          hintmask 110111010100011000000000
          18 2 19 6 27 vvcurveto
          25 -21 15 -27 -55 -35 -41 -41 -70 51 -49 120 vhcurveto
          -179 951 rmoveto
          2 7 -1 -4 8 hvcurveto
          -25 -70 -1 -70 -69 vvcurveto
          -133 hlineto
          -5 -3 3 7 69 19 135 131 hvcurveto
          endchar
        </CharString>
        <CharString name="f_f_k">
          404 -105 75 -60 60 -57 -21 22 -21 101 -21 30 57 -39 -21 411 76 214 74 -24 74 hstemhm
          -24 168 -94 94 86 27 26 88 -88 196 10 153 -85 169 hintmask 001011011010110100000000
          26 -108 rmoveto
          hintmask 100011011010110100000000
          15 67 3 36 hhcurveto
          hintmask 000111011010110100000000
          30 -1 93 callgsubr
          hintmask 100010111010110100000000
          39 -26 0 -20 vhcurveto
          -67 430 hlineto
          8 7 3 11 67 -18 1 2 69 vhcurveto
          3 -22 0 -29 -26 vvcurveto
          -37 vlineto
          -81 -3 -128 -1 -14 vhcurveto
          -1 -13 -4 -7 -8 -1 rrcurveto
          -15 -2 -21 -7 -20 vvcurveto
          -27 20 0 18 vhcurveto
          hintmask 100011011010101100000000
          15 38 59 callsubr
          8 9 20 115 callgsubr
          hintmask 100011010110110100000000
          -79 340 2 callgsubr
          15 19 8 30 27 -15 13 -17 hvcurveto
          -78 hlineto
          -5 -3 3 18 99 12 144 146 22 4 -22 -84 hvcurveto
          hintmask 100011011010110010000000
          -87 2 -82 -144 -199 -3 -40 -23 vvcurveto
          -72 -6 -27 -32 -2 vhcurveto
          hintmask 010011011010110100000000
          -14 -1 -13 -3 -25 vvcurveto
          -24 27 -6 29 vhcurveto
          hintmask 001011011010110010000000
          8 29 3 17 39 21 -2 40 hhcurveto
          12 15 5 21 hvcurveto
          hintmask 100011010110110100000000
          21 0 12 -45 vhcurveto
          -39 hlineto
          20 1 145 50 vvcurveto
          17 20 rlineto
          -53 28 104 -240 35 hhcurveto
          153 63 2 27 26 -34 6 -46 -53 -33 11 11 -9 hvcurveto
          -25 33 -47 72 -74 157 39 36 35 34 29 31 5 6 13 6 13 1 rrcurveto
          78 7 37 4 26 vvcurveto
          25 -57 6 -104 -74 -36 -14 -29 -18 8 -6 6 vhcurveto
          5 hlineto
          3 1 -3 -2 -10 -15 -8 -66 -67 hvcurveto
          431 vlineto
          54 -11 58 -99 -84 -52 -25 -37 -39 vhcurveto
          hintmask 100011011001110100000000
          8 -12 -23 4 -23 hhcurveto
          -233 -16 -151 -117 -10 -3 -10 -9 hvcurveto
          -17 hlineto
          hintmask 001011011010110100000000
          -25 -20 -4 -34 -31 24 -7 22 hvcurveto
          17 hlineto
          11 1 -1 -6 hvcurveto
          -66 2 -34 -83 vvcurveto
          -51 -2 -141 69 callgsubr
          -7 -8 -15 -1 rrcurveto
          -16 -1 -33 -10 -26 vvcurveto
          -27 23 -8 28 vhcurveto
          262 809 rmoveto
          1 16 0 -4 9 hvcurveto
          -27 -63 -3 -81 -66 vvcurveto
          -132 hlineto
          -5 -3 4 9 70 22 131 122 hvcurveto
          endchar
        </CharString>
        <CharString name="f_f_l">
          92 -107 116 callsubr
          101 60 -38 -21 23 -21 408 76 222 74 -32 74 hstemhm
          -22 168 -94 94 60 84 -18 88 -88 206 66 87 -87 212 hintmask 0101001101010010
          28 -110 rmoveto
          hintmask 1001001101010010
          15 47 3 36 hhcurveto
          hintmask 0011001101010010
          30 51 118 callgsubr
          25 7 31 hvcurveto
          hintmask 1001001101000110
          36 -20 3 -26 vhcurveto
          -98 424 hlineto
          7 2 4 16 vhcurveto
          56 3 4 45 hhcurveto
          3 -15 1 -69 -31 -153 -4 -47 -23 vvcurveto
          -13 -2 -3 -11 -3 vhcurveto
          hintmask 1001001101010010
          -7 -2 -42 -5 -24 vvcurveto
          -26 31 -1 20 vhcurveto
          hintmask 1000011101010010
          15 40 3 32 hhcurveto
          hintmask 1000101101000110
          35 32 -2 26 hhcurveto
          34 7 9 21 hvcurveto
          hintmask 1001001101001010
          19 -9 10 -20 vhcurveto
          -89 340 hlineto
          8 6 3 14 vhcurveto
          8 46 -2 9 hhcurveto
          hintmask 1001001101000110
          16 19 8 29 29 -16 12 -16 hvcurveto
          -78 hlineto
          hintmask 1001001011001001
          -6 -2 1 5 65 1 193 152 27 4 -19 -49 76 callgsubr
          -16 -1 -1 -12 -9 hhcurveto
          -23 -1 rlineto
          -26 -1 -12 -15 -13 vvcurveto
          -18 17 -11 24 vhcurveto
          38 42 1 17 44 49 -2 2 hhcurveto
          39 16 12 19 19 -24 9 -21 hvcurveto
          -78 hlineto
          hintmask 1001001011001010
          65 -2 343 142 140 1 11 44 vvcurveto
          52 -7 60 -107 -73 -49 -22 -33 -36 vhcurveto
          hintmask 1001001100110010
          10 -18 -19 3 -24 hhcurveto
          -223 -24 -151 -133 114 callgsubr
          hintmask 0101001101001010
          -24 -25 -1 -37 -31 24 -7 22 hvcurveto
          16 hlineto
          12 1 57 callsubr
          -5 -17 -1 rrcurveto
          -19 -1 -30 -8 -28 vvcurveto
          -31 24 -4 27 vhcurveto
          267 811 rmoveto
          4 6 -1 -3 7 hvcurveto
          -73 -38 28 -145 -30 hhcurveto
          -118 hlineto
          -5 -3 1 4 141 16 76 133 hvcurveto
          endchar
        </CharString>
</ttFont>
